<svg width="11" height="11" viewBox="0 0 11 11" fill="none" xmlns="http://www.w3.org/2000/svg">
<path d="M10.4997 7.98692V9.49232C10.5003 9.63208 10.4716 9.77041 10.4155 9.89846C10.3594 10.0265 10.2771 10.1414 10.1739 10.2359C10.0707 10.3304 9.94891 10.4023 9.81626 10.4471C9.68361 10.4919 9.54305 10.5085 9.40359 10.4959C7.8564 10.3281 6.37022 9.8005 5.06445 8.9554C3.84961 8.18496 2.81963 7.15703 2.04767 5.94459C1.19793 4.63549 0.669121 3.14504 0.504081 1.59397C0.491516 1.45521 0.508041 1.31536 0.552601 1.18331C0.597162 1.05127 0.668783 0.929936 0.762904 0.827033C0.857025 0.724129 0.971584 0.641913 1.09929 0.585617C1.22699 0.529321 1.36504 0.50018 1.50465 0.500049H3.01304C3.25705 0.497652 3.49361 0.583889 3.67862 0.742686C3.86364 0.901483 3.98448 1.122 4.01863 1.36315C4.0823 1.84491 4.20037 2.31794 4.37059 2.77321C4.43824 2.95281 4.45288 3.14801 4.41278 3.33567C4.37268 3.52332 4.27952 3.69557 4.14433 3.83201L3.50578 4.46929C4.22154 5.72558 5.26379 6.76576 6.52256 7.4801L7.16112 6.84281C7.29782 6.7079 7.47041 6.61492 7.65844 6.5749C7.84647 6.53488 8.04206 6.54949 8.22202 6.617C8.67819 6.78689 9.15216 6.90473 9.63488 6.96826C9.87912 7.00265 10.1022 7.12543 10.2616 7.31325C10.4211 7.50107 10.5058 7.74083 10.4997 7.98692Z" stroke="black" stroke-linecap="round" stroke-linejoin="round"/>
</svg>
