<svg width="16" height="13" viewBox="0 0 16 13" fill="none" xmlns="http://www.w3.org/2000/svg">
<path d="M8.73908 12.74C8.76229 12.8297 8.79275 12.9168 8.83337 13H0.883881C0.724308 13 0.59375 12.883 0.59375 12.74V10.391C0.59375 8.53196 2.28085 7.02007 4.35533 7.02007H6.01488C5.9612 7.10457 5.91768 7.19166 5.88432 7.28007C5.8495 7.36586 5.82484 7.45297 5.80888 7.54006C5.69573 8.10295 5.91188 8.69445 6.39641 9.08705V9.11305C5.75086 9.63694 5.58259 10.5118 6.02938 11.2047L6.49939 11.934C6.64155 12.155 6.83739 12.3409 7.06515 12.4799C7.26825 12.606 7.49744 12.6945 7.74115 12.7399H8.5187C8.58252 12.7282 8.64345 12.7126 8.70438 12.6957C8.71308 12.7009 8.72179 12.7048 8.73049 12.7087L8.73908 12.74ZM15.0421 10.6847L14.5736 11.4139C14.4401 11.6206 14.1964 11.7376 13.9469 11.7376C13.841 11.7376 13.7336 11.7168 13.6335 11.6726L13.3332 11.5413C13.3144 11.5335 13.2941 11.5296 13.2738 11.5296C13.2418 11.5296 13.2099 11.54 13.1824 11.5582C12.9256 11.7389 12.6427 11.8845 12.3425 11.9937C12.2888 12.0119 12.254 12.0535 12.2511 12.1016L12.2264 12.4006C12.2003 12.736 11.884 12.9999 11.5083 12.9999H10.5683C10.4464 12.9999 10.3304 12.9713 10.2289 12.9219C10.136 12.8777 10.0548 12.8153 9.9924 12.7399C9.91117 12.6437 9.86039 12.528 9.85024 12.4006L9.82558 12.1016C9.82268 12.0535 9.78786 12.0119 9.73419 11.9937H9.73274C9.43245 11.8845 9.15248 11.7389 8.89571 11.5582C8.86815 11.5387 8.83479 11.5296 8.80287 11.5296C8.78256 11.5296 8.7637 11.5335 8.74485 11.5413L8.44311 11.6726C8.34302 11.7168 8.23566 11.7376 8.13122 11.7376C7.88025 11.7376 7.63654 11.6206 7.50453 11.4152L7.03453 10.6846C6.84595 10.3934 6.94314 10.0165 7.25503 9.82666L7.53211 9.65897C7.57563 9.63297 7.59884 9.58617 7.59158 9.53807C7.56837 9.39377 7.55677 9.24687 7.55677 9.09998C7.55677 8.95308 7.56837 8.80618 7.59158 8.66188C7.59884 8.61378 7.57563 8.56699 7.53211 8.54099L7.25503 8.37329C6.95185 8.18869 6.85174 7.8273 7.02003 7.54C7.02438 7.5322 7.02873 7.5231 7.03454 7.5153L7.18685 7.28L7.35368 7.02L7.50455 6.78601C7.63656 6.57931 7.88026 6.46232 8.13123 6.46232C8.23568 6.46232 8.34302 6.48312 8.44312 6.52732L8.74486 6.65861C8.76372 6.66641 8.78403 6.67031 8.80289 6.67031C8.8348 6.67031 8.86816 6.65991 8.89573 6.64171C9.15249 6.46102 9.43391 6.31542 9.7342 6.20622C9.78787 6.18802 9.82269 6.14642 9.82559 6.09832L9.85025 5.79932C9.87636 5.46392 10.1926 5.20002 10.5683 5.20002H11.5084C11.8841 5.20002 12.2003 5.46391 12.2264 5.79932L12.2511 6.09832C12.254 6.14642 12.2888 6.18802 12.3425 6.20622C12.6428 6.31541 12.9256 6.46101 13.1824 6.64171C13.21 6.65991 13.2419 6.67031 13.2752 6.67031C13.2941 6.67031 13.3144 6.66641 13.3333 6.65861L13.6336 6.52732C13.7337 6.48312 13.841 6.46232 13.9469 6.46232C14.1964 6.46232 14.4401 6.57932 14.5736 6.78601L15.0421 7.5153C15.2307 7.8065 15.1335 8.18349 14.8216 8.37328L14.5446 8.54098C14.501 8.56698 14.4778 8.61378 14.4851 8.66188C14.5083 8.80618 14.5199 8.95307 14.5199 9.09997C14.5199 9.24687 14.5083 9.39376 14.4851 9.53806C14.4778 9.58616 14.501 9.63296 14.5446 9.65896L14.8216 9.82666C15.1335 10.0164 15.2307 10.3935 15.0421 10.6847ZM12.444 9.09998C12.444 8.40578 11.813 7.84029 11.0383 7.84029C10.7729 7.84029 10.5248 7.90659 10.313 8.0223C10.2057 8.0795 10.1085 8.1497 10.0229 8.2303C9.89959 8.346 9.80095 8.48249 9.73276 8.6333C9.66893 8.7776 9.63267 8.93489 9.63267 9.1C9.63267 9.2651 9.66893 9.42239 9.73276 9.56669C9.80094 9.71749 9.89959 9.854 10.0229 9.96969C10.1085 10.0503 10.2057 10.1205 10.313 10.1777C10.5248 10.2934 10.7729 10.3597 11.0383 10.3597C11.813 10.3597 12.444 9.79418 12.444 9.09998ZM6.68634 5.7201C8.44599 5.7201 9.87787 4.43702 9.87787 2.86005C9.87787 1.28308 8.44609 0 6.68634 0C4.92669 0 3.49481 1.28308 3.49481 2.86005C3.49481 4.43702 4.9266 5.7201 6.68634 5.7201Z" fill="#1B2F62"/>
</svg>
