<svg width="18" height="18" viewBox="0 0 18 18" fill="none" xmlns="http://www.w3.org/2000/svg">
<path d="M8.49707 0.695312C8.77706 0.435012 9.22266 0.433816 9.50586 0.695312V0.696289L10.1367 1.28223C10.3446 1.47537 10.6387 1.53304 10.9023 1.43848L10.9072 1.43652L11.7148 1.13574H11.7158C12.0766 1.00131 12.4891 1.17231 12.6475 1.52051L12.6484 1.52148L13.0059 2.30371L13.0088 2.30859C13.1253 2.55577 13.3708 2.72803 13.6582 2.73828V2.73926L14.5186 2.77148H14.5195C14.9006 2.78466 15.2163 3.09826 15.2314 3.48535L15.2637 4.34375C15.2725 4.63102 15.4431 4.87904 15.6992 4.99609V4.99707L16.4805 5.35352V5.35449C16.8321 5.51618 17.0016 5.92751 16.8672 6.28809L16.5664 7.09473C16.4641 7.3641 16.5262 7.6601 16.7178 7.86621L17.3037 8.49707H17.3047C17.5652 8.77734 17.565 9.22273 17.3027 9.50586L16.7168 10.1357C16.5234 10.3436 16.466 10.6376 16.5605 10.9014L16.5625 10.9072L16.8633 11.7148C16.998 12.0757 16.8269 12.489 16.4785 12.6475L16.4775 12.6484L15.6953 13.0059L15.6904 13.0088C15.4432 13.1253 15.2699 13.3707 15.2598 13.6582L15.2275 14.5186V14.5195C15.216 14.8527 14.9747 15.1359 14.6553 15.2119L14.5137 15.2314L13.6543 15.2637C13.4036 15.2717 13.1826 15.4028 13.0527 15.6064L13.002 15.6992L12.6445 16.4805C12.4828 16.832 12.0715 17.0016 11.7109 16.8672L10.9033 16.5664H10.9023C10.6674 16.4778 10.4127 16.5133 10.2148 16.6514L10.1328 16.7178L9.50195 17.3037L9.50098 17.3047C9.36324 17.4334 9.18174 17.5 8.99805 17.5C8.81346 17.5 8.63281 17.4338 8.49609 17.3057L8.49414 17.3037L7.86328 16.7178C7.65542 16.5245 7.36134 16.466 7.09766 16.5605L7.09277 16.5635L6.28516 16.8643H6.28418C5.92349 16.9986 5.511 16.8275 5.35254 16.4795L5.35156 16.4775L4.99414 15.6963L4.99121 15.6904C4.87451 15.4432 4.62843 15.2706 4.34082 15.2607H4.3418L3.48145 15.2285H3.48047C3.1469 15.217 2.86278 14.9751 2.78711 14.6553L2.76855 14.5146L2.73535 13.6553C2.72622 13.368 2.55615 13.1197 2.2998 13.0029H2.30078L1.51855 12.6455H1.51953C1.16783 12.4838 0.99838 12.0725 1.13281 11.7119L1.43359 10.9043L1.43262 10.9033C1.53434 10.6341 1.47377 10.3386 1.28223 10.1328H1.28125L0.696289 9.50293H0.695312C0.4348 9.2228 0.433358 8.77636 0.695312 8.49316L0.696289 8.49414L1.28223 7.86328C1.47541 7.65542 1.53306 7.36133 1.43848 7.09766L1.43652 7.0918L1.13574 6.28516V6.28418C1.00126 5.92342 1.1723 5.51097 1.52051 5.35254L1.52148 5.35156L2.30371 4.99414L2.30859 4.99121C2.55576 4.87474 2.729 4.62915 2.73926 4.3418L2.77148 3.48145V3.48047C2.78465 3.09948 3.09826 2.78373 3.48535 2.76855L3.48438 2.76758L4.34375 2.73535C4.6313 2.72651 4.87918 2.55633 4.99609 2.2998L4.99707 2.30078L5.35449 1.51953C5.51616 1.16786 5.92984 0.998981 6.28711 1.13281H6.28809L7.0957 1.43359V1.43262C7.36492 1.53466 7.66021 1.47364 7.86621 1.28223L8.49707 0.696289V0.695312ZM13.4092 5.69727C13.02 5.30748 12.3884 5.30889 12 5.69727L7.20117 10.4951L5.99121 9.29297C5.62387 8.92409 5.04645 8.90981 4.6582 9.22656L4.58301 9.29492C4.19047 9.68747 4.19496 10.3161 4.58301 10.7041L4.58398 10.7051L5.99121 12.1016V12.1025C6.32617 12.4375 6.76345 12.6016 7.2002 12.6016C7.63837 12.6015 8.07731 12.4333 8.41016 12.1006L13.1514 7.35938L13.1543 7.36133L13.4092 7.1084C13.8002 6.71935 13.798 6.0861 13.4092 5.69727Z" stroke="black"/>
</svg>
