<svg width="7" height="6" viewBox="0 0 7 6" fill="none" xmlns="http://www.w3.org/2000/svg">
<path d="M6.48528 1.09774H5.24072V0.476264C5.24072 0.213646 5.00968 0 4.72585 0H2.27422C1.99032 0 1.75943 0.213717 1.75943 0.476264V1.09774H0.514793C0.230888 1.09774 0 1.31139 0 1.57393V5.52374C0 5.78635 0.230964 6 0.514793 6H6.48521C6.76911 6 7 5.78628 7 5.52374V1.57401C7.00008 1.31139 6.76911 1.09774 6.48528 1.09774ZM2.06537 0.476264C2.06537 0.369688 2.15908 0.283069 2.27415 0.283069H4.72578C4.84099 0.283069 4.93463 0.369759 4.93463 0.476264V1.09774H2.06537V0.476264ZM6.69406 5.52381C6.69406 5.63038 6.60035 5.717 6.48528 5.717H0.514793C0.399655 5.717 0.306014 5.63031 0.306014 5.52381V3.10767L3.48359 3.81004C3.49522 3.81259 3.50723 3.81393 3.51916 3.81393C3.53125 3.81393 3.54326 3.81259 3.55512 3.80997L6.28117 3.20052C6.36334 3.18212 6.41375 3.10562 6.39402 3.02969C6.37412 2.95368 6.2915 2.90705 6.20934 2.92531L3.51901 3.52683L0.306014 2.81661V1.57393C0.306014 1.46743 0.399731 1.38081 0.514793 1.38081H6.48521C6.60035 1.38081 6.69399 1.4675 6.69399 1.57393L6.69406 5.52381Z" fill="#1B2F62"/>
</svg>
