<svg width="26" height="26" viewBox="0 0 26 26" fill="none" xmlns="http://www.w3.org/2000/svg">
<path d="M1.08301 1.0835H5.41634L8.31967 15.5893C8.41874 16.0881 8.69007 16.5361 9.08618 16.855C9.48229 17.1739 9.97793 17.3432 10.4863 17.3335H21.0163C21.5248 17.3432 22.0204 17.1739 22.4165 16.855C22.8126 16.5361 23.0839 16.0881 23.183 15.5893L24.9163 6.50016H6.49967M10.833 22.7502C10.833 23.3485 10.348 23.8335 9.74967 23.8335C9.15137 23.8335 8.66634 23.3485 8.66634 22.7502C8.66634 22.1519 9.15137 21.6668 9.74967 21.6668C10.348 21.6668 10.833 22.1519 10.833 22.7502ZM22.7497 22.7502C22.7497 23.3485 22.2646 23.8335 21.6663 23.8335C21.068 23.8335 20.583 23.3485 20.583 22.7502C20.583 22.1519 21.068 21.6668 21.6663 21.6668C22.2646 21.6668 22.7497 22.1519 22.7497 22.7502Z" stroke="#1E1E1E" stroke-width="2" stroke-linecap="round" stroke-linejoin="round"/>
</svg>
