<svg width="10" height="12" viewBox="0 0 10 12" fill="none" xmlns="http://www.w3.org/2000/svg">
<path d="M6.27441 3.83948L6.39941 4.02014L6.4541 4.10022L6.37598 4.15784L4.4873 5.54944L4.41113 5.6051L4.35059 5.53186L3.6377 4.67249L3.5752 4.59729L3.64941 4.53284L3.81934 4.38635L3.89551 4.31995L3.96094 4.39709L4.48828 5.026L6.13281 3.81604L6.21582 3.75452L6.27441 3.83948Z" fill="black" stroke="black" stroke-width="0.2"/>
<mask id="path-2-outside-1_2_702" maskUnits="userSpaceOnUse" x="0" y="0" width="10" height="12" fill="black">
<rect fill="white" width="10" height="12"/>
<path d="M2.23303 9.94796L2.87783 11L4.50679 7.79864C4.65385 7.95701 4.81222 8.1267 5.01584 8.1267C5.21946 8.1267 5.37783 7.95701 5.52489 7.79864L7.15385 11L7.79864 9.94796L9.03168 10.0498L7.32353 6.69005L7.56109 6.62217C7.77602 6.57692 7.99095 6.52036 8.09276 6.35068C8.19457 6.181 8.1267 5.96606 8.05882 5.76244C8.0066 5.64126 7.98336 5.50957 7.99095 5.37783C8.04633 5.26274 8.12764 5.16206 8.22851 5.08371C8.38688 4.93665 8.55656 4.77828 8.55656 4.57466C8.55656 4.37104 8.38688 4.21267 8.22851 4.06561C8.12764 3.98726 8.04633 3.88658 7.99095 3.77149C7.98336 3.63975 8.0066 3.50806 8.05882 3.38688C8.1267 3.18326 8.19457 2.96833 8.09276 2.79864C7.99095 2.62896 7.77602 2.5724 7.56109 2.52715C7.43051 2.50737 7.30647 2.45698 7.1991 2.38009C7.12622 2.27167 7.07973 2.1477 7.06335 2.0181C7.0181 1.80317 6.96154 1.58824 6.79186 1.48643C6.62217 1.38462 6.40724 1.45249 6.20362 1.52036C6.08256 1.573 5.95077 1.59625 5.81901 1.58824C5.70391 1.53286 5.60324 1.45154 5.52489 1.35068C5.37783 1.16968 5.21946 1 5.01584 1C4.81222 1 4.65385 1.16968 4.50679 1.32805C4.42844 1.42892 4.32776 1.51024 4.21267 1.56561C4.08093 1.5732 3.94924 1.54996 3.82805 1.49774C3.62443 1.42986 3.4095 1.36199 3.23982 1.4638C3.07014 1.56561 3.01357 1.78054 2.96833 1.99548C2.95548 2.13291 2.90885 2.26504 2.83258 2.38009C2.72416 2.45296 2.60019 2.49945 2.47059 2.51584C2.25566 2.56109 2.04072 2.61765 1.93891 2.78733C1.8371 2.95701 1.90498 3.17195 1.97285 3.37557C2.02508 3.49675 2.04832 3.62844 2.04072 3.76018C1.98535 3.87527 1.90403 3.97595 1.80317 4.0543C1.6448 4.20136 1.47511 4.35973 1.47511 4.56335C1.47511 4.76697 1.6448 4.92534 1.80317 5.0724C1.90403 5.15075 1.98535 5.25143 2.04072 5.36652C2.04832 5.49826 2.02508 5.62995 1.97285 5.75113C1.90498 5.95475 1.8371 6.16968 1.93891 6.33937C2.04072 6.50905 2.25566 6.56561 2.47059 6.61086L2.70815 6.67873L1 10.0498L2.23303 9.94796ZM2.86652 10.5362L2.35747 9.71041L1.39593 9.78959L2.87783 6.8371C2.91312 6.92865 2.93963 7.02335 2.95701 7.11991C3.00226 7.33484 3.05882 7.54977 3.22851 7.65158C3.39819 7.75339 3.61312 7.68552 3.81674 7.61765C3.93792 7.56542 4.06962 7.54218 4.20136 7.54977C4.24715 7.56339 4.28955 7.58652 4.32579 7.61765L2.86652 10.5362ZM7.68552 9.71041L7.16516 10.5362L5.69457 7.62896C5.73081 7.59783 5.77321 7.5747 5.81901 7.56109C5.95074 7.55349 6.08244 7.57673 6.20362 7.62896C6.40724 7.69683 6.62217 7.75339 6.79186 7.6629C6.96154 7.5724 7.0181 7.34615 7.06335 7.13122C7.08073 7.03466 7.10725 6.93997 7.14254 6.84842L8.64706 9.78959L7.68552 9.71041ZM2.13122 6.23756C2.08597 6.14706 2.13122 5.98869 2.18778 5.83032C2.24434 5.67195 2.30091 5.47964 2.25566 5.32127C2.21041 5.1629 2.07466 5.03846 1.95023 4.92534C1.82579 4.81222 1.69005 4.68778 1.69005 4.58597C1.69005 4.48416 1.82579 4.35973 1.95023 4.24661C2.07466 4.13348 2.22172 3.99774 2.25566 3.85068C2.28959 3.70362 2.24434 3.51131 2.18778 3.34163C2.13122 3.17195 2.08597 3.01357 2.13122 2.93439C2.17647 2.8552 2.35747 2.80995 2.51584 2.76471C2.67421 2.71946 2.87783 2.68552 2.99095 2.5724C3.10407 2.45928 3.14932 2.27828 3.18326 2.09729C3.21719 1.91629 3.26244 1.75792 3.35294 1.71267C3.44344 1.66742 3.60181 1.71267 3.76018 1.76923C3.91855 1.82579 4.11086 1.88235 4.26923 1.8371C4.4276 1.79186 4.55204 1.65611 4.66516 1.53167C4.77828 1.40724 4.90272 1.27149 5.00453 1.27149C5.10634 1.27149 5.23077 1.40724 5.34389 1.53167C5.45701 1.65611 5.59276 1.80317 5.73982 1.8371C5.88688 1.87104 6.07919 1.82579 6.24887 1.76923C6.41855 1.71267 6.57692 1.66742 6.65611 1.71267C6.73529 1.75792 6.78054 1.93891 6.82579 2.09729C6.87104 2.25566 6.90498 2.45928 7.0181 2.5724C7.13122 2.68552 7.31222 2.73077 7.49321 2.76471C7.67421 2.79864 7.83258 2.84389 7.87783 2.93439C7.92308 3.02489 7.87783 3.18326 7.82127 3.34163C7.76471 3.5 7.70815 3.69231 7.75339 3.85068C7.79864 4.00905 7.93439 4.13348 8.05882 4.24661C8.18326 4.35973 8.31901 4.48416 8.31901 4.58597C8.31901 4.68778 8.18326 4.81222 8.05882 4.92534C7.93439 5.03846 7.78733 5.17421 7.75339 5.32127C7.71946 5.46833 7.76471 5.66063 7.82127 5.83032C7.87783 6 7.92308 6.15837 7.87783 6.23756C7.83258 6.31674 7.65158 6.36199 7.49321 6.40724C7.33484 6.45249 7.13122 6.48643 7.0181 6.59955C6.90498 6.71267 6.85973 6.89367 6.82579 7.07466C6.79186 7.25566 6.74661 7.41403 6.65611 7.45928C6.56561 7.50453 6.40724 7.45928 6.24887 7.40272C6.0905 7.34615 5.89819 7.28959 5.73982 7.33484C5.58145 7.38009 5.45701 7.51584 5.34389 7.64027C5.23077 7.76471 5.10634 7.90045 5.00453 7.90045C4.90272 7.90045 4.77828 7.76471 4.66516 7.64027C4.55204 7.51584 4.41629 7.36878 4.26923 7.33484H4.15611C4.02099 7.34185 3.88761 7.36852 3.76018 7.41403C3.60181 7.45928 3.43213 7.51584 3.35294 7.47059C3.27376 7.42534 3.22851 7.24434 3.18326 7.08597C3.13801 6.9276 3.10407 6.72398 2.99095 6.61086C2.87783 6.49774 2.69683 6.45249 2.51584 6.41855C2.33484 6.38462 2.17647 6.32805 2.13122 6.23756Z"/>
</mask>
<path d="M2.23303 9.94796L2.87783 11L4.50679 7.79864C4.65385 7.95701 4.81222 8.1267 5.01584 8.1267C5.21946 8.1267 5.37783 7.95701 5.52489 7.79864L7.15385 11L7.79864 9.94796L9.03168 10.0498L7.32353 6.69005L7.56109 6.62217C7.77602 6.57692 7.99095 6.52036 8.09276 6.35068C8.19457 6.181 8.1267 5.96606 8.05882 5.76244C8.0066 5.64126 7.98336 5.50957 7.99095 5.37783C8.04633 5.26274 8.12764 5.16206 8.22851 5.08371C8.38688 4.93665 8.55656 4.77828 8.55656 4.57466C8.55656 4.37104 8.38688 4.21267 8.22851 4.06561C8.12764 3.98726 8.04633 3.88658 7.99095 3.77149C7.98336 3.63975 8.0066 3.50806 8.05882 3.38688C8.1267 3.18326 8.19457 2.96833 8.09276 2.79864C7.99095 2.62896 7.77602 2.5724 7.56109 2.52715C7.43051 2.50737 7.30647 2.45698 7.1991 2.38009C7.12622 2.27167 7.07973 2.1477 7.06335 2.0181C7.0181 1.80317 6.96154 1.58824 6.79186 1.48643C6.62217 1.38462 6.40724 1.45249 6.20362 1.52036C6.08256 1.573 5.95077 1.59625 5.81901 1.58824C5.70391 1.53286 5.60324 1.45154 5.52489 1.35068C5.37783 1.16968 5.21946 1 5.01584 1C4.81222 1 4.65385 1.16968 4.50679 1.32805C4.42844 1.42892 4.32776 1.51024 4.21267 1.56561C4.08093 1.5732 3.94924 1.54996 3.82805 1.49774C3.62443 1.42986 3.4095 1.36199 3.23982 1.4638C3.07014 1.56561 3.01357 1.78054 2.96833 1.99548C2.95548 2.13291 2.90885 2.26504 2.83258 2.38009C2.72416 2.45296 2.60019 2.49945 2.47059 2.51584C2.25566 2.56109 2.04072 2.61765 1.93891 2.78733C1.8371 2.95701 1.90498 3.17195 1.97285 3.37557C2.02508 3.49675 2.04832 3.62844 2.04072 3.76018C1.98535 3.87527 1.90403 3.97595 1.80317 4.0543C1.6448 4.20136 1.47511 4.35973 1.47511 4.56335C1.47511 4.76697 1.6448 4.92534 1.80317 5.0724C1.90403 5.15075 1.98535 5.25143 2.04072 5.36652C2.04832 5.49826 2.02508 5.62995 1.97285 5.75113C1.90498 5.95475 1.8371 6.16968 1.93891 6.33937C2.04072 6.50905 2.25566 6.56561 2.47059 6.61086L2.70815 6.67873L1 10.0498L2.23303 9.94796ZM2.86652 10.5362L2.35747 9.71041L1.39593 9.78959L2.87783 6.8371C2.91312 6.92865 2.93963 7.02335 2.95701 7.11991C3.00226 7.33484 3.05882 7.54977 3.22851 7.65158C3.39819 7.75339 3.61312 7.68552 3.81674 7.61765C3.93792 7.56542 4.06962 7.54218 4.20136 7.54977C4.24715 7.56339 4.28955 7.58652 4.32579 7.61765L2.86652 10.5362ZM7.68552 9.71041L7.16516 10.5362L5.69457 7.62896C5.73081 7.59783 5.77321 7.5747 5.81901 7.56109C5.95074 7.55349 6.08244 7.57673 6.20362 7.62896C6.40724 7.69683 6.62217 7.75339 6.79186 7.6629C6.96154 7.5724 7.0181 7.34615 7.06335 7.13122C7.08073 7.03466 7.10725 6.93997 7.14254 6.84842L8.64706 9.78959L7.68552 9.71041ZM2.13122 6.23756C2.08597 6.14706 2.13122 5.98869 2.18778 5.83032C2.24434 5.67195 2.30091 5.47964 2.25566 5.32127C2.21041 5.1629 2.07466 5.03846 1.95023 4.92534C1.82579 4.81222 1.69005 4.68778 1.69005 4.58597C1.69005 4.48416 1.82579 4.35973 1.95023 4.24661C2.07466 4.13348 2.22172 3.99774 2.25566 3.85068C2.28959 3.70362 2.24434 3.51131 2.18778 3.34163C2.13122 3.17195 2.08597 3.01357 2.13122 2.93439C2.17647 2.8552 2.35747 2.80995 2.51584 2.76471C2.67421 2.71946 2.87783 2.68552 2.99095 2.5724C3.10407 2.45928 3.14932 2.27828 3.18326 2.09729C3.21719 1.91629 3.26244 1.75792 3.35294 1.71267C3.44344 1.66742 3.60181 1.71267 3.76018 1.76923C3.91855 1.82579 4.11086 1.88235 4.26923 1.8371C4.4276 1.79186 4.55204 1.65611 4.66516 1.53167C4.77828 1.40724 4.90272 1.27149 5.00453 1.27149C5.10634 1.27149 5.23077 1.40724 5.34389 1.53167C5.45701 1.65611 5.59276 1.80317 5.73982 1.8371C5.88688 1.87104 6.07919 1.82579 6.24887 1.76923C6.41855 1.71267 6.57692 1.66742 6.65611 1.71267C6.73529 1.75792 6.78054 1.93891 6.82579 2.09729C6.87104 2.25566 6.90498 2.45928 7.0181 2.5724C7.13122 2.68552 7.31222 2.73077 7.49321 2.76471C7.67421 2.79864 7.83258 2.84389 7.87783 2.93439C7.92308 3.02489 7.87783 3.18326 7.82127 3.34163C7.76471 3.5 7.70815 3.69231 7.75339 3.85068C7.79864 4.00905 7.93439 4.13348 8.05882 4.24661C8.18326 4.35973 8.31901 4.48416 8.31901 4.58597C8.31901 4.68778 8.18326 4.81222 8.05882 4.92534C7.93439 5.03846 7.78733 5.17421 7.75339 5.32127C7.71946 5.46833 7.76471 5.66063 7.82127 5.83032C7.87783 6 7.92308 6.15837 7.87783 6.23756C7.83258 6.31674 7.65158 6.36199 7.49321 6.40724C7.33484 6.45249 7.13122 6.48643 7.0181 6.59955C6.90498 6.71267 6.85973 6.89367 6.82579 7.07466C6.79186 7.25566 6.74661 7.41403 6.65611 7.45928C6.56561 7.50453 6.40724 7.45928 6.24887 7.40272C6.0905 7.34615 5.89819 7.28959 5.73982 7.33484C5.58145 7.38009 5.45701 7.51584 5.34389 7.64027C5.23077 7.76471 5.10634 7.90045 5.00453 7.90045C4.90272 7.90045 4.77828 7.76471 4.66516 7.64027C4.55204 7.51584 4.41629 7.36878 4.26923 7.33484H4.15611C4.02099 7.34185 3.88761 7.36852 3.76018 7.41403C3.60181 7.45928 3.43213 7.51584 3.35294 7.47059C3.27376 7.42534 3.22851 7.24434 3.18326 7.08597C3.13801 6.9276 3.10407 6.72398 2.99095 6.61086C2.87783 6.49774 2.69683 6.45249 2.51584 6.41855C2.33484 6.38462 2.17647 6.32805 2.13122 6.23756Z" fill="black"/>
<path d="M2.23303 9.94796L2.87783 11L4.50679 7.79864C4.65385 7.95701 4.81222 8.1267 5.01584 8.1267C5.21946 8.1267 5.37783 7.95701 5.52489 7.79864L7.15385 11L7.79864 9.94796L9.03168 10.0498L7.32353 6.69005L7.56109 6.62217C7.77602 6.57692 7.99095 6.52036 8.09276 6.35068C8.19457 6.181 8.1267 5.96606 8.05882 5.76244C8.0066 5.64126 7.98336 5.50957 7.99095 5.37783C8.04633 5.26274 8.12764 5.16206 8.22851 5.08371C8.38688 4.93665 8.55656 4.77828 8.55656 4.57466C8.55656 4.37104 8.38688 4.21267 8.22851 4.06561C8.12764 3.98726 8.04633 3.88658 7.99095 3.77149C7.98336 3.63975 8.0066 3.50806 8.05882 3.38688C8.1267 3.18326 8.19457 2.96833 8.09276 2.79864C7.99095 2.62896 7.77602 2.5724 7.56109 2.52715C7.43051 2.50737 7.30647 2.45698 7.1991 2.38009C7.12622 2.27167 7.07973 2.1477 7.06335 2.0181C7.0181 1.80317 6.96154 1.58824 6.79186 1.48643C6.62217 1.38462 6.40724 1.45249 6.20362 1.52036C6.08256 1.573 5.95077 1.59625 5.81901 1.58824C5.70391 1.53286 5.60324 1.45154 5.52489 1.35068C5.37783 1.16968 5.21946 1 5.01584 1C4.81222 1 4.65385 1.16968 4.50679 1.32805C4.42844 1.42892 4.32776 1.51024 4.21267 1.56561C4.08093 1.5732 3.94924 1.54996 3.82805 1.49774C3.62443 1.42986 3.4095 1.36199 3.23982 1.4638C3.07014 1.56561 3.01357 1.78054 2.96833 1.99548C2.95548 2.13291 2.90885 2.26504 2.83258 2.38009C2.72416 2.45296 2.60019 2.49945 2.47059 2.51584C2.25566 2.56109 2.04072 2.61765 1.93891 2.78733C1.8371 2.95701 1.90498 3.17195 1.97285 3.37557C2.02508 3.49675 2.04832 3.62844 2.04072 3.76018C1.98535 3.87527 1.90403 3.97595 1.80317 4.0543C1.6448 4.20136 1.47511 4.35973 1.47511 4.56335C1.47511 4.76697 1.6448 4.92534 1.80317 5.0724C1.90403 5.15075 1.98535 5.25143 2.04072 5.36652C2.04832 5.49826 2.02508 5.62995 1.97285 5.75113C1.90498 5.95475 1.8371 6.16968 1.93891 6.33937C2.04072 6.50905 2.25566 6.56561 2.47059 6.61086L2.70815 6.67873L1 10.0498L2.23303 9.94796ZM2.86652 10.5362L2.35747 9.71041L1.39593 9.78959L2.87783 6.8371C2.91312 6.92865 2.93963 7.02335 2.95701 7.11991C3.00226 7.33484 3.05882 7.54977 3.22851 7.65158C3.39819 7.75339 3.61312 7.68552 3.81674 7.61765C3.93792 7.56542 4.06962 7.54218 4.20136 7.54977C4.24715 7.56339 4.28955 7.58652 4.32579 7.61765L2.86652 10.5362ZM7.68552 9.71041L7.16516 10.5362L5.69457 7.62896C5.73081 7.59783 5.77321 7.5747 5.81901 7.56109C5.95074 7.55349 6.08244 7.57673 6.20362 7.62896C6.40724 7.69683 6.62217 7.75339 6.79186 7.6629C6.96154 7.5724 7.0181 7.34615 7.06335 7.13122C7.08073 7.03466 7.10725 6.93997 7.14254 6.84842L8.64706 9.78959L7.68552 9.71041ZM2.13122 6.23756C2.08597 6.14706 2.13122 5.98869 2.18778 5.83032C2.24434 5.67195 2.30091 5.47964 2.25566 5.32127C2.21041 5.1629 2.07466 5.03846 1.95023 4.92534C1.82579 4.81222 1.69005 4.68778 1.69005 4.58597C1.69005 4.48416 1.82579 4.35973 1.95023 4.24661C2.07466 4.13348 2.22172 3.99774 2.25566 3.85068C2.28959 3.70362 2.24434 3.51131 2.18778 3.34163C2.13122 3.17195 2.08597 3.01357 2.13122 2.93439C2.17647 2.8552 2.35747 2.80995 2.51584 2.76471C2.67421 2.71946 2.87783 2.68552 2.99095 2.5724C3.10407 2.45928 3.14932 2.27828 3.18326 2.09729C3.21719 1.91629 3.26244 1.75792 3.35294 1.71267C3.44344 1.66742 3.60181 1.71267 3.76018 1.76923C3.91855 1.82579 4.11086 1.88235 4.26923 1.8371C4.4276 1.79186 4.55204 1.65611 4.66516 1.53167C4.77828 1.40724 4.90272 1.27149 5.00453 1.27149C5.10634 1.27149 5.23077 1.40724 5.34389 1.53167C5.45701 1.65611 5.59276 1.80317 5.73982 1.8371C5.88688 1.87104 6.07919 1.82579 6.24887 1.76923C6.41855 1.71267 6.57692 1.66742 6.65611 1.71267C6.73529 1.75792 6.78054 1.93891 6.82579 2.09729C6.87104 2.25566 6.90498 2.45928 7.0181 2.5724C7.13122 2.68552 7.31222 2.73077 7.49321 2.76471C7.67421 2.79864 7.83258 2.84389 7.87783 2.93439C7.92308 3.02489 7.87783 3.18326 7.82127 3.34163C7.76471 3.5 7.70815 3.69231 7.75339 3.85068C7.79864 4.00905 7.93439 4.13348 8.05882 4.24661C8.18326 4.35973 8.31901 4.48416 8.31901 4.58597C8.31901 4.68778 8.18326 4.81222 8.05882 4.92534C7.93439 5.03846 7.78733 5.17421 7.75339 5.32127C7.71946 5.46833 7.76471 5.66063 7.82127 5.83032C7.87783 6 7.92308 6.15837 7.87783 6.23756C7.83258 6.31674 7.65158 6.36199 7.49321 6.40724C7.33484 6.45249 7.13122 6.48643 7.0181 6.59955C6.90498 6.71267 6.85973 6.89367 6.82579 7.07466C6.79186 7.25566 6.74661 7.41403 6.65611 7.45928C6.56561 7.50453 6.40724 7.45928 6.24887 7.40272C6.0905 7.34615 5.89819 7.28959 5.73982 7.33484C5.58145 7.38009 5.45701 7.51584 5.34389 7.64027C5.23077 7.76471 5.10634 7.90045 5.00453 7.90045C4.90272 7.90045 4.77828 7.76471 4.66516 7.64027C4.55204 7.51584 4.41629 7.36878 4.26923 7.33484H4.15611C4.02099 7.34185 3.88761 7.36852 3.76018 7.41403C3.60181 7.45928 3.43213 7.51584 3.35294 7.47059C3.27376 7.42534 3.22851 7.24434 3.18326 7.08597C3.13801 6.9276 3.10407 6.72398 2.99095 6.61086C2.87783 6.49774 2.69683 6.45249 2.51584 6.41855C2.33484 6.38462 2.17647 6.32805 2.13122 6.23756Z" stroke="black" stroke-width="0.4" mask="url(#path-2-outside-1_2_702)"/>
</svg>
