<svg width="12" height="12" viewBox="0 0 12 12" fill="none" xmlns="http://www.w3.org/2000/svg">
<path fill-rule="evenodd" clip-rule="evenodd" d="M4.16192 0.0950015C4.25529 0.188364 4.28273 0.329004 4.23133 0.450617C3.37156 2.48441 3.76874 4.91856 5.42508 6.5749C7.08142 8.23127 9.51557 8.62845 11.5494 7.76865C11.671 7.71725 11.8116 7.74469 11.905 7.83806C11.9984 7.93142 12.0258 8.07206 11.9744 8.19366C11.6705 8.91248 11.2279 9.58751 10.6418 10.1736C8.20668 12.6088 4.26154 12.6088 1.82637 10.1736C-0.608793 7.73846 -0.608785 3.7933 1.82637 1.35816C2.41247 0.772063 3.08753 0.329466 3.80632 0.0256062C3.92792 -0.0258055 4.06856 0.00163935 4.16192 0.0950015ZM3.36443 0.975129C2.97955 1.20523 2.61645 1.48541 2.28504 1.81682C0.103192 3.99865 0.103185 7.5331 2.28504 9.71494C4.4669 11.8968 8.00132 11.8968 10.1832 9.71494C10.5146 9.38353 10.7948 9.02043 11.0249 8.63556C8.93589 9.20844 6.60896 8.67613 4.96642 7.03356C3.32388 5.39104 2.79156 3.06411 3.36443 0.975129Z" fill="#D83F3F"/>
</svg>
