<svg width="9" height="9" viewBox="0 0 9 9" fill="none" xmlns="http://www.w3.org/2000/svg">
<path d="M4.0592 0C1.92812 0 0 1.47275 0 3.75048C0 5.20493 1.24313 6.91551 3.72432 8.8868C3.91713 9.03773 4.20635 9.03773 4.39916 8.8868C6.87528 6.91551 8.11841 5.20493 8.11841 3.75048C8.11841 1.47275 6.19029 0 4.0592 0ZM4.0592 4.57375C3.50106 4.57375 3.0444 4.16211 3.0444 3.659C3.0444 3.15589 3.50106 2.74425 4.0592 2.74425C4.61735 2.74425 5.07401 3.15589 5.07401 3.659C5.07401 4.16211 4.61735 4.57375 4.0592 4.57375Z" fill="#999999"/>
</svg>
