<svg width="18" height="18" viewBox="0 0 18 18" fill="none" xmlns="http://www.w3.org/2000/svg">
<path d="M9.00017 6.89453C8.4725 6.89453 8.04272 7.3243 8.04272 7.85198C8.04272 8.37965 8.4725 8.80942 9.00017 8.80942C9.52785 8.80942 9.95762 8.37965 9.95762 7.85198C9.95762 7.3243 9.52785 6.89453 9.00017 6.89453Z" fill="#9B9B9B"/>
<path d="M6.50183 11.8102C6.5035 11.7918 6.50433 11.7735 6.50682 11.7551C6.51181 11.7117 6.51847 11.6683 6.52595 11.6256C6.52761 11.6153 6.52928 11.6043 6.53094 11.594C6.54175 11.5411 6.55506 11.4881 6.57003 11.4366C6.57419 11.4226 6.57918 11.4087 6.58417 11.3947C6.59664 11.3565 6.60912 11.319 6.62409 11.2814C6.63074 11.2638 6.63822 11.2461 6.64571 11.2285C6.65985 11.1947 6.67565 11.1608 6.69228 11.1277C6.7006 11.1108 6.70891 11.0932 6.71806 11.0763C6.73719 11.0395 6.75881 11.0034 6.78044 10.9681C6.78792 10.9564 6.79457 10.9439 6.80206 10.9321C6.83034 10.888 6.86111 10.8439 6.89354 10.8019C6.55006 10.5041 6.09764 10.3408 5.61694 10.3408C4.75119 10.3408 3.99686 10.8939 3.82971 11.6374C3.84052 11.6565 3.85217 11.6756 3.86381 11.6948C3.89126 11.7411 3.91953 11.7867 3.94781 11.8316C3.95696 11.8455 3.9661 11.8588 3.97525 11.8727H6.4969C6.49773 11.8521 6.50023 11.8316 6.50189 11.811L6.50183 11.8102Z" fill="#929292"/>
<path d="M5.55321 6.89453C5.02554 6.89453 4.59576 7.3243 4.59576 7.85198C4.59576 8.37965 5.02554 8.80942 5.55321 8.80942C6.08089 8.80942 6.51066 8.37965 6.51066 7.85198C6.51066 7.3243 6.08089 6.89453 5.55321 6.89453Z" fill="#9B9B9B"/>
<path d="M12.3818 10.3416C11.9005 10.3416 11.4457 10.5078 11.1064 10.8027C11.1389 10.8446 11.1688 10.888 11.1971 10.9314C11.207 10.9461 11.2154 10.9615 11.2245 10.977C11.2445 11.0093 11.2636 11.0424 11.2819 11.0755C11.2919 11.0939 11.301 11.113 11.3101 11.1314C11.3259 11.163 11.3401 11.1947 11.3542 11.227C11.3625 11.2454 11.37 11.2645 11.3775 11.2836C11.3916 11.3197 11.4041 11.3565 11.4157 11.3932C11.4207 11.4079 11.4257 11.4234 11.4307 11.4381C11.4457 11.4896 11.459 11.5425 11.4698 11.5947C11.4723 11.6058 11.4731 11.6161 11.4748 11.6271C11.4822 11.6698 11.4889 11.7124 11.4939 11.7558C11.4955 11.7742 11.4972 11.7926 11.4989 11.811C11.5005 11.8316 11.503 11.8521 11.5039 11.8727H14.0248C14.0339 11.8588 14.0431 11.8455 14.0522 11.8316C14.0805 11.7867 14.1087 11.7418 14.1362 11.6955C14.1478 11.6764 14.1595 11.6565 14.1703 11.6374C14.1013 11.3256 13.93 11.0417 13.6714 10.8122C13.3272 10.5085 12.8691 10.3408 12.3827 10.3408L12.3818 10.3416Z" fill="#929292"/>
<path d="M11.196 12.6377H4.21277C5.33066 14.085 7.08588 14.9356 9 14.9356C10.9141 14.9356 12.6694 14.0841 13.7872 12.6377H11.196Z" fill="#464646"/>
<path d="M11.0997 11.7808C11.0959 11.7565 11.092 11.7315 11.0872 11.7073C11.0833 11.6874 11.0785 11.6675 11.0737 11.6484C11.0679 11.6242 11.0602 11.5999 11.0525 11.5756C11.0467 11.5565 11.04 11.5374 11.0332 11.5183C11.0246 11.494 11.014 11.4697 11.0034 11.4462C10.9957 11.4278 10.988 11.4094 10.9783 11.391C10.9668 11.3668 10.9533 11.3432 10.9398 11.3197C10.9302 11.3028 10.9205 11.2851 10.9109 11.2682C10.8955 11.2439 10.8791 11.2197 10.8627 11.1961C10.8521 11.1807 10.8415 11.1645 10.83 11.1498C10.8107 11.1241 10.7886 11.0983 10.7674 11.0733C10.7568 11.0608 10.7471 11.0483 10.7365 11.0358C10.7028 10.999 10.6681 10.963 10.6306 10.9284C10.5882 10.8887 10.5429 10.8505 10.4938 10.813C10.094 10.5085 9.56412 10.3408 9.00055 10.3408C8.36762 10.3408 7.77322 10.5548 7.37054 10.9284C7.36957 10.9299 7.36861 10.9306 7.36668 10.9321C7.33104 10.9659 7.29636 11.0005 7.26457 11.0358C7.25301 11.0483 7.24337 11.0615 7.23278 11.0741C7.21158 11.0991 7.19039 11.1233 7.17112 11.1491C7.15956 11.1645 7.14896 11.1807 7.13837 11.1961C7.12199 11.2197 7.10561 11.2432 7.0902 11.2675C7.0796 11.2844 7.06997 11.302 7.06034 11.3197C7.04685 11.3432 7.03433 11.3668 7.02277 11.391C7.0141 11.4094 7.00639 11.4278 6.99772 11.4462C6.98712 11.4697 6.97749 11.494 6.96882 11.5183C6.96208 11.5374 6.95533 11.5565 6.94955 11.5756C6.94184 11.5999 6.9351 11.6242 6.92836 11.6484C6.92354 11.6683 6.91872 11.6881 6.91487 11.7073C6.91005 11.7315 6.9062 11.7558 6.90235 11.7808C6.89946 11.8007 6.89753 11.8213 6.8956 11.8411C6.8956 11.8514 6.89464 11.8617 6.89368 11.8727H11.1064C11.1064 11.8624 11.1064 11.8521 11.1045 11.8411C11.1026 11.8213 11.1007 11.8007 11.0978 11.7808L11.0997 11.7808Z" fill="#929292"/>
<path d="M11.4894 7.85198C11.4894 8.37965 11.9192 8.80942 12.4469 8.80942C12.9746 8.80942 13.4043 8.37965 13.4043 7.85198C13.4043 7.3243 12.9746 6.89453 12.4469 6.89453C11.9192 6.89453 11.4894 7.3243 11.4894 7.85198Z" fill="#9B9B9B"/>
<path d="M16.412 7.96324C16.2865 7.96324 16.1791 7.87302 16.1576 7.74928C15.9738 6.68975 15.5656 5.70498 14.9452 4.82329C14.873 4.72103 14.885 4.58096 14.9735 4.49246L16.0966 3.36934L14.6307 1.90335L13.5075 3.02647C13.419 3.11498 13.2798 3.12701 13.1767 3.05483C12.2951 2.43441 11.3103 2.02624 10.2507 1.84235C10.127 1.82087 10.0368 1.71346 10.0368 1.58801V0H7.96324V1.58801C7.96324 1.71347 7.87302 1.82088 7.74928 1.84235C6.68975 2.02625 5.70498 2.43441 4.82329 3.05483C4.72103 3.12701 4.58096 3.11498 4.49246 3.02647L3.36934 1.90335L1.90335 3.36934L3.02647 4.49246C3.11498 4.58097 3.12701 4.72104 3.05483 4.82329C2.43441 5.70494 2.02624 6.68971 1.84235 7.74928C1.82087 7.87302 1.71346 7.96324 1.58801 7.96324H0V10.0368H1.58801C1.71347 10.0368 1.82088 10.127 1.84235 10.2507C2.02625 11.3102 2.43441 12.295 3.05483 13.1767C3.12701 13.279 3.11498 13.419 3.02647 13.5075L1.90335 14.6307L3.36934 16.0966L4.49246 14.9735C4.58097 14.885 4.72104 14.873 4.82329 14.9452C5.70494 15.5656 6.68971 15.9738 7.74928 16.1576C7.87302 16.1791 7.96324 16.2865 7.96324 16.412V18H10.0368V16.412C10.0368 16.2865 10.127 16.1791 10.2507 16.1576C11.3102 15.9738 12.295 15.5656 13.1767 14.9452C13.279 14.873 13.419 14.885 13.5075 14.9735L14.6307 16.0966L16.0966 14.6307L14.9735 13.5075C14.885 13.419 14.873 13.279 14.9452 13.1767C15.5656 12.2951 15.9738 11.3103 16.1576 10.2507C16.1791 10.127 16.2865 10.0368 16.412 10.0368H18V7.96324H16.412ZM14.6538 11.789C14.5671 11.9651 14.4717 12.1378 14.3711 12.3011C13.2128 14.1804 11.2054 15.3019 9.00135 15.3019C6.79713 15.3019 4.78979 14.1796 3.63158 12.3011C3.53104 12.1387 3.43566 11.966 3.34886 11.789C2.9175 10.9185 2.69837 9.98011 2.69837 8.99958C2.69837 5.52364 5.52625 2.69576 9.00219 2.69576C12.4781 2.69576 15.306 5.52364 15.306 8.99958C15.306 9.98004 15.0869 10.9184 14.6555 11.789H14.6538Z" fill="#464646"/>
<path d="M9.00092 3.06535C5.72738 3.06535 3.06396 5.76747 3.06396 9.08807C3.06396 9.78728 3.17855 10.4632 3.40594 11.107C3.81403 10.279 4.66281 9.71575 5.6103 9.71575C6.24578 9.71575 6.84514 9.95985 7.30522 10.4033C7.76001 9.96342 8.36289 9.71575 9.00013 9.71575C9.63738 9.71575 10.235 9.95985 10.6951 10.4033C11.1498 9.96342 11.7527 9.71575 12.3891 9.71575C13.0255 9.71575 13.6645 9.97505 14.1298 10.4463C14.322 10.6421 14.478 10.8638 14.5952 11.1034C14.8217 10.4606 14.9363 9.7855 14.9363 9.08718C14.9363 5.76635 12.2727 3.06445 8.99935 3.06445L9.00092 3.06535ZM5.61028 9.27874C4.80557 9.27874 4.15068 8.61442 4.15068 7.79806C4.15068 6.9817 4.80554 6.31737 5.61028 6.31737C6.41501 6.31737 7.06988 6.9817 7.06988 7.79806C7.06988 8.61442 6.41501 9.27874 5.61028 9.27874ZM9.00092 9.27874C8.19621 9.27874 7.54132 8.61442 7.54132 7.79806C7.54132 6.9817 8.19619 6.31737 9.00092 6.31737C9.80566 6.31737 10.4605 6.9817 10.4605 7.79806C10.4605 8.61442 9.80566 9.27874 9.00092 9.27874ZM13.8503 7.79897C13.8503 8.61531 13.1954 9.27966 12.3907 9.27966C11.586 9.27966 10.9311 8.61533 10.9311 7.79897C10.9311 6.98263 11.586 6.31829 12.3907 6.31829C13.1954 6.31829 13.8503 6.98261 13.8503 7.79897Z" fill="#464646"/>
</svg>
