<svg width="60" height="60" viewBox="0 0 60 60" fill="none" xmlns="http://www.w3.org/2000/svg">
<path d="M54.9748 24.3716C54.5973 24.3716 54.2618 24.4188 53.909 24.4882L46.1896 9.44405C46.419 9.13861 46.6509 8.83317 46.8384 8.45556C48.1977 5.77052 47.3811 2.31074 44.998 0.75578C42.5927 -0.799175 39.5386 0.144901 38.1571 2.82723C37.9696 3.17987 37.8215 3.55747 37.7179 3.93514H22.2797C22.1761 3.55751 22.0083 3.18265 21.8406 2.82723C20.4591 0.119937 17.3852 -0.799175 14.9996 0.75578C12.5943 2.31074 11.7777 5.77052 13.1592 8.45556C13.3467 8.83319 13.5564 9.13863 13.808 9.44405L6.06648 24.4882C5.73097 24.4188 5.37569 24.3716 5.00074 24.3716C2.24017 24.3716 -0.0195765 26.8928 0.000127892 30C0.000127892 33.1071 2.24017 35.6506 5.00074 35.6506C5.37819 35.6284 5.73346 35.5812 6.08871 35.509L13.8081 50.5559C13.5565 50.8614 13.3468 51.1918 13.1594 51.5444C11.7778 54.2517 12.5944 57.6893 14.9998 59.2442C17.3853 60.7992 20.4592 59.8801 21.8407 57.1728C22.0282 56.8201 22.154 56.4425 22.2601 56.0649H37.7204C37.824 56.4425 37.9721 56.8173 38.1595 57.1949C39.5411 59.88 42.5952 60.7963 45.0005 59.2441C47.3861 57.6892 48.2224 54.2294 46.8211 51.5444C46.6534 51.1917 46.4239 50.8613 46.1945 50.5559L53.9139 35.5089C54.2495 35.5783 54.6244 35.6505 54.9797 35.6255C57.7624 35.6477 60 33.1042 60 29.9971C60 26.89 57.7403 24.3687 54.9797 24.3687L54.9748 24.3716ZM41.0636 31.4828H50.1643C50.4159 32.5185 50.897 33.4376 51.5877 34.1206L43.9719 49.0013C43.0714 48.6709 42.1315 48.6709 41.2113 48.9319L38.9935 44.6224C38.4705 44.8335 37.9277 44.9279 37.3604 44.9279H36.1269L38.9294 50.4147C38.2806 51.1672 37.8217 52.1112 37.612 53.122H22.3614C22.1739 52.1084 21.7126 51.1672 21.044 50.3896L23.8465 44.9279H22.613C22.0481 44.9279 21.5029 44.8335 20.9799 44.6224L18.7621 48.9319C17.8419 48.6486 16.8995 48.6959 16.0213 49.0013L8.38586 34.1206C9.07665 33.4153 9.5577 32.5185 9.80931 31.4828H18.9099C19.2035 30.3999 19.6624 29.4113 20.2495 28.5395L9.8119 28.5173C9.56026 27.5038 9.07917 26.5875 8.38845 25.8794L16.0239 11.0215C16.9021 11.327 17.8643 11.352 18.7647 11.0687L21.9447 17.2608C22.258 16.1529 22.781 15.1172 23.4298 14.248L21.0443 9.61095C21.7128 8.83344 22.1742 7.9144 22.3616 6.90366H37.6123C37.822 7.91717 38.2808 8.85846 38.9519 9.58871L36.5465 14.2758C37.2151 15.1477 37.7184 16.1584 38.0317 17.2663L41.2117 11.0743C42.1318 11.3575 43.0742 11.3325 43.9722 11.0271L51.5881 25.885C50.8973 26.5903 50.4163 27.4871 50.1646 28.5228H39.727C40.3142 29.4169 40.773 30.4054 41.0666 31.4911L41.0636 31.4828Z" fill="#555555"/>
<path d="M35.3243 28.0005C33.8308 29.2113 32.0087 29.926 30.0131 29.926C27.9943 29.926 26.1721 29.2141 24.6787 28.0005C22.9005 28.9282 21.5184 30.6379 20.9904 32.8017L19.6289 38.2924C19.1682 40.145 20.4623 42.0005 22.2638 42.0005H37.7369C39.5357 42.0005 40.8325 40.1451 40.3718 38.2924L39.0103 32.8017C38.4823 30.6379 37.1002 28.903 35.322 28.0005H35.3243Z" fill="#555555"/>
<path d="M36.2788 20.0015C36.2788 23.3142 33.4679 26.0002 29.9984 26.0002C26.5316 26.0002 23.7207 23.3142 23.7207 20.0015C23.7207 16.6863 26.5316 14.0002 29.9984 14.0002C33.4679 14.0002 36.2788 16.6863 36.2788 20.0015Z" fill="#555555"/>
</svg>
