<svg width="19" height="19" viewBox="0 0 19 19" fill="none" xmlns="http://www.w3.org/2000/svg">
<path d="M9.45061 2.31143e-05C2.95739 0.256819 0 5.11827 0 9.52632C0.0497326 21.591 18.2437 22.7121 19 9.52713C18.996 6.99697 17.9877 4.57261 16.1966 2.78552C14.4063 0.999186 11.9799 -0.00223669 9.45061 2.31143e-05ZM9.50195 17.7711C3.85413 17.5472 1.28259 13.3407 1.28341 9.52632C1.33876 -0.914787 17.0613 -1.87541 17.7166 9.52713C17.715 11.7091 16.8503 13.8012 15.311 15.3459C13.7709 16.8915 11.6829 17.7631 9.50195 17.7711ZM12.8686 6.77142C12.9721 7.46156 12.8606 8.16615 12.5477 8.78887C12.2349 9.41241 11.7368 9.92358 11.1224 10.2518C10.2793 10.7004 10.0499 11.7725 10.1165 12.6256C10.1381 12.9755 9.87584 13.2789 9.52612 13.3069C9.1764 13.3342 8.86918 13.075 8.83628 12.7259C8.73762 11.4684 9.12826 9.85866 10.5224 9.11642H10.5232C11.2002 8.74166 11.6245 8.03146 11.6341 7.25705C11.6445 6.48266 11.2387 5.76203 10.5721 5.3696C9.90472 4.97638 9.07853 4.97157 8.40631 5.35596C7.73413 5.74115 7.32022 6.45617 7.32102 7.23057C7.32102 7.4015 7.25284 7.5644 7.13252 7.68477C7.0122 7.80514 6.84937 7.87255 6.67932 7.87255C5.2058 7.70483 6.55339 4.98041 7.33386 4.53893C9.29908 2.89063 12.6368 4.12887 12.8686 6.77142ZM9.47628 15.2642C9.13056 15.2521 8.85624 14.9681 8.85624 14.6222C8.85624 14.2763 9.13056 13.9922 9.47628 13.9802C9.822 13.9922 10.0963 14.2763 10.0963 14.6222C10.0963 14.9681 9.822 15.2521 9.47628 15.2642Z" fill="#1B2F62"/>
</svg>
