<svg width="20" height="22" viewBox="0 0 20 22" fill="none" xmlns="http://www.w3.org/2000/svg">
<path d="M5.97852 0.900391C6.44161 0.900391 6.88164 1.07661 7.21484 1.3916L7.35156 1.53516V1.53613C7.68765 1.93658 7.8352 2.46187 7.75195 2.97656C7.64957 3.59727 7.50613 4.10474 7.38184 4.47168H9.21094C10.0553 4.47186 10.7393 5.15561 10.7393 6V7.32812H17.7871L17.7861 7.3291C18.8268 7.3294 19.6709 8.1741 19.6709 9.21484V16.3574C19.6707 17.3982 18.826 18.2432 17.7852 18.2432H17.2773L14.9141 20.9434C14.8263 21.0449 14.699 21.0996 14.5713 21.0996C14.5176 21.0996 14.4631 21.0908 14.4121 21.0723H14.4102C14.2331 21.0041 14.1143 20.8348 14.1143 20.6426V18.2432H7.78613C6.74532 18.2432 5.90058 17.3982 5.90039 16.3574V11.0996H5.16113C4.70295 11.0996 4.24385 10.9925 3.83691 10.7891L3.39941 10.5684C3.19065 10.8851 2.83655 11.0996 2.42871 11.0996H2.07129C1.42692 11.0995 0.900519 10.5731 0.900391 9.92871V5.64258C0.900522 4.99823 1.42693 4.47175 2.07129 4.47168H2.42871C2.77399 4.47173 3.07993 4.62483 3.29395 4.86133C3.60049 4.54807 4.01533 4.08578 4.37793 3.54492C4.77255 2.95627 5.1011 2.28406 5.17188 1.61816V1.61719C5.217 1.20902 5.56393 0.900391 5.97852 0.900391ZM10.7363 8.24219C10.6836 9.82635 9.37889 11.0994 7.78223 11.0996H6.81055V16.3574C6.8108 16.8913 7.24834 17.3281 7.78223 17.3281H14.5674C14.8189 17.3281 15.0242 17.5337 15.0244 17.7852V19.4268L16.7236 17.4844C16.811 17.3832 16.9356 17.3281 17.0674 17.3281H17.7812C18.3151 17.3281 18.7527 16.8913 18.7529 16.3574V9.21387C18.7528 8.67992 18.3152 8.24219 17.7812 8.24219H10.7363ZM6.06152 1.82227C5.93707 2.75483 5.44706 3.64526 4.92773 4.35742C4.41282 5.06351 3.86282 5.60257 3.59668 5.84863V9.64844L4.24414 9.9707L4.29492 9.99609C4.5647 10.1206 4.85916 10.1895 5.15723 10.1895H7.78223C8.90901 10.1894 9.82509 9.27326 9.8252 8.14648V6.00391C9.8252 5.66636 9.54845 5.3898 9.21094 5.38965H6.71094C6.55186 5.38965 6.40593 5.3072 6.32324 5.1748V5.17578C6.23472 5.04043 6.23146 4.87085 6.29883 4.73145L6.2998 4.73047C6.2998 4.73047 6.38874 4.54736 6.50195 4.21875C6.61512 3.89022 6.75231 3.41658 6.84766 2.83398V2.83301C6.88905 2.58376 6.81879 2.32812 6.65234 2.13281C6.50082 1.95558 6.28882 1.84487 6.06152 1.82227ZM2.06738 5.38574C1.92642 5.38593 1.81067 5.5016 1.81055 5.64258V9.92871C1.81069 10.0697 1.92643 10.1854 2.06738 10.1855H2.4248C2.56592 10.1855 2.6815 10.0698 2.68164 9.92871V5.64258C2.68152 5.50148 2.56593 5.38574 2.4248 5.38574H2.06738Z" fill="#1B2F62" stroke="#1B2F62" stroke-width="0.2"/>
<path d="M16.3535 14.4717C16.6051 14.4717 16.8105 14.6771 16.8105 14.9287C16.8104 15.1802 16.605 15.3857 16.3535 15.3857H9.21094C8.95938 15.3857 8.75406 15.1802 8.75391 14.9287C8.75391 14.6771 8.95928 14.4717 9.21094 14.4717H16.3535Z" fill="#1B2F62" stroke="#1B2F62" stroke-width="0.2"/>
<path d="M16.3535 12.3291C16.6051 12.3292 16.8105 12.5345 16.8105 12.7861C16.8104 13.0376 16.605 13.2431 16.3535 13.2432H9.21094C8.95938 13.2432 8.75406 13.0377 8.75391 12.7861C8.75391 12.5345 8.95928 12.3291 9.21094 12.3291H16.3535Z" fill="#1B2F62" stroke="#1B2F62" stroke-width="0.2"/>
<path d="M16.3535 10.1855C16.605 10.1857 16.8105 10.391 16.8105 10.6426C16.8104 10.894 16.6049 11.0994 16.3535 11.0996H12.4248C12.1732 11.0996 11.9679 10.8941 11.9678 10.6426C11.9678 10.3909 12.1731 10.1855 12.4248 10.1855H16.3535Z" fill="#1B2F62" stroke="#1B2F62" stroke-width="0.2"/>
</svg>
