<svg width="14" height="14" viewBox="0 0 14 14" fill="none" xmlns="http://www.w3.org/2000/svg">
<g clip-path="url(#clip0_1196_4280)">
<path d="M7 3.50004C7 3.80946 7.12292 4.10621 7.34171 4.325C7.5605 4.54379 7.85725 4.66671 8.16667 4.66671C8.47609 4.66671 8.77283 4.54379 8.99162 4.325C9.21042 4.10621 9.33333 3.80946 9.33333 3.50004C9.33333 3.19062 9.21042 2.89388 8.99162 2.67508C8.77283 2.45629 8.47609 2.33337 8.16667 2.33337C7.85725 2.33337 7.5605 2.45629 7.34171 2.67508C7.12292 2.89388 7 3.19062 7 3.50004Z" stroke="#4E4E4E" stroke-linecap="round" stroke-linejoin="round"/>
<path d="M2.3335 3.5H7.00016" stroke="#4E4E4E" stroke-linecap="round" stroke-linejoin="round"/>
<path d="M9.3335 3.5H11.6668" stroke="#4E4E4E" stroke-linecap="round" stroke-linejoin="round"/>
<path d="M3.5 7.00004C3.5 7.30946 3.62292 7.60621 3.84171 7.825C4.0605 8.04379 4.35725 8.16671 4.66667 8.16671C4.97609 8.16671 5.27283 8.04379 5.49162 7.825C5.71042 7.60621 5.83333 7.30946 5.83333 7.00004C5.83333 6.69062 5.71042 6.39388 5.49162 6.17508C5.27283 5.95629 4.97609 5.83337 4.66667 5.83337C4.35725 5.83337 4.0605 5.95629 3.84171 6.17508C3.62292 6.39388 3.5 6.69062 3.5 7.00004Z" stroke="#4E4E4E" stroke-linecap="round" stroke-linejoin="round"/>
<path d="M2.3335 7H3.50016" stroke="#4E4E4E" stroke-linecap="round" stroke-linejoin="round"/>
<path d="M5.8335 7H11.6668" stroke="#4E4E4E" stroke-linecap="round" stroke-linejoin="round"/>
<path d="M8.75 10.5C8.75 10.8095 8.87292 11.1062 9.09171 11.325C9.3105 11.5438 9.60725 11.6667 9.91667 11.6667C10.2261 11.6667 10.5228 11.5438 10.7416 11.325C10.9604 11.1062 11.0833 10.8095 11.0833 10.5C11.0833 10.1906 10.9604 9.89388 10.7416 9.67508C10.5228 9.45629 10.2261 9.33337 9.91667 9.33337C9.60725 9.33337 9.3105 9.45629 9.09171 9.67508C8.87292 9.89388 8.75 10.1906 8.75 10.5Z" stroke="#4E4E4E" stroke-linecap="round" stroke-linejoin="round"/>
<path d="M2.3335 10.5H8.75016" stroke="#4E4E4E" stroke-linecap="round" stroke-linejoin="round"/>
<path d="M11.0835 10.5H11.6668" stroke="#4E4E4E" stroke-linecap="round" stroke-linejoin="round"/>
</g>
<defs>
<clipPath id="clip0_1196_4280">
<rect width="14" height="14" fill="white"/>
</clipPath>
</defs>
</svg>
