<svg width="258" height="246" viewBox="0 0 258 246" fill="none" xmlns="http://www.w3.org/2000/svg">
<path d="M193.014 58.2527H191.597V21.3557C191.597 15.692 189.231 10.2603 185.019 6.25531C180.807 2.25036 175.094 0.000270883 169.137 0H86.9161C80.959 0 75.246 2.24997 71.0337 6.25495C66.8215 10.2599 64.4551 15.6918 64.4551 21.3557V223.78C64.4551 226.584 65.036 229.361 66.1648 231.952C67.2936 234.543 68.9481 236.897 71.0337 238.88C73.1194 240.863 75.5955 242.436 78.3206 243.51C81.0457 244.583 83.9664 245.135 86.9161 245.135H169.137C175.094 245.135 180.807 242.885 185.019 238.88C189.231 234.875 191.598 229.444 191.598 223.78V84.5166H193.015L193.014 58.2527Z" fill="#1B2F62"/>
<path d="M170.042 5.55381H159.311C159.804 6.70435 159.992 7.95263 159.859 9.18868C159.726 10.4247 159.275 11.6106 158.546 12.6419C157.817 13.6731 156.832 14.5181 155.679 15.1023C154.525 15.6866 153.238 15.9921 151.932 15.9922H104.828C103.522 15.9922 102.235 15.6866 101.081 15.1024C99.9279 14.5181 98.9433 13.6731 98.2143 12.6418C97.4853 11.6105 97.0343 10.4245 96.901 9.18841C96.7676 7.95231 96.9561 6.704 97.4498 5.55347H87.4262C82.9775 5.55347 78.711 7.23375 75.5653 10.2247C72.4196 13.2156 70.6523 17.2721 70.6523 21.5019V223.632C70.6523 227.862 72.4196 231.918 75.5653 234.909C78.711 237.9 82.9775 239.58 87.4262 239.58H170.042C174.491 239.58 178.757 237.9 181.903 234.909C185.049 231.918 186.816 227.862 186.816 223.632V21.5016C186.816 17.2719 185.049 13.2155 181.903 10.2247C178.757 7.23383 174.491 5.55356 170.043 5.55347L170.042 5.55381Z" fill="white"/>
<path d="M164.407 147.161H88.749V147.835H164.407V147.161Z" fill="#1B2F62"/>
<path d="M91.1382 142.954C92.4577 142.954 93.5273 141.937 93.5273 140.683C93.5273 139.428 92.4577 138.411 91.1382 138.411C89.8187 138.411 88.749 139.428 88.749 140.683C88.749 141.937 89.8187 142.954 91.1382 142.954Z" fill="#FFED29"/>
<path d="M164.407 169.877H88.749V170.551H164.407V169.877Z" fill="#1B2F62"/>
<path d="M91.1382 165.671C92.4577 165.671 93.5273 164.654 93.5273 163.399C93.5273 162.145 92.4577 161.128 91.1382 161.128C89.8187 161.128 88.749 162.145 88.749 163.399C88.749 164.654 89.8187 165.671 91.1382 165.671Z" fill="#FFED29"/>
<path d="M163.022 195.745H139.111C138.698 195.745 138.302 195.589 138.01 195.311C137.718 195.033 137.554 194.657 137.554 194.264V186.297C137.554 185.905 137.718 185.528 138.01 185.251C138.302 184.973 138.698 184.817 139.111 184.816H163.022C163.435 184.817 163.83 184.973 164.122 185.251C164.414 185.528 164.579 185.905 164.579 186.297V194.264C164.579 194.657 164.414 195.033 164.122 195.311C163.83 195.589 163.435 195.745 163.022 195.745Z" fill="#1B2F62"/>
<path d="M98.9321 142.954C100.252 142.954 101.321 141.937 101.321 140.683C101.321 139.428 100.252 138.411 98.9321 138.411C97.6126 138.411 96.543 139.428 96.543 140.683C96.543 141.937 97.6126 142.954 98.9321 142.954Z" fill="#FFED29"/>
<path d="M106.726 142.954C108.046 142.954 109.115 141.937 109.115 140.683C109.115 139.428 108.046 138.411 106.726 138.411C105.407 138.411 104.337 139.428 104.337 140.683C104.337 141.937 105.407 142.954 106.726 142.954Z" fill="#FFED29"/>
<path d="M98.9321 165.671C100.252 165.671 101.321 164.654 101.321 163.399C101.321 162.145 100.252 161.128 98.9321 161.128C97.6126 161.128 96.543 162.145 96.543 163.399C96.543 164.654 97.6126 165.671 98.9321 165.671Z" fill="#FFED29"/>
<path d="M106.726 165.671C108.046 165.671 109.115 164.654 109.115 163.399C109.115 162.145 108.046 161.128 106.726 161.128C105.407 161.128 104.337 162.145 104.337 163.399C104.337 164.654 105.407 165.671 106.726 165.671Z" fill="#FFED29"/>
<path d="M256.831 246H0.991185C0.443671 246 0 245.814 0 245.585C0 245.357 0.443671 245.17 0.991185 245.17H256.831C257.378 245.17 257.822 245.356 257.822 245.585C257.822 245.815 257.378 246 256.831 246Z" fill="#E6E6E6"/>
<ellipse cx="128.288" cy="89.1751" rx="26.9512" ry="25.625" fill="#1B2F62"/>
<path d="M114.273 88.56L119.478 98.4L144.459 82" stroke="white" stroke-width="2"/>
<path d="M224.074 154.198L218.058 165.521L200.074 173.295C198.153 176.381 192.05 176.617 191.606 174.623C191.107 172.384 199.018 168.78 199.018 168.78L214.062 159.105L215.378 150.776L224.074 154.198Z" fill="#EB842A"/>
<path d="M223.364 230.182L224.474 238.62L218.039 239.042L217.374 230.182L223.364 230.182Z" fill="#EB842A"/>
<path d="M222.477 237.354C223.053 236.776 223.583 236.159 224.065 235.508C224.987 234.295 225.805 240.518 225.805 240.518C225.805 240.518 226.693 243.05 226.471 244.316C226.249 245.581 221.146 245.581 220.259 245.371C219.371 245.161 214.934 245.371 214.934 245.371H208.278C202.509 242.84 208.278 241.152 208.278 241.152C210.053 240.941 216.043 235.667 216.043 235.667L217.375 233.347C218.262 233.136 219.15 236.3 219.15 236.3L222.477 237.354Z" fill="#090814"/>
<path d="M240.005 230.287L241.115 238.725L234.68 239.148L234.015 230.287H240.005Z" fill="#EB842A"/>
<path d="M239.118 237.46C239.693 236.881 240.224 236.265 240.706 235.614C241.628 234.4 242.446 240.624 242.446 240.624C242.446 240.624 243.333 242.945 243.112 244.21C242.89 245.476 237.787 245.476 236.899 245.266C236.012 245.056 231.575 245.477 231.575 245.477H224.918C219.15 242.945 224.918 241.258 224.918 241.258C226.693 241.047 232.684 235.773 232.684 235.773L234.015 233.452C234.903 233.241 235.79 236.406 235.79 236.406L239.118 237.46Z" fill="#090814"/>
<path d="M232.682 175.862C233.57 176.917 233.126 180.503 233.126 180.503C233.126 180.503 234.679 192.105 234.013 193.16C233.348 194.215 234.457 195.058 235.123 196.535C235.79 198.012 236.455 201.598 236.455 201.598C240.227 204.551 240.005 218.052 240.005 218.052L241.336 230.077C240.892 231.342 234.68 231.553 233.792 231.342C232.905 231.132 230.242 212.146 230.242 212.146L224.252 201.387C224.252 201.387 224.696 230.076 224.696 231.342C224.696 232.608 218.705 231.975 217.374 231.975C216.042 231.975 216.042 210.88 216.042 210.88L214.711 205.395L207.611 180.292V177.338L208.721 175.861C208.721 175.861 231.795 174.807 232.682 175.862Z" fill="#090814"/>
<path d="M222.921 127.975C226.72 127.975 229.799 125.047 229.799 121.436C229.799 117.824 226.72 114.896 222.921 114.896C219.122 114.896 216.043 117.824 216.043 121.436C216.043 125.047 219.122 127.975 222.921 127.975Z" fill="#EB842A"/>
<path d="M219.482 124.495C220.876 127.446 220.05 131.569 217.262 136.097L228.577 131.034L226.802 129.558L227.246 125.339L219.482 124.495Z" fill="#EB842A"/>
<path d="M219.482 131.245C218 132.082 217.113 133.621 216.605 135.188C215.663 138.087 215.095 141.084 214.916 144.114L214.379 153.184L207.723 177.233C213.491 181.874 216.818 180.819 224.585 177.022C232.351 173.224 233.238 178.288 233.238 178.288C233.238 178.288 233.903 178.077 233.238 177.444C232.572 176.812 233.238 177.444 233.903 176.812C234.569 176.179 233.903 176.812 233.681 176.179C233.459 175.546 233.681 175.968 233.903 175.757C234.125 175.546 233.016 173.646 233.016 173.646L234.791 157.824L237.011 135.464C234.349 132.299 226.806 129.557 226.806 129.557L219.926 134.198C217.705 135.041 219.482 131.666 219.482 131.666L219.482 131.245Z" fill="#1B2F62"/>
<path d="M240.669 148.86L241.557 161.517L230.241 176.917C230.241 180.503 228.245 181.347 228.245 181.347C227.488 180.199 226.821 179.001 226.248 177.761C225.138 175.44 226.914 173.542 226.914 173.542L234.679 157.931L231.351 150.126L240.669 148.86Z" fill="#EB842A"/>
<path d="M236.9 135.57C240.672 136.836 241.337 150.548 241.337 150.548C236.9 148.227 231.575 152.024 231.575 152.024C231.575 152.024 230.465 148.438 229.135 143.797C228.733 142.492 228.685 141.111 228.995 139.783C229.305 138.455 229.964 137.223 230.91 136.203C230.91 136.203 233.127 134.304 236.9 135.57Z" fill="#1B2F62"/>
<path d="M229.243 123.44C228.367 122.774 227.173 123.984 227.173 123.984L226.472 117.99C226.472 117.99 222.094 118.489 219.292 117.824C216.49 117.158 216.053 120.238 216.053 120.238C215.908 118.994 215.879 117.741 215.965 116.493C216.14 114.995 218.417 113.497 222.445 112.497C226.472 111.497 228.574 115.827 228.574 115.827C231.374 117.158 230.119 124.106 229.243 123.44Z" fill="#090814"/>
</svg>
