<svg width="21" height="21" viewBox="0 0 21 21" fill="none" xmlns="http://www.w3.org/2000/svg">
<path d="M11.1748 0.279212C10.8025 -0.0930707 10.1975 -0.0930707 9.82524 0.279212L0.279224 9.82523C0.100241 10.0042 0 10.2467 0 10.5V20.046C0 20.2993 0.10023 20.5418 0.279224 20.7208C0.458217 20.8997 0.700716 21 0.953983 21H6.68141C6.93468 21 7.17809 20.8998 7.35706 20.7208C7.53603 20.5418 7.63629 20.2993 7.63629 20.046V16.2274C7.63629 14.6461 8.9187 13.3637 10.5 13.3637C12.0813 13.3637 13.3637 14.6461 13.3637 16.2274V20.046C13.3637 20.2993 13.4639 20.5418 13.6429 20.7208C13.8219 20.8997 14.0653 21 14.3186 21H20.046C20.2993 21 20.5418 20.8998 20.7208 20.7208C20.8997 20.5418 21 20.2993 21 20.046V10.5C21 10.2467 20.8998 10.0042 20.7208 9.82523L11.1748 0.279212Z" fill="white"/>
</svg>
