<svg width="7" height="8" viewBox="0 0 7 8" fill="none" xmlns="http://www.w3.org/2000/svg">
<path fill-rule="evenodd" clip-rule="evenodd" d="M3.68977 3.80713C3.77655 3.84344 3.8601 3.88413 3.94277 3.92986C3.98867 3.95507 4.00779 4.01795 3.98573 4.0704C3.96366 4.12286 3.90865 4.14471 3.86275 4.11949C3.79332 4.08116 3.72242 4.04619 3.65005 4.01493C3.58827 3.98836 3.52561 3.96415 3.46206 3.94331C3.24259 4.05225 3.00048 4.11278 2.746 4.11278C2.49152 4.11278 2.2494 4.05225 2.02993 3.94331C1.49567 4.12084 1.03353 4.49138 0.705168 4.98467C0.395675 5.45002 0.205335 6.02499 0.185919 6.65009H2.14528C2.19617 6.65009 2.23765 6.6975 2.23765 6.75567C2.23765 6.81384 2.19617 6.86125 2.14528 6.86125L0.0923795 6.86091C0.0414842 6.86091 0 6.8135 0 6.75533C0 5.42647 0.730775 4.25574 1.80255 3.80754C0.816097 3.11153 0.650784 1.54294 1.47394 0.602201C2.17647 -0.200734 3.31588 -0.200734 4.0184 0.602201C4.84158 1.54268 4.6762 3.11111 3.68977 3.80713ZM3.21906 7.38535C3.16816 7.38535 3.12668 7.33794 3.12668 7.27977C3.12668 7.22159 3.16816 7.17419 3.21906 7.17419H6.2981C6.34899 7.17419 6.39048 7.22159 6.39048 7.27977C6.39048 7.33794 6.349 7.38535 6.2981 7.38535H3.21906ZM4.72149 5.27448H6.2981C6.34899 5.27448 6.39048 5.22707 6.39048 5.1689C6.39048 5.11073 6.349 5.06332 6.2981 5.06332L4.72149 5.06365C4.67059 5.06365 4.62911 5.11106 4.62911 5.16924C4.62911 5.22707 4.67029 5.27448 4.72149 5.27448ZM4.72149 5.9779H6.2981C6.34899 5.9779 6.39048 5.93049 6.39048 5.87231C6.39048 5.81414 6.349 5.76673 6.2981 5.76673L4.72149 5.76707C4.67059 5.76707 4.62911 5.81448 4.62911 5.87265C4.62911 5.93082 4.67029 5.9779 4.72149 5.9779ZM3.21906 6.68164H6.2981C6.34899 6.68164 6.39048 6.63423 6.39048 6.57606C6.39048 6.51789 6.349 6.47048 6.2981 6.47048L3.21906 6.47082C3.16816 6.47082 3.12668 6.51823 3.12668 6.5764C3.12668 6.63457 3.16786 6.68164 3.21906 6.68164ZM3.15375 5.78317L3.48236 6.15875C3.51825 6.20011 3.5768 6.20011 3.61299 6.15875L4.41379 5.24349C4.44998 5.20247 4.44998 5.13556 4.41379 5.0942C4.3779 5.05285 4.31936 5.05285 4.28317 5.0942L3.54769 5.9348L3.28438 5.63386C3.2482 5.5925 3.18995 5.5925 3.15376 5.63386C3.11757 5.67522 3.11756 5.74181 3.15375 5.78317ZM3.02519 4.44898C2.74541 4.44898 2.51682 4.71024 2.51682 5.03V7.41898C2.51682 7.73874 2.74541 8 3.02519 8H6.49134C6.77111 8 6.99971 7.73874 6.99971 7.41898L7 5.03C7 4.71024 6.77141 4.44898 6.49163 4.44898H3.02519ZM6.49164 4.6598H3.02519C2.8472 4.6598 2.70128 4.82657 2.70128 5.03V7.41898C2.70128 7.62241 2.8472 7.78918 3.02519 7.78918H6.49134C6.66933 7.78918 6.81525 7.62241 6.81525 7.41898V5.03C6.81525 4.82657 6.66933 4.6598 6.49164 4.6598ZM3.88805 0.75104C3.2576 0.0304801 2.2353 0.0304801 1.60455 0.75104C0.97409 1.4716 0.97409 2.64 1.60455 3.3609C2.235 4.08145 3.2573 4.08145 3.88805 3.3609C4.51851 2.64034 4.51851 1.47193 3.88805 0.75104Z" fill="#1B2F62"/>
</svg>
