<svg width="24" height="22" viewBox="0 0 24 22" fill="none" xmlns="http://www.w3.org/2000/svg">
<path d="M11.9992 20.758H22.8742V16.4617H1.12551V20.758H12.0005H11.9992ZM22.8742 15.2195V8.16179H15.2058V11.604C15.2058 11.9476 14.9541 12.2256 14.6431 12.2256H9.3564C9.04638 12.2256 8.79376 11.9476 8.79376 11.604V8.16179H1.12532V15.2195H22.8742ZM15.2058 6.91848H22.3909L18.9872 1.24458H15.2065V6.91848H15.2058ZM14.0805 1.24458H9.91812V10.9821H14.0805V1.24458ZM8.79376 1.24458H5.01306L1.60936 6.91848H8.79449V1.24458H8.79376ZM23.4367 22H0.562646C0.251671 22 0 21.722 0 21.3784V7.53881H0.00191386C0.00191386 7.42146 0.0315759 7.302 0.0956866 7.19629L4.22447 0.313993C4.32111 0.126872 4.50387 0 4.71343 0H19.2875V0.00211461C19.4693 0.00211461 19.6473 0.0993761 19.7554 0.28014L23.8842 7.16244C23.956 7.2671 24 7.39819 24 7.53879V21.3783C24 21.7219 23.7484 22 23.4374 22L23.4367 22Z" fill="black"/>
</svg>
