<svg width="18" height="18" viewBox="0 0 18 18" fill="none" xmlns="http://www.w3.org/2000/svg">
<path d="M11.1791 12.5807L10.838 12.4291C10.7622 12.3912 10.6675 12.4102 10.5917 12.467C10.2317 12.7891 9.90958 12.9407 9.66327 13.0165C9.4359 13.0923 9.22748 12.8839 9.28432 12.6565L10.7054 7.37017C10.7243 7.27543 10.7243 7.16175 10.6675 7.08596C10.5917 6.97227 10.478 6.89648 10.3454 6.89648C10.3264 6.89648 10.3075 6.89648 10.2885 6.89648L7.46537 7.37017C7.2759 7.40806 7.14327 7.57859 7.16221 7.78701L7.20011 8.09017C7.21906 8.26069 7.37064 8.39333 7.56011 8.39333H8.05274L6.74537 13.1681C6.74537 13.1681 6.74537 13.1681 6.74537 13.187C6.70748 13.3954 6.68853 13.7175 6.85906 14.0396C7.18116 14.646 7.78748 14.7596 8.41274 14.7596C9.98537 14.7596 10.9517 13.5281 11.2738 12.8649C11.3496 12.7702 11.2927 12.6375 11.1791 12.5807Z" fill="#1B2F62"/>
<path d="M9.87145 6.23313C10.6862 6.23313 11.3493 5.56998 11.3493 4.75524C11.3493 3.9405 10.6862 3.27734 9.87145 3.27734C9.05671 3.27734 8.39355 3.9405 8.39355 4.75524C8.39355 5.56998 9.05671 6.23313 9.87145 6.23313Z" fill="#1B2F62"/>
<path d="M9 0C4.03579 0 0 4.03579 0 9C0 13.9642 4.03579 18 9 18C13.9642 18 18 13.9642 18 9C18 4.03579 13.9642 0 9 0ZM9 16.6547C4.77474 16.6547 1.34526 13.2253 1.34526 9C1.34526 4.77474 4.77474 1.34526 9 1.34526C13.2253 1.34526 16.6547 4.77474 16.6547 9C16.6547 13.2253 13.2253 16.6547 9 16.6547Z" fill="#1B2F62"/>
</svg>
