<svg width="9" height="13" viewBox="0 0 9 13" fill="none" xmlns="http://www.w3.org/2000/svg">
<path d="M4.5 6.11188C4.80937 6.11188 5.07431 5.99208 5.29481 5.7525C5.51494 5.51332 5.625 5.22565 5.625 4.8895C5.625 4.55335 5.51494 4.26548 5.29481 4.02589C5.07431 3.78671 4.80937 3.66713 4.5 3.66713C4.19063 3.66713 3.92588 3.78671 3.70575 4.02589C3.48525 4.26548 3.375 4.55335 3.375 4.8895C3.375 5.22565 3.48525 5.51332 3.70575 5.7525C3.92588 5.99208 4.19063 6.11188 4.5 6.11188ZM4.5 10.6041C5.64375 9.46322 6.49219 8.42665 7.04531 7.49438C7.59844 6.56252 7.875 5.73498 7.875 5.01174C7.875 3.90141 7.54912 2.99217 6.89737 2.28401C6.246 1.57625 5.44688 1.22238 4.5 1.22238C3.55313 1.22238 2.75381 1.57625 2.10206 2.28401C1.45069 2.99217 1.125 3.90141 1.125 5.01174C1.125 5.73498 1.40156 6.56252 1.95469 7.49438C2.50781 8.42665 3.35625 9.46322 4.5 10.6041ZM4.5 12.2238C2.99062 10.8282 1.86337 9.53188 1.11825 8.33476C0.37275 7.13806 0 6.03038 0 5.01174C0 3.48377 0.452438 2.26649 1.35731 1.35989C2.26181 0.453297 3.30938 0 4.5 0C5.69062 0 6.73819 0.453297 7.64269 1.35989C8.54756 2.26649 9 3.48377 9 5.01174C9 6.03038 8.62744 7.13806 7.88231 8.33476C7.13681 9.53188 6.00938 10.8282 4.5 12.2238Z" fill="#1B2F62"/>
</svg>
