<svg width="10" height="10" viewBox="0 0 10 10" fill="none" xmlns="http://www.w3.org/2000/svg">
<g clip-path="url(#clip0_54_1590)">
<path d="M4.99984 0.833374C6.61234 0.833374 7.9165 2.13754 7.9165 3.75004C7.9165 5.93754 4.99984 9.16671 4.99984 9.16671C4.99984 9.16671 2.08317 5.93754 2.08317 3.75004C2.08317 2.13754 3.38734 0.833374 4.99984 0.833374ZM4.99984 4.79171C5.57484 4.79171 6.0415 4.32504 6.0415 3.75004C6.0415 3.17504 5.57484 2.70837 4.99984 2.70837C4.42484 2.70837 3.95817 3.17504 3.95817 3.75004C3.95817 4.32504 4.42484 4.79171 4.99984 4.79171Z" fill="#B62A2A"/>
</g>
<defs>
<clipPath id="clip0_54_1590">
<rect width="10" height="10" fill="white" transform="matrix(-1 0 0 1 10 0)"/>
</clipPath>
</defs>
</svg>
