<svg width="23" height="20" viewBox="0 0 23 20" fill="none" xmlns="http://www.w3.org/2000/svg">
<path d="M11.0362 0C9.98031 0 8.92443 0.51344 8.33534 1.53752L0.40774 15.3101C-0.772244 17.3614 0.754372 20 3.12078 20H18.9475C21.3139 20 22.8405 17.3614 21.6605 15.3101L13.737 1.53752C13.1479 0.51344 12.092 0 11.0362 0ZM11.0362 1.6026C11.5245 1.6026 12.0099 1.85696 12.3012 2.36323L20.2247 16.1359C20.8103 17.1538 20.1218 18.3486 18.9475 18.3486H3.12078C1.94648 18.3486 1.25802 17.1538 1.84357 16.1359L9.76711 2.36323C10.0583 1.85696 10.5478 1.6026 11.0362 1.6026Z" fill="#B62A2A"/>
<path d="M12.3476 7.63602C12.3476 7.80816 12.3137 7.97862 12.2477 8.13766C12.1817 8.29669 12.085 8.44118 11.963 8.5629C11.8411 8.68463 11.6963 8.78118 11.537 8.84706C11.3776 8.91293 11.2069 8.94684 11.0344 8.94684C10.862 8.94684 10.6912 8.91293 10.5319 8.84706C10.3725 8.78118 10.2278 8.68463 10.1058 8.5629C9.98388 8.44118 9.88716 8.29669 9.82116 8.13766C9.75517 7.97862 9.72119 7.80816 9.72119 7.63602C9.72119 7.46388 9.75517 7.29342 9.82116 7.13438C9.88716 6.97534 9.98388 6.83085 10.1058 6.70913C10.2278 6.58741 10.3725 6.49085 10.5319 6.42498C10.6912 6.3591 10.862 6.32519 11.0344 6.3252C11.2069 6.32519 11.3776 6.3591 11.537 6.42498C11.6963 6.49085 11.8411 6.58741 11.963 6.70913C12.085 6.83085 12.1817 6.97534 12.2477 7.13438C12.3137 7.29342 12.3476 7.46388 12.3476 7.63602Z" fill="#B62A2A"/>
<path d="M11.7429 13.0442C11.7429 13.2318 11.6682 13.4117 11.5354 13.5444C11.4025 13.677 11.2222 13.7516 11.0343 13.7516C10.8464 13.7516 10.6661 13.677 10.5332 13.5444C10.4003 13.4117 10.3257 13.2318 10.3257 13.0442C10.3257 12.8567 10.4003 12.6768 10.5332 12.5441C10.6661 12.4115 10.8464 12.3369 11.0343 12.3369C11.2222 12.3369 11.4025 12.4115 11.5354 12.5441C11.6682 12.6768 11.7429 12.8567 11.7429 13.0442Z" fill="#B62A2A"/>
<path d="M9.72119 7.63672L10.3258 13.045H11.743L12.3476 7.63672H9.72119Z" fill="#B62A2A"/>
<path d="M11.9619 15.3604C11.9619 15.482 11.9379 15.6023 11.8913 15.7147C11.8447 15.827 11.7764 15.9291 11.6903 16.015C11.6042 16.101 11.5019 16.1692 11.3894 16.2157C11.2768 16.2623 11.1562 16.2862 11.0344 16.2862C10.7885 16.2862 10.5525 16.1886 10.3786 16.015C10.2047 15.8414 10.1069 15.6059 10.1069 15.3604C10.1069 15.1148 10.2047 14.8793 10.3786 14.7057C10.5525 14.5321 10.7885 14.4346 11.0344 14.4346C11.1562 14.4346 11.2768 14.4585 11.3894 14.5051C11.5019 14.5516 11.6042 14.6198 11.6903 14.7057C11.7764 14.7917 11.8447 14.8938 11.8913 15.0061C11.9379 15.1184 11.9619 15.2388 11.9619 15.3604Z" fill="#B62A2A"/>
</svg>
