<svg width="12" height="13" viewBox="0 0 12 13" fill="none" xmlns="http://www.w3.org/2000/svg">
<path d="M5.85212 12.8106C4.17097 12.8106 2.48982 12.8106 0.80867 12.8106C0.327189 12.8106 0.0124772 12.4913 0.00440764 11.9839C-0.000972037 11.6219 -0.00366186 11.2627 0.00978735 10.9007C0.0259264 10.4731 0.222285 10.1452 0.571964 9.94286C1.72053 9.27866 2.87447 8.62872 4.02303 7.96738C4.10641 7.91892 4.15752 7.96453 4.21939 7.99874C5.20118 8.5432 6.2018 8.58881 7.22394 8.13557C7.25353 8.12416 7.28581 8.11561 7.31001 8.09281C7.52251 7.90182 7.71349 7.97878 7.93406 8.10706C8.96427 8.70854 10.0025 9.29862 11.0408 9.88584C11.49 10.1395 11.7106 10.5215 11.7025 11.0603C11.6971 11.3653 11.7025 11.6675 11.7025 11.9725C11.6998 12.4771 11.3824 12.8106 10.909 12.8106C9.22249 12.8106 7.53596 12.8106 5.85212 12.8106Z" fill="#3DA741"/>
<path d="M5.76857 7.71146C4.82174 7.67725 4.03631 7.18124 3.45799 6.3004C2.51117 4.85514 2.62414 2.8027 3.70815 1.48572C4.8863 0.0575591 6.83912 0.0661108 8.00651 1.50282C9.24653 3.03075 9.16852 5.44237 7.82629 6.82777C7.27757 7.39504 6.62125 7.70006 5.76857 7.71146Z" fill="#3DA741"/>
</svg>
