<svg width="20" height="18" viewBox="0 0 20 18" fill="none" xmlns="http://www.w3.org/2000/svg">
<path fill-rule="evenodd" clip-rule="evenodd" d="M18.4539 5.86131V16.5284C18.4539 17.3373 17.767 18 16.9261 18H14.8569L14.858 12.2182C14.858 9.64492 12.6716 7.53895 10.0002 7.53895C7.32885 7.53895 5.14244 9.645 5.14244 12.2182V17.9989H3.0743C2.23447 17.9989 1.54653 17.3373 1.54653 16.5273V5.86131C1.84708 5.95329 2.16828 6.00241 2.5003 6.00241C3.51591 6.00241 4.42088 5.54147 5.0003 4.8245C5.57972 5.5415 6.48469 6.00241 7.5003 6.00241C8.51591 6.00241 9.42088 5.54147 10.0003 4.8245C10.5797 5.5415 11.4847 6.00241 12.5003 6.00241C13.5159 6.00241 14.4209 5.54147 15.0003 4.8245C15.5797 5.5415 16.4847 6.00241 17.5003 6.00241C17.8323 6.00241 18.1533 5.95224 18.4539 5.86131ZM8.54057 16.4594H11.4595C11.9195 16.4594 12.296 16.0967 12.296 15.6535V14.4348C12.296 13.49 11.4931 12.7166 10.5122 12.7166H9.48788C8.50699 12.7166 7.70402 13.49 7.70402 14.4348V15.6535C7.70402 16.0967 8.08052 16.4594 8.54057 16.4594ZM9.99999 9.07826C9.34027 9.07826 8.80424 9.59354 8.80424 10.2301C8.80424 10.8655 9.33918 11.3818 9.99999 11.3818C10.6597 11.3818 11.1947 10.8666 11.1947 10.2301C11.1957 9.59458 10.6597 9.07826 9.99999 9.07826ZM0 2.95153H4.64083L5.88432 0L2.27211 0.00104518C1.63733 0.00104518 1.09589 0.352226 0.857165 0.918718L0 2.95153ZM5.35916 2.95153L6.60266 0H9.66571V2.95153H5.35916ZM10.333 2.95153H14.6408L13.3973 0L10.3332 0.00104518L10.333 2.95153ZM15.3591 2.95153L14.1156 0H17.7279C18.3626 0 18.9041 0.351181 19.1428 0.917672L20 2.95056L15.3591 2.95153ZM4.90999 3.5943H0.09C0.381888 4.61231 1.34978 5.36067 2.49994 5.36067C3.65011 5.35962 4.6181 4.61231 4.90999 3.5943ZM19.91 3.5943H15.09C15.3819 4.61231 16.3498 5.36067 17.4999 5.36067C18.6501 5.35962 19.6181 4.61231 19.91 3.5943ZM14.91 3.5943H10.09C10.3819 4.61231 11.3498 5.35962 12.4999 5.35962C13.6501 5.35962 14.6181 4.61231 14.91 3.5943ZM9.90999 3.5943H5.08999C5.38188 4.61231 6.34977 5.36067 7.49993 5.36067C8.6501 5.35962 9.6181 4.61231 9.90999 3.5943Z" fill="#1B2F62"/>
</svg>
