<svg width="13" height="16" viewBox="0 0 13 16" fill="none" xmlns="http://www.w3.org/2000/svg">
<path d="M6.48407 0.290527C5.50122 0.290527 4.69941 1.03538 4.69941 1.93808V2.4944C2.74862 3.15713 1.35842 4.87518 1.35842 6.89153V10.6247L0.337584 12.5946C0.302356 12.6626 0.286471 12.7376 0.291408 12.8128C0.296344 12.8879 0.321942 12.9607 0.365817 13.0243C0.409693 13.088 0.47042 13.1404 0.542346 13.1767C0.614272 13.2131 0.695059 13.2321 0.777185 13.2322H3.85737C3.95966 14.4757 5.10056 15.4605 6.48407 15.4605C7.86757 15.4605 9.00852 14.4757 9.11078 13.2322H12.1909C12.2731 13.2322 12.3539 13.2131 12.4258 13.1768C12.4977 13.1404 12.5584 13.088 12.6023 13.0244C12.6462 12.9607 12.6718 12.8879 12.6767 12.8128C12.6817 12.7376 12.6658 12.6626 12.6306 12.5946L11.6097 10.6247V6.89153C11.6097 4.87518 10.2195 3.15713 8.2687 2.4944V1.93808C8.2687 1.03538 7.46691 0.290527 6.48407 0.290527ZM6.48407 1.18277C6.93932 1.18277 7.29526 1.50958 7.29526 1.93808V2.26085C7.03101 2.22206 6.76014 2.20182 6.48407 2.20182C6.20799 2.20182 5.93711 2.22206 5.67286 2.26085V1.93808C5.67286 1.50958 6.02881 1.18277 6.48407 1.18277ZM6.48407 3.0944C8.79337 3.0944 10.6363 4.78074 10.6363 6.89153V10.7254C10.6363 10.7916 10.6524 10.857 10.6834 10.9168L11.4208 12.3398H9.11827H8.14482H4.82331H3.84986H1.5473L2.28477 10.9168C2.31577 10.857 2.33185 10.7916 2.33187 10.7254V6.89153C2.33187 4.78074 4.17476 3.0944 6.48407 3.0944ZM4.83483 13.2322H8.13331C8.03728 13.9922 7.34555 14.5682 6.48407 14.5682C5.62258 14.5682 4.93089 13.9922 4.83483 13.2322Z" fill="black"/>
</svg>
