<svg width="20" height="20" viewBox="0 0 20 20" fill="none" xmlns="http://www.w3.org/2000/svg">
<mask id="path-1-inside-1_337_4351" fill="white">
<path d="M9.99999 0C8.4131 0 7.11851 0.982014 7.11851 2.17212V2.90558C3.96879 3.77932 1.7242 6.04438 1.7242 8.70273V13.6246L0.0759765 16.2216C0.0190984 16.3112 -0.00654921 16.4102 0.00142129 16.5093C0.0093918 16.6083 0.0507211 16.7043 0.121562 16.7882C0.192403 16.8721 0.290452 16.9412 0.406583 16.9891C0.522713 17.037 0.653149 17.0622 0.785749 17.0622H5.75897C5.92411 18.7016 7.76621 20 9.99999 20C12.2338 20 14.0759 18.7016 14.241 17.0622H19.2142C19.3468 17.0622 19.4772 17.037 19.5934 16.9891C19.7095 16.9412 19.8076 16.8721 19.8784 16.7882C19.9493 16.7043 19.9906 16.6084 19.9986 16.5093C20.0066 16.4102 19.9809 16.3112 19.924 16.2216L18.2758 13.6246V8.70273C18.2758 6.04438 16.0312 3.77932 12.8814 2.90558V2.17212C12.8814 0.982014 11.5869 0 9.99999 0ZM9.99999 1.17633C10.735 1.17633 11.3097 1.60719 11.3097 2.17212V2.59766C10.8831 2.54652 10.4457 2.51984 9.99999 2.51984C9.55424 2.51984 9.11687 2.54652 8.69022 2.59766V2.17212C8.69022 1.60719 9.26494 1.17633 9.99999 1.17633ZM9.99999 3.69661C13.7285 3.69661 16.7041 5.91987 16.7041 8.70273V13.7573C16.7041 13.8446 16.7301 13.9308 16.7801 14.0096L17.9708 15.8856H14.2531H12.6814H7.31856H5.74685H2.02916L3.21987 14.0096C3.26992 13.9308 3.29589 13.8446 3.29591 13.7573V8.70273C3.29591 5.91987 6.27142 3.69661 9.99999 3.69661ZM7.33715 17.0622H12.6628C12.5078 18.0642 11.3909 18.8237 9.99999 18.8237C8.60905 18.8237 7.49226 18.0642 7.33715 17.0622Z"/>
</mask>
<path d="M9.99999 0C8.4131 0 7.11851 0.982014 7.11851 2.17212V2.90558C3.96879 3.77932 1.7242 6.04438 1.7242 8.70273V13.6246L0.0759765 16.2216C0.0190984 16.3112 -0.00654921 16.4102 0.00142129 16.5093C0.0093918 16.6083 0.0507211 16.7043 0.121562 16.7882C0.192403 16.8721 0.290452 16.9412 0.406583 16.9891C0.522713 17.037 0.653149 17.0622 0.785749 17.0622H5.75897C5.92411 18.7016 7.76621 20 9.99999 20C12.2338 20 14.0759 18.7016 14.241 17.0622H19.2142C19.3468 17.0622 19.4772 17.037 19.5934 16.9891C19.7095 16.9412 19.8076 16.8721 19.8784 16.7882C19.9493 16.7043 19.9906 16.6084 19.9986 16.5093C20.0066 16.4102 19.9809 16.3112 19.924 16.2216L18.2758 13.6246V8.70273C18.2758 6.04438 16.0312 3.77932 12.8814 2.90558V2.17212C12.8814 0.982014 11.5869 0 9.99999 0ZM9.99999 1.17633C10.735 1.17633 11.3097 1.60719 11.3097 2.17212V2.59766C10.8831 2.54652 10.4457 2.51984 9.99999 2.51984C9.55424 2.51984 9.11687 2.54652 8.69022 2.59766V2.17212C8.69022 1.60719 9.26494 1.17633 9.99999 1.17633ZM9.99999 3.69661C13.7285 3.69661 16.7041 5.91987 16.7041 8.70273V13.7573C16.7041 13.8446 16.7301 13.9308 16.7801 14.0096L17.9708 15.8856H14.2531H12.6814H7.31856H5.74685H2.02916L3.21987 14.0096C3.26992 13.9308 3.29589 13.8446 3.29591 13.7573V8.70273C3.29591 5.91987 6.27142 3.69661 9.99999 3.69661ZM7.33715 17.0622H12.6628C12.5078 18.0642 11.3909 18.8237 9.99999 18.8237C8.60905 18.8237 7.49226 18.0642 7.33715 17.0622Z" fill="#1B2F62"/>
<path d="M7.11851 2.90558L7.65313 4.8328L9.11851 4.4263V2.90558H7.11851ZM1.7242 13.6246L3.41282 14.6963L3.7242 14.2057V13.6246H1.7242ZM0.0759765 16.2216L-1.61264 15.1499L-1.61285 15.1502L0.0759765 16.2216ZM0.785749 17.0622L0.785401 19.0622H0.785749V17.0622ZM5.75897 17.0622L7.7489 16.8617L7.56762 15.0622H5.75897V17.0622ZM14.241 17.0622V15.0622H12.4323L12.2511 16.8618L14.241 17.0622ZM19.2142 17.0622V19.0622H19.2144L19.2142 17.0622ZM19.924 16.2216L21.6129 15.1502L21.6126 15.1498L19.924 16.2216ZM18.2758 13.6246H16.2758V14.2057L16.5872 14.6963L18.2758 13.6246ZM12.8814 2.90558H10.8814V4.4263L12.3468 4.8328L12.8814 2.90558ZM11.3097 2.59766L11.0717 4.58345L13.3097 4.85168V2.59766H11.3097ZM8.69022 2.59766H6.69022V4.85168L8.92823 4.58345L8.69022 2.59766ZM16.7041 13.7573H14.7041V13.7578L16.7041 13.7573ZM16.7801 14.0096L15.0915 15.0814L15.0915 15.0814L16.7801 14.0096ZM17.9708 15.8856V17.8856H21.6091L19.6594 14.8139L17.9708 15.8856ZM2.02916 15.8856L0.340574 14.8139L-1.60912 17.8856H2.02916V15.8856ZM3.21987 14.0096L4.90846 15.0814L4.90847 15.0814L3.21987 14.0096ZM3.29591 13.7573L5.29591 13.7578V13.7573H3.29591ZM7.33715 17.0622V15.0622H5.00375L5.36069 17.3681L7.33715 17.0622ZM12.6628 17.0622L14.6393 17.368L14.9961 15.0622H12.6628V17.0622ZM9.99999 0V-2C8.80775 -2 7.65579 -1.63368 6.75877 -0.956167C5.86404 -0.280384 5.11851 0.80552 5.11851 2.17212H7.11851H9.11851C9.11851 2.34862 9.02028 2.34846 9.16956 2.23571C9.31655 2.12469 9.60534 2 9.99999 2V0ZM7.11851 2.17212H5.11851V2.90558H7.11851H9.11851V2.17212H7.11851ZM7.11851 2.90558L6.58389 0.978356C2.94216 1.98858 -0.275799 4.80929 -0.275799 8.70273H1.7242H3.7242C3.7242 7.27946 4.99542 5.57006 7.65313 4.8328L7.11851 2.90558ZM1.7242 8.70273H-0.275799V13.6246H1.7242H3.7242V8.70273H1.7242ZM1.7242 13.6246L0.0355813 12.5529L-1.61264 15.1499L0.0759765 16.2216L1.7646 17.2933L3.41282 14.6963L1.7242 13.6246ZM0.0759765 16.2216L-1.61285 15.1502C-1.88541 15.5798 -2.03737 16.1074 -1.99214 16.6697L0.00142129 16.5093L1.99498 16.3489C2.02428 16.713 1.92361 17.0426 1.7648 17.293L0.0759765 16.2216ZM0.00142129 16.5093L-1.99214 16.6697C-1.9472 17.2282 -1.71706 17.7107 -1.40657 18.0785L0.121562 16.7882L1.64969 15.4979C1.8185 15.6978 1.96599 15.9885 1.99498 16.3489L0.00142129 16.5093ZM0.121562 16.7882L-1.40657 18.0785C-1.10099 18.4404 -0.725499 18.6856 -0.35611 18.838L0.406583 16.9891L1.16928 15.1403C1.3064 15.1968 1.48579 15.3038 1.64969 15.4979L0.121562 16.7882ZM0.406583 16.9891L-0.35611 18.838C0.0150862 18.9911 0.406006 19.0621 0.785401 19.0622L0.785749 17.0622L0.786096 15.0622C0.900293 15.0622 1.03034 15.0829 1.16928 15.1403L0.406583 16.9891ZM0.785749 17.0622V19.0622H5.75897V17.0622V15.0622H0.785749V17.0622ZM5.75897 17.0622L3.76904 17.2626C4.07951 20.3448 7.22627 22 9.99999 22V20V18C9.25842 18 8.64532 17.7822 8.24668 17.5046C7.84215 17.2229 7.75942 16.9662 7.7489 16.8617L5.75897 17.0622ZM9.99999 20V22C11.4922 22 12.917 21.5686 14.0392 20.7871C15.1554 20.0098 16.0764 18.7976 16.231 17.2626L14.241 17.0622L12.2511 16.8618C12.2406 16.9662 12.1579 17.2229 11.7533 17.5046C11.3547 17.7822 10.7416 18 9.99999 18V20ZM14.241 17.0622V19.0622H19.2142V17.0622V15.0622H14.241V17.0622ZM19.2142 17.0622L19.2144 19.0622C19.5939 19.0621 19.9848 18.9911 20.356 18.838L19.5934 16.9891L18.8308 15.1402C18.9697 15.0829 19.0997 15.0622 19.214 15.0622L19.2142 17.0622ZM19.5934 16.9891L20.356 18.838C20.7254 18.6857 21.1009 18.4405 21.4065 18.0786L19.8784 16.7882L18.3503 15.4979C18.5143 15.3038 18.6937 15.1968 18.8308 15.1402L19.5934 16.9891ZM19.8784 16.7882L21.4065 18.0786C21.717 17.7108 21.9472 17.2282 21.9921 16.6697L19.9986 16.5093L18.005 16.3488C18.034 15.9885 18.1815 15.6978 18.3503 15.4979L19.8784 16.7882ZM19.9986 16.5093L21.9921 16.6697C22.0374 16.1074 21.8854 15.5799 21.6129 15.1502L19.924 16.2216L18.2352 17.293C18.0764 17.0426 17.9757 16.713 18.005 16.3488L19.9986 16.5093ZM19.924 16.2216L21.6126 15.1498L19.9644 12.5529L18.2758 13.6246L16.5872 14.6963L18.2354 17.2933L19.924 16.2216ZM18.2758 13.6246H20.2758V8.70273H18.2758H16.2758V13.6246H18.2758ZM18.2758 8.70273H20.2758C20.2758 4.80928 17.0578 1.98858 13.416 0.978355L12.8814 2.90558L12.3468 4.8328C15.0046 5.57006 16.2758 7.27947 16.2758 8.70273H18.2758ZM12.8814 2.90558H14.8814V2.17212H12.8814H10.8814V2.90558H12.8814ZM12.8814 2.17212H14.8814C14.8814 0.805538 14.1359 -0.280367 13.2412 -0.956159C12.3442 -1.63368 11.1922 -2 9.99999 -2V0V2C10.3946 2 10.6834 2.12469 10.8304 2.2357C10.9797 2.34844 10.8814 2.3486 10.8814 2.17212H12.8814ZM9.99999 1.17633V3.17633C9.99154 3.17633 9.88009 3.17566 9.72328 3.05694C9.55295 2.92798 9.30972 2.62463 9.30972 2.17212H11.3097H13.3097C13.3097 0.0216999 11.2876 -0.823673 9.99999 -0.823673V1.17633ZM11.3097 2.17212H9.30972V2.59766H11.3097H13.3097V2.17212H11.3097ZM11.3097 2.59766L11.5477 0.611869C11.0424 0.551298 10.5255 0.519842 9.99999 0.519842V2.51984V4.51984C10.3659 4.51984 10.7238 4.54175 11.0717 4.58345L11.3097 2.59766ZM9.99999 2.51984V0.519842C9.47444 0.519842 8.95759 0.551298 8.45222 0.611869L8.69022 2.59766L8.92823 4.58345C9.27614 4.54175 9.63404 4.51984 9.99999 4.51984V2.51984ZM8.69022 2.59766H10.6902V2.17212H8.69022H6.69022V2.59766H8.69022ZM8.69022 2.17212H10.6902C10.6902 2.62467 10.447 2.92802 10.2767 3.05696C10.1199 3.17566 10.0084 3.17633 9.99999 3.17633V1.17633V-0.823673C8.71242 -0.823673 6.69022 0.021651 6.69022 2.17212H8.69022ZM9.99999 3.69661V5.69661C11.4815 5.69661 12.7261 6.14058 13.5534 6.75851C14.3769 7.37348 14.7041 8.07726 14.7041 8.70273H16.7041H18.7041C18.7041 6.54534 17.5435 4.74606 15.947 3.55369C14.3545 2.36427 12.2471 1.69661 9.99999 1.69661V3.69661ZM16.7041 8.70273H14.7041V13.7573H16.7041H18.7041V8.70273H16.7041ZM16.7041 13.7573L14.7041 13.7578C14.7042 14.2512 14.853 14.7056 15.0915 15.0814L16.7801 14.0096L18.4687 12.9379C18.6071 13.156 18.704 13.438 18.7041 13.7569L16.7041 13.7573ZM16.7801 14.0096L15.0915 15.0814L16.2822 16.9574L17.9708 15.8856L19.6594 14.8139L18.4687 12.9379L16.7801 14.0096ZM17.9708 15.8856V13.8856H14.2531V15.8856V17.8856H17.9708V15.8856ZM14.2531 15.8856V13.8856H12.6814V15.8856V17.8856H14.2531V15.8856ZM12.6814 15.8856V13.8856H7.31856V15.8856V17.8856H12.6814V15.8856ZM7.31856 15.8856V13.8856H5.74685V15.8856V17.8856H7.31856V15.8856ZM5.74685 15.8856V13.8856H2.02916V15.8856V17.8856H5.74685V15.8856ZM2.02916 15.8856L3.71774 16.9574L4.90846 15.0814L3.21987 14.0096L1.53129 12.9379L0.340574 14.8139L2.02916 15.8856ZM3.21987 14.0096L4.90847 15.0814C5.14701 14.7056 5.2958 14.2512 5.29591 13.7578L3.29591 13.7573L1.29591 13.7569C1.29598 13.438 1.39283 13.156 1.53128 12.9379L3.21987 14.0096ZM3.29591 13.7573H5.29591V8.70273H3.29591H1.29591V13.7573H3.29591ZM3.29591 8.70273H5.29591C5.29591 8.07726 5.62312 7.37348 6.44652 6.75851C7.27387 6.14058 8.51851 5.69661 9.99999 5.69661V3.69661V1.69661C7.7529 1.69661 5.6455 2.36427 4.05295 3.55369C2.45646 4.74606 1.29591 6.54534 1.29591 8.70273H3.29591ZM7.33715 17.0622V19.0622H12.6628V17.0622V15.0622H7.33715V17.0622ZM12.6628 17.0622L10.6863 16.7564C10.7124 16.5883 10.7975 16.5799 10.6851 16.6548C10.5745 16.7286 10.3424 16.8237 9.99999 16.8237V18.8237V20.8237C11.9258 20.8237 14.2734 19.7326 14.6393 17.368L12.6628 17.0622ZM9.99999 18.8237V16.8237C9.65756 16.8237 9.42549 16.7286 9.3149 16.6548C9.20252 16.5799 9.28761 16.5882 9.31361 16.7562L7.33715 17.0622L5.36069 17.3681C5.72668 19.7325 8.07406 20.8237 9.99999 20.8237V18.8237Z" fill="#1B2F62" mask="url(#path-1-inside-1_337_4351)"/>
</svg>
