<svg width="80" height="60" viewBox="0 0 80 60" fill="none" xmlns="http://www.w3.org/2000/svg">
<path fill-rule="evenodd" clip-rule="evenodd" d="M57.0107 8.27598L70.9988 35.1308C71.0811 35.2873 71.1878 35.4223 71.3128 35.5281C71.4378 35.634 71.5787 35.7085 71.7273 35.7474C71.8754 35.789 72.0288 35.7939 72.1784 35.762C72.3281 35.73 72.471 35.6617 72.5988 35.5612L79.4668 30.1984C79.7248 29.9956 79.9067 29.6758 79.9728 29.3092C80.0388 28.9425 79.9836 28.5587 79.8192 28.2418L65.8283 1.38918C65.6625 1.07335 65.4015 0.850529 65.1022 0.76929C64.8028 0.688051 64.4894 0.754978 64.2301 0.955482L57.3622 6.31931C57.1039 6.52199 56.9218 6.84183 56.8559 7.20865C56.79 7.57548 56.8457 7.95933 57.0107 8.27598ZM63.0208 7.91809C62.7922 8.09837 62.5145 8.16041 62.2486 8.09062C61.9827 8.02083 61.7502 7.8249 61.6021 7.54571L61.3753 7.11424C61.2277 6.83452 61.177 6.49448 61.2342 6.16893C61.2914 5.84339 61.4519 5.559 61.6804 5.37833C61.9088 5.19766 62.1866 5.13551 62.4525 5.20556C62.7184 5.2756 62.9506 5.4721 63.0982 5.75182L63.3259 6.18106C63.4735 6.46095 63.5243 6.80117 63.4671 7.12692C63.4099 7.45266 63.2494 7.73725 63.0208 7.91809ZM70.2321 24.1579L63.9797 12.0633C63.8479 11.7829 63.8097 11.4509 63.873 11.1368C63.9363 10.8227 64.0962 10.5506 64.3194 10.3773C64.5425 10.204 64.8117 10.1429 65.0708 10.2067C65.3299 10.2705 65.5588 10.4544 65.7099 10.7199L71.9623 22.8144C72.0887 23.0946 72.1231 23.4233 72.0583 23.7335C71.9935 24.0436 71.8345 24.3118 71.6137 24.4832C71.3929 24.6547 71.1269 24.7165 70.8702 24.656C70.6134 24.5955 70.3852 24.4174 70.2321 24.1579ZM67.5457 33.1608C67.3322 33.5656 67.0223 33.8805 66.6579 34.0627C66.5285 33.9512 66.3965 33.8498 66.2599 33.7427C65.2946 33.0058 63.8449 31.7426 62.1621 30.2798C53.7151 22.9103 47.0457 17.4929 44.3857 20.2367C37.6871 27.1492 33.5656 28.7825 32.0713 28.0779C31.8761 27.9877 31.7079 27.8273 31.5887 27.6177C31.4696 27.4081 31.4051 27.1593 31.4038 26.9039C31.2435 25.43 31.9593 23.0742 33.3216 20.598C35.2627 17.2262 37.66 14.2852 40.4099 11.9017C45.9839 7.96715 47.4044 8.81894 49.3696 9.9974C50.7001 10.8973 52.1771 11.4243 53.6942 11.5404C54.5391 11.6021 55.3868 11.5727 56.2275 11.4524L67.543 33.1608H67.5457ZM60.9765 32.3235C62.683 33.8119 64.1555 35.0974 65.1653 35.8711C66.7863 37.1265 67.7278 38.4666 67.9673 39.8513C68.0472 40.5297 68.0151 41.2208 67.8731 41.8837C67.7311 42.5467 67.482 43.1681 67.1405 43.7112C66.4585 44.379 65.6549 44.8353 64.7979 45.0411C63.9409 45.2468 63.056 45.196 62.2185 44.893L48.9962 33.9501C48.7709 33.7635 48.4942 33.6942 48.2272 33.7573C47.9601 33.8205 47.7244 34.0109 47.572 34.2868C47.4196 34.5627 47.363 34.9014 47.4145 35.2284C47.4661 35.5554 47.6217 35.844 47.847 36.0305L60.7351 46.6947C60.7171 47.2721 60.6059 47.8394 60.4079 48.3639C60.2099 48.8884 59.9289 49.3597 59.5814 49.7506C59.1047 50.0921 58.5752 50.3086 58.0265 50.3864C57.4779 50.4641 56.922 50.4014 56.3942 50.2022L46.1851 42.0433C46.0723 41.9532 45.9461 41.8913 45.8137 41.8609C45.6813 41.8306 45.5453 41.8325 45.4136 41.8665C45.2818 41.9005 45.1567 41.966 45.0456 42.0591C44.9345 42.1523 44.8394 42.2714 44.7659 42.4095C44.6924 42.5476 44.6418 42.7022 44.617 42.8642C44.5922 43.0263 44.5938 43.1928 44.6215 43.3541C44.6493 43.5155 44.7028 43.6686 44.7789 43.8046C44.855 43.9407 44.9522 44.057 45.065 44.1471L54.8233 51.9425C54.7123 52.6665 54.4821 53.3553 54.1468 53.9669C53.8114 54.5785 53.378 55.1002 52.8728 55.5002C51.9676 56.0499 50.7146 55.9016 49.1483 55.0542L43.129 49.8142C43.0197 49.7099 42.8942 49.6338 42.7602 49.5906C42.6262 49.5473 42.4864 49.5378 42.3493 49.5625C42.2122 49.5873 42.0806 49.6458 41.9624 49.7346C41.8443 49.8234 41.7421 49.9405 41.662 50.079C41.5819 50.2175 41.5256 50.3745 41.4964 50.5404C41.4673 50.7062 41.4659 50.8777 41.4924 51.0442C41.5188 51.2108 41.5726 51.3691 41.6505 51.5095C41.7283 51.6499 41.8286 51.7695 41.9452 51.8611L47.4345 56.6486C47.2828 57.3417 47.0055 57.9841 46.6232 58.528C46.2409 59.072 45.7634 59.5034 45.2262 59.7904C43.6162 60.4705 41.183 59.4882 38.1616 56.9518C38.8354 55.8436 40.8616 52.2057 40.2806 49.4708C39.8745 47.5598 38.575 46.1595 36.4123 45.2999C37.0023 42.6709 36.7455 40.4177 35.6592 38.8602C34.5955 37.3372 32.8672 36.6772 30.7135 36.9481C30.6454 35.8978 30.3371 34.8922 29.8238 34.0465C29.3106 33.2008 28.6131 32.5491 27.8114 32.1663C26.7784 31.7397 25.6767 31.6244 24.5995 31.8299C23.5224 32.0354 22.5016 32.5558 21.6236 33.347C21.2676 32.6246 20.7977 31.9962 20.2413 31.4985C19.6849 31.0008 19.053 30.6438 18.3827 30.4482C17.5688 30.2103 16.7173 30.2487 15.9199 30.5591C15.1224 30.8694 14.4092 31.4401 13.8569 32.2097C13.7868 32.3079 13.7112 32.4071 13.6374 32.503C13.3621 32.2306 13.1148 31.9183 12.9007 31.5731L23.79 10.6686C26.7459 11.9764 29.7883 11.0532 32.4993 10.2282C35.5727 9.29501 37.3894 8.84681 38.4885 10.5259C32.6149 16.0815 28.8895 22.8501 29.3704 27.2361C29.422 27.9387 29.6334 28.6096 29.9805 29.1726C30.3277 29.7356 30.7968 30.1682 31.3346 30.4214C34.153 31.7593 39.2571 28.8182 45.7098 22.1555C45.8008 22.0574 46.7798 21.2847 51.485 24.5782C54.5693 26.7367 58.1207 29.8361 60.9737 32.3235H60.9765ZM8.9996 34.3916L22.9896 7.54125C23.1531 7.22427 23.2077 6.84103 23.1415 6.47498C23.0754 6.10893 22.8938 5.78971 22.6363 5.58682L15.7674 0.222986C15.5831 0.0773883 15.3684 -3.45394e-05 15.1491 3.52559e-06C14.9543 -0.000528042 14.7626 0.0590585 14.5917 0.173253C14.4208 0.287448 14.2761 0.452566 14.1711 0.653341L0.180165 27.5048C0.0160082 27.8217 -0.038884 28.2053 0.0275113 28.5716C0.0939066 28.938 0.276177 29.2571 0.534399 29.4593L7.39872 34.8253C7.65767 35.0264 7.97114 35.0936 8.27049 35.0123C8.56984 34.931 8.8307 34.7079 8.99596 34.3916H8.9996ZM16.6106 7.91809C16.3823 7.73705 16.2219 7.45247 16.1647 7.12682C16.1075 6.80117 16.1582 6.46103 16.3056 6.18106L16.5332 5.75182C16.6836 5.47999 16.9149 5.29107 17.1776 5.22555C17.4404 5.16003 17.7136 5.22311 17.9388 5.40129C18.164 5.57946 18.3232 5.85855 18.3824 6.17874C18.4415 6.49894 18.3959 6.83476 18.2552 7.11424L18.0294 7.54571C17.8812 7.8249 17.6487 8.02083 17.3828 8.09062C17.1169 8.16041 16.8393 8.09837 16.6106 7.91809ZM14.5927 14.2051C14.6752 14.0661 14.7335 13.908 14.764 13.7403C14.7945 13.5727 14.7967 13.3992 14.7703 13.2305C14.7438 13.0619 14.6894 12.9016 14.6104 12.7597C14.5314 12.6178 14.4294 12.4973 14.3108 12.4056C14.1922 12.3139 14.0595 12.2529 13.9209 12.2265C13.7822 12.2001 13.6407 12.2088 13.5049 12.2521C13.3692 12.2954 13.2421 12.3723 13.1316 12.4781C13.0211 12.5839 12.9295 12.7163 12.8625 12.8672L6.60738 24.9573C6.52491 25.0962 6.4666 25.2544 6.43606 25.422C6.40551 25.5896 6.40339 25.7631 6.42981 25.9318C6.45624 26.1005 6.51065 26.2607 6.58968 26.4026C6.66871 26.5445 6.77068 26.665 6.88928 26.7567C7.00789 26.8484 7.1406 26.9094 7.27921 26.9358C7.41782 26.9622 7.55938 26.9535 7.69513 26.9102C7.83089 26.867 7.95794 26.79 8.06845 26.6842C8.17895 26.5785 8.27055 26.446 8.33757 26.2952L14.5927 14.2051ZM15.3904 33.881C15.0999 34.2801 14.7912 34.6826 14.4898 35.0717C12.9417 37.0786 11.4847 38.9806 11.6523 41.3375C11.6459 41.8424 11.7278 42.3431 11.8924 42.8062C12.057 43.2692 12.3005 43.6838 12.6066 44.0222C13.0777 44.3328 13.5946 44.5252 14.1272 44.5882C14.6598 44.6512 15.1973 44.5835 15.7082 44.389C18.6932 40.0409 19.796 37.0429 20.2003 35.4798C20.0316 34.8478 19.734 34.279 19.3356 33.8272C18.9373 33.3753 18.4513 33.0554 17.9238 32.8976C17.4682 32.7591 16.9902 32.7776 16.5428 32.9511C16.0953 33.1247 15.6958 33.4465 15.3886 33.881H15.3904ZM22.2055 36.045C21.7839 37.7587 20.5992 41.1614 17.3036 45.9677C17.2783 47.2187 17.6486 48.4334 18.3372 49.3582C19.2224 50.2137 20.3406 50.6243 21.4643 50.5065L28.7147 37.9939C28.784 37.271 28.6602 36.5401 28.3619 35.9104C28.0637 35.2808 27.607 34.7863 27.0601 34.5009C26.214 34.1786 25.3112 34.152 24.4535 34.4243C23.5957 34.6965 22.8172 35.2567 22.2055 36.0417V36.045ZM30.3302 39.5503L23.0816 52.0563C23.1272 52.5181 23.2473 52.9643 23.4349 53.3689C23.6225 53.7735 23.8738 54.1284 24.1743 54.4132C24.9738 55.0888 26.2578 55.2059 27.9926 54.7599C28.314 54.2827 29.0052 53.2581 29.9841 51.7987C31.0235 50.2542 32.4298 48.1645 34.2031 45.5296C34.856 43.3544 34.8241 41.5259 34.1038 40.4935C33.4108 39.5046 32.0813 39.1757 30.3329 39.5503H30.3302ZM35.4789 47.5777L31.5632 53.3964L29.6863 56.1837C29.8787 57.0687 30.3315 57.8354 30.9577 58.3363C31.5838 58.8373 32.3392 59.0371 33.0784 58.8973C33.7559 58.8728 35.1456 57.6921 36.4942 55.4868C37.9266 53.1455 38.4821 51.006 38.2927 50.1063C38.0605 49.0036 37.1134 48.1541 35.4789 47.5777Z" fill="#1B2F62"/>
</svg>
