<svg width="36" height="19" viewBox="0 0 36 19" fill="none" xmlns="http://www.w3.org/2000/svg">
<path d="M16.9629 0.5C18.911 0.5 20.4268 2.21213 20.4268 4.22461C20.4265 6.23688 18.9109 7.94824 16.9629 7.94824C15.0151 7.94808 13.5002 6.23678 13.5 4.22461C13.5 2.21223 15.0149 0.500164 16.9629 0.5Z" fill="white" stroke="#1B2F62"/>
<path d="M7.53125 12.3408C9.1438 12.3408 10.6674 12.9379 11.8252 14.0303L12.1416 14.3291L11.8896 14.6836C11.7986 14.8117 11.711 14.9482 11.6299 15.0859C11.6241 15.096 11.6176 15.1081 11.6064 15.1289C11.5963 15.1479 11.5805 15.1769 11.5635 15.2061C11.4989 15.3209 11.441 15.4278 11.3906 15.5332L11.3867 15.54C11.3639 15.586 11.3446 15.6297 11.3145 15.6963L11.3135 15.7002C11.2658 15.8034 11.2207 15.907 11.1816 16.0088L11.1807 16.0117C11.157 16.0725 11.138 16.1231 11.1211 16.1719L11.1182 16.1807L10.6484 16.0088L11.1172 16.1807C11.0766 16.2913 11.0424 16.4048 11.0039 16.5332L11 16.5459C10.9844 16.5934 10.9717 16.6273 10.9629 16.6592L10.9639 16.6602C10.9205 16.8224 10.8825 16.9886 10.8516 17.1533C10.8501 17.1633 10.8482 17.1736 10.8467 17.1846C10.8441 17.2023 10.8417 17.2224 10.8389 17.2412L10.8379 17.2471C10.8158 17.3841 10.7965 17.5207 10.7822 17.6553L10.7812 17.665C10.7762 17.7058 10.7756 17.7295 10.7715 17.7861V17.792L10.7686 17.8281C10.7615 17.9234 10.7561 17.9593 10.7539 18.0176L10.7363 18.499H2.16797L2.02246 18.2568C2.01013 18.2363 1.99674 18.2165 1.98242 18.1934C1.9685 18.1708 1.95343 18.1446 1.9375 18.1182L1.93262 18.1113C1.84409 17.9585 1.75387 17.801 1.66602 17.6396L1.66699 17.6387C1.63239 17.5768 1.59323 17.5079 1.55664 17.4375L1.47461 17.2803L1.51074 17.1055C2.07856 14.3581 4.62677 12.3408 7.53125 12.3408Z" fill="white" stroke="#1B2F62"/>
<path d="M7.12109 3.5C9.06921 3.5 10.585 5.21213 10.585 7.22461C10.5847 9.23688 9.06906 10.9482 7.12109 10.9482C5.17327 10.9481 3.65845 9.23678 3.6582 7.22461C3.6582 5.21223 5.17311 3.50016 7.12109 3.5Z" fill="white" stroke="#1B2F62"/>
<path d="M28.4678 12.3408C30.0993 12.3409 31.6416 12.9536 32.8018 14.0674L32.9629 14.2285C33.7449 15.0401 34.2695 16.0268 34.4893 17.1074L34.5254 17.2803L34.4434 17.4375C34.4076 17.5062 34.3696 17.5777 34.3311 17.6465L34.3301 17.6455C34.2423 17.8067 34.1535 17.9625 34.0674 18.1113L34.0625 18.1182C34.0466 18.1446 34.0315 18.1708 34.0176 18.1934C34.0033 18.2165 33.9899 18.2364 33.9775 18.2568L33.832 18.499H25.2656L25.248 18.0176C25.2459 17.9602 25.2403 17.9248 25.2334 17.833L25.2197 17.6582L25.1641 17.252L25.1621 17.2412C25.1602 17.2273 25.1584 17.214 25.1572 17.2041C25.1559 17.1929 25.1552 17.1868 25.1543 17.1797C25.153 17.1691 25.1524 17.1655 25.1523 17.165L25.1504 17.1572L25.6416 17.0635L25.1504 17.1562C25.1194 16.9934 25.0814 16.8272 25.0381 16.665H25.0371C25.0309 16.6449 25.0253 16.6244 25.0195 16.6055C25.0117 16.5799 25.0042 16.556 24.9971 16.5332L24.9941 16.5244V16.5234C24.9599 16.4057 24.9245 16.2932 24.8857 16.1855V16.1846C24.8619 16.1183 24.8425 16.0653 24.8223 16.0166L24.8203 16.0117C24.7772 15.9044 24.737 15.8069 24.6934 15.7119V15.7109C24.6615 15.6413 24.6395 15.5918 24.6143 15.541C24.5604 15.4351 24.5054 15.3304 24.4482 15.2295L24.4434 15.2217C24.4028 15.1471 24.3946 15.1267 24.374 15.0938L24.3691 15.0859C24.2859 14.947 24.2007 14.8126 24.1104 14.6855L23.8584 14.3311L24.1738 14.0332C25.2705 12.9958 26.7227 12.3968 28.2637 12.3486L28.2725 12.3408H28.4678Z" fill="white" stroke="#1B2F62"/>
<path d="M18.002 12.3408C19.7367 12.3408 21.388 12.8674 22.6875 13.8447L22.9424 14.0459C23.1055 14.1814 23.2569 14.3208 23.3994 14.4658C23.4646 14.531 23.5276 14.5972 23.5869 14.6631L23.7568 14.8594L23.7627 14.8662L23.7686 14.874C23.789 14.9002 23.8081 14.9259 23.8232 14.9463C23.8393 14.9679 23.8519 14.9842 23.8643 15C23.9256 15.0787 24.0061 15.1793 24.0762 15.2812H24.0752C24.1197 15.3438 24.1624 15.4128 24.1865 15.4512L24.3457 15.7119L24.3574 15.7314C24.3735 15.7622 24.3896 15.7935 24.4043 15.8223C24.4191 15.8512 24.4318 15.8785 24.4453 15.9043H24.4463C24.4866 15.9808 24.5369 16.0759 24.5811 16.1768H24.5801C24.6163 16.2539 24.6456 16.3274 24.667 16.3828H24.666C24.6984 16.4614 24.736 16.5533 24.7676 16.6494L24.7686 16.6514C24.7882 16.7121 24.8113 16.7844 24.832 16.8584C24.8545 16.9355 24.8823 17.0318 24.9043 17.1309C24.9195 17.1965 24.938 17.2732 24.9521 17.3525L24.9932 17.6172L25.0762 18.1885H25.0195V18.499H10.9395L10.9834 17.959C10.9869 17.9156 10.9873 17.9029 10.9873 17.8926V17.8711L10.9893 17.8486C10.9949 17.7855 11.002 17.704 11.0127 17.624L11.0137 17.6201C11.0256 17.5356 11.0378 17.4449 11.0547 17.3525L11.0557 17.3516C11.0695 17.2769 11.0861 17.2007 11.1006 17.1357L11.1045 17.1201C11.125 17.0398 11.1482 16.9495 11.1748 16.8584C11.1956 16.7844 11.2186 16.7121 11.2383 16.6514L11.2393 16.6494C11.2694 16.5576 11.3037 16.4643 11.3418 16.3721L11.3447 16.3643C11.3557 16.3388 11.3669 16.3128 11.3799 16.2812C11.3922 16.2511 11.4061 16.215 11.4219 16.1787L11.4229 16.1768L11.5547 15.9043C11.5826 15.8486 11.6172 15.7798 11.6562 15.7119L11.6582 15.709C11.7118 15.6171 11.7676 15.5289 11.8174 15.4512C11.8429 15.4105 11.8855 15.3407 11.9277 15.2793C11.9982 15.1769 12.0775 15.079 12.1367 15.0029C12.148 14.9885 12.1563 14.9758 12.1768 14.9482C12.1943 14.9245 12.2189 14.8917 12.248 14.8574C12.3471 14.738 12.4522 14.6234 12.5566 14.5146L12.5596 14.5107L12.6016 14.4678L12.8623 14.2188C14.1996 13.0114 16.0554 12.3408 18.002 12.3408Z" fill="white" stroke="#1B2F62"/>
<path d="M27.584 3.5C29.5321 3.5 31.0479 5.21213 31.0479 7.22461C31.0476 9.23688 29.5319 10.9482 27.584 10.9482C25.6362 10.9481 24.1213 9.23678 24.1211 7.22461C24.1211 5.21223 25.636 3.50016 27.584 3.5Z" fill="white" stroke="#1B2F62"/>
</svg>
