<svg width="23" height="17" viewBox="0 0 23 17" fill="none" xmlns="http://www.w3.org/2000/svg">
<path d="M10.2832 9.14746C11.4549 8.99933 13.0299 8.99708 14.6699 9.58105C16.0743 9.18236 17.9114 9.18765 19.4053 9.68262C20.9098 10.1812 22.0964 11.1899 22.0957 12.8096C22.0957 13.556 22.1804 14.2228 21.5957 14.8633C21.2779 15.2123 20.8328 15.4297 20.3398 15.4297H17.1328C16.7671 15.8403 16.2474 16.0996 15.6709 16.0996H7.32812C6.7517 16.0995 6.23352 15.8401 5.86719 15.4297H2.65918C1.65637 15.4295 0.903377 14.547 0.90332 13.5547C0.90332 13.0259 0.865149 12.4906 1.03125 11.957C1.34164 10.9592 2.14526 10.2912 3.09766 9.87402C4.05017 9.45683 5.16375 9.28519 6.12109 9.28516C6.87809 9.28516 7.63959 9.38385 8.33496 9.58203C8.33886 9.58084 8.34346 9.57975 8.34863 9.57812C8.37708 9.5692 8.40729 9.5599 8.45801 9.54395C8.55246 9.51424 8.68842 9.47296 8.86035 9.42676C9.20465 9.33425 9.69343 9.22204 10.2832 9.14746ZM11.501 10.1357C10.2079 10.1358 8.92088 10.39 7.96094 10.8936C7.00164 11.3969 6.38381 12.1393 6.38379 13.1152C6.38379 13.4574 6.35993 13.7557 6.38672 14.0352C6.41282 14.3073 6.48642 14.5409 6.67188 14.7393C6.84327 14.9219 7.07653 15.0342 7.33008 15.0342H15.6729C16.2034 15.0348 16.6182 14.5553 16.6182 13.9902V13.1152C16.6181 12.1393 16.0012 11.3969 15.042 10.8936C14.082 10.3898 12.7943 10.1357 11.501 10.1357ZM18.9111 10.6396C18.0294 10.3799 17.0274 10.3148 16.2148 10.3809C17.106 11.0389 17.6797 11.9498 17.6797 13.1162C17.6797 13.3069 17.6868 13.562 17.6836 13.8047C17.6811 13.9994 17.6706 14.1966 17.6445 14.3652H20.3418C20.73 14.3652 21.037 13.9919 21.0371 13.5557C21.0371 13.3372 21.046 13.1118 21.04 12.8857C21.0356 12.7177 21.0224 12.5572 20.9932 12.4131L20.958 12.2744C20.7023 11.4527 19.896 10.9298 18.9111 10.6396ZM6.78613 10.3818C5.8778 10.3089 4.73163 10.4024 3.7832 10.7432C2.73662 11.1193 1.96497 11.7792 1.96484 12.8105C1.96484 13.0918 1.94552 13.3386 1.96582 13.5713C1.98562 13.7978 2.04295 13.9882 2.18457 14.1436C2.31078 14.282 2.47889 14.3651 2.65918 14.3652H5.35742C5.33137 14.1968 5.3209 13.9994 5.31836 13.8047C5.31519 13.5618 5.32227 13.3065 5.32227 13.1162C5.32228 11.9511 5.89555 11.0399 6.78613 10.3818ZM11.501 0.900391C12.9719 0.900391 14.2604 1.78716 14.8242 3.0957C16.8458 1.34507 20.0449 2.77729 20.0449 5.50781C20.0449 8.81458 15.664 9.86408 14.1191 7.05371C12.6945 8.55407 10.3078 8.55277 8.88281 7.05469C7.8719 8.87763 5.382 9.26115 3.88281 7.75488C1.89543 5.75768 3.30926 2.32942 6.12012 2.3291C6.8879 2.3291 7.61046 2.61057 8.1748 3.09668C8.73921 1.78732 10.0296 0.900435 11.501 0.900391ZM7.18652 3.68359C5.80218 2.8658 4.0177 3.86379 4.01758 5.50781C4.01758 7.31443 6.1351 8.28092 7.49023 7.11426C7.82737 6.82332 8.07 6.42726 8.1709 5.97656C7.98416 5.54013 7.91296 5.13682 7.88867 4.83691C7.87623 4.68306 7.87655 4.55589 7.87891 4.46582C7.88008 4.42093 7.88152 4.38511 7.88281 4.36035C7.88293 4.35801 7.8827 4.35559 7.88281 4.35352C7.70438 4.07981 7.46688 3.84935 7.18652 3.68359ZM18.9834 5.50586C18.9839 3.40425 16.248 2.61188 15.1191 4.35156C15.1438 4.83435 15.0725 5.23221 14.9922 5.51758C14.9511 5.66358 14.9072 5.78008 14.874 5.86328C14.8577 5.90428 14.8434 5.93813 14.834 5.96094C14.8322 5.96531 14.8305 5.96922 14.8291 5.97266C14.9295 6.42471 15.1739 6.82157 15.5117 7.1123C16.8658 8.27965 18.9834 7.31346 18.9834 5.50586ZM13.3135 2.71973C11.7047 1.10256 8.93982 2.25257 8.93945 4.54004C8.93945 6.82691 11.7046 7.97788 13.3135 6.36133C14.3132 5.35557 14.3132 3.72557 13.3135 2.71973Z" fill="#1B2F62" stroke="#1B2F62" stroke-width="0.2"/>
</svg>
