<svg width="22" height="25" viewBox="0 0 22 25" fill="none" xmlns="http://www.w3.org/2000/svg">
<path d="M9.01367 0.849609C9.37628 0.849625 9.71704 0.9916 9.97363 1.24805L10.0625 1.3457C10.2268 1.54418 10.3284 1.78275 10.3604 2.03711H12.042C12.5365 2.03711 12.9526 2.35254 13.1123 2.78906H15.748C16.5369 2.78906 17.1785 3.43276 17.1787 4.22266V12.4092C17.9571 12.5832 18.987 12.683 20.2832 12.5264H20.2842C20.4342 12.5093 20.5842 12.5556 20.6982 12.6562C20.812 12.7566 20.8769 12.9028 20.877 13.0537V17.1367C20.877 19.2148 20.0025 21.1464 18.4746 22.4307C17.5644 23.1923 16.4577 23.7638 15.1904 24.1289L15.1895 24.1279C15.1406 24.1425 15.0912 24.1504 15.0439 24.1504C14.9926 24.1504 14.9431 24.1413 14.8984 24.1289H14.8975C13.836 23.8236 12.897 23.3646 12.084 22.7812H2.27637C1.49026 22.7812 0.84983 22.1444 0.849609 21.3594V4.22266C0.849792 3.4332 1.48893 2.78906 2.27637 2.78906H4.91504C5.07492 2.3525 5.49188 2.03711 5.98535 2.03711H7.66895C7.75314 1.36889 8.32319 0.849609 9.01367 0.849609ZM15.0439 12.7344C14.3995 13.1141 12.8271 13.8198 10.2705 13.6348V17.1367C10.2705 18.9064 11.0099 20.5387 12.2939 21.6182L12.5898 21.8525C13.2875 22.3731 14.1112 22.7785 15.0439 23.0635C16.1115 22.7372 17.0348 22.2513 17.793 21.6172L18.0273 21.4092C19.1659 20.3347 19.8154 18.7959 19.8154 17.1367V13.6348C17.2582 13.8207 15.6877 13.114 15.0439 12.7344ZM2.27734 3.85059C2.07859 3.85059 1.91324 4.01584 1.91309 4.22266V21.3594C1.91333 21.5572 2.07541 21.7197 2.27734 21.7197L10.8936 21.7188C9.81427 20.4821 9.20898 18.8612 9.20898 17.1357V13.0527C9.20903 12.9021 9.27297 12.7567 9.3877 12.6553C9.50054 12.5548 9.65178 12.5071 9.80273 12.5254C11.4598 12.7251 12.6901 12.5135 13.5039 12.2529C13.9109 12.1226 14.2144 11.9798 14.416 11.8701C14.5168 11.8152 14.5927 11.7681 14.6426 11.7354C14.6673 11.7191 14.686 11.706 14.6982 11.6973C14.7061 11.6917 14.7111 11.6876 14.7139 11.6855C14.8833 11.551 15.1167 11.5344 15.3018 11.6367L15.3779 11.6875L15.3799 11.6895L15.3896 11.6963C15.3987 11.7029 15.4127 11.7128 15.4316 11.7256C15.4702 11.7515 15.5289 11.7892 15.6074 11.834C15.729 11.9033 15.8989 11.9896 16.1162 12.0801V4.22266C16.1161 4.01693 15.9498 3.85059 15.748 3.85059H13.1855V5.01465C13.1854 5.30774 12.9483 5.54472 12.6553 5.54492H5.37402C5.08078 5.54492 4.84291 5.30786 4.84277 5.01465V3.85059H2.27734ZM9.01367 1.91211C8.85282 1.91215 8.71973 2.04509 8.71973 2.20898V2.56738C8.71973 2.86071 8.48181 3.09863 8.18848 3.09863H5.98535C5.9407 3.09863 5.9045 3.13411 5.9043 3.17871V3.32617H5.90332V4.48242H12.123V3.17871C12.1228 3.13411 12.0866 3.09863 12.042 3.09863H9.8418C9.54847 3.09863 9.31055 2.86071 9.31055 2.56738V2.20898C9.31055 2.13029 9.27971 2.05608 9.22266 1.99902C9.16564 1.94217 9.0922 1.91211 9.01367 1.91211Z" fill="#1B2F62" stroke="#1B2F62" stroke-width="0.3"/>
<path d="M13.9805 7.45215C14.2738 7.45215 14.5117 7.69012 14.5117 7.9834C14.5117 8.27673 14.2738 8.51465 13.9805 8.51465H4.04688C3.7536 8.51459 3.51562 8.27669 3.51562 7.9834C3.51568 7.69016 3.75363 7.45221 4.04688 7.45215H13.9805Z" fill="#1B2F62" stroke="#1B2F62" stroke-width="0.3"/>
<path d="M13.9805 9.99316C14.2738 9.99316 14.5117 10.2311 14.5117 10.5244C14.5117 10.8177 14.2738 11.0557 13.9805 11.0557H4.04688C3.7536 11.0556 3.51562 10.8177 3.51562 10.5244C3.51568 10.2312 3.75363 9.99322 4.04688 9.99316H13.9805Z" fill="#1B2F62" stroke="#1B2F62" stroke-width="0.3"/>
<path d="M8.00391 12.5332C8.2972 12.5332 8.5351 12.7712 8.53516 13.0645C8.53516 13.3578 8.29723 13.5957 8.00391 13.5957H4.04688C3.7536 13.5956 3.51562 13.3577 3.51562 13.0645C3.51568 12.7712 3.75363 12.5333 4.04688 12.5332H8.00391Z" fill="#1B2F62" stroke="#1B2F62" stroke-width="0.3"/>
<path d="M8.00391 15.0723C8.2972 15.0723 8.5351 15.3102 8.53516 15.6035C8.53516 15.8968 8.29723 16.1348 8.00391 16.1348H4.04688C3.7536 16.1347 3.51562 15.8968 3.51562 15.6035C3.51568 15.3103 3.75363 15.0723 4.04688 15.0723H8.00391Z" fill="#1B2F62" stroke="#1B2F62" stroke-width="0.3"/>
<path d="M8.00391 17.6113C8.2972 17.6113 8.5351 17.8493 8.53516 18.1426C8.53516 18.4359 8.29723 18.6738 8.00391 18.6738H4.04688C3.7536 18.6738 3.51562 18.4359 3.51562 18.1426C3.51568 17.8493 3.75363 17.6114 4.04688 17.6113H8.00391Z" fill="#1B2F62" stroke="#1B2F62" stroke-width="0.3"/>
<path d="M16.5352 16.126C16.7414 15.9905 17.0208 16.0122 17.2021 16.1934V16.1943C17.4087 16.4022 17.4095 16.738 17.2021 16.9453L14.958 19.1885C14.8543 19.2921 14.718 19.3447 14.583 19.3447C14.4468 19.3447 14.3106 19.2921 14.207 19.1885L12.8809 17.8633C12.6745 17.6556 12.6739 17.3197 12.8809 17.1123L12.8818 17.1113C13.0897 16.905 13.4256 16.905 13.6328 17.1123L14.582 18.0615L16.4512 16.1934L16.5352 16.126Z" fill="#1B2F62" stroke="#1B2F62" stroke-width="0.3"/>
</svg>
