<svg width="18" height="15" viewBox="0 0 18 15" fill="none" xmlns="http://www.w3.org/2000/svg">
<path d="M14.4795 8.37012C15.1178 8.37012 15.711 8.57387 16.2002 8.91895C15.9219 8.89899 15.6435 9.02086 15.4717 9.25586L15.4258 9.3252L14.3135 11.2031C14.1464 11.4851 13.7576 11.5321 13.5273 11.2988L13.4111 11.1816L13.4102 11.1807L13.3467 11.123C13.0191 10.8539 12.5359 10.8733 12.2305 11.1807L12.2295 11.1816C11.9074 11.5078 11.9063 12.0327 12.2275 12.3594L12.2285 12.3604L13.5566 13.7051C13.7365 13.8872 13.9931 13.9796 14.252 13.9463C14.5074 13.9134 14.7309 13.7639 14.8613 13.5459L14.8623 13.5439L16.8555 10.1807V10.1797C16.943 10.0311 16.9793 9.86512 16.9697 9.70312C17.3033 10.1955 17.5 10.7916 17.5 11.4355C17.4999 13.1327 16.1402 14.5 14.4795 14.5C12.819 14.4998 11.4601 13.1327 11.46 11.4355C11.46 9.73826 12.819 8.37027 14.4795 8.37012ZM9.89062 0.5H13.1533C13.4295 0.5 13.6533 0.723858 13.6533 1V6.28613C13.6532 6.52786 13.4525 6.79754 13.0977 6.9082C11.183 7.50556 9.79496 9.30861 9.79492 11.4346C9.79492 11.7742 9.83079 12.1064 9.89844 12.4268C9.96032 12.7201 9.89521 13.0983 9.72266 13.4004C9.54915 13.7041 9.33107 13.8328 9.1377 13.833H1C0.723858 13.833 0.5 13.6092 0.5 13.333V1.00098C0.5 0.724834 0.723858 0.500977 1 0.500977H4.76367V4.16504C4.76367 4.4513 4.90937 4.71889 5.15234 4.87305V4.87402C5.40178 5.03259 5.71303 5.04208 5.96973 4.91211L6.85059 4.46582C6.99261 4.39387 7.1607 4.3939 7.30273 4.46582L8.18359 4.91211C8.44345 5.04368 8.75172 5.02872 8.99707 4.87598L9 4.875C9.24405 4.72103 9.39062 4.45202 9.39062 4.16504V1C9.39062 0.723857 9.61448 0.5 9.89062 0.5ZM12.7266 12.4883C12.7019 12.4954 12.6763 12.5014 12.6494 12.5049L12.6523 12.5039C12.6781 12.5004 12.7028 12.4951 12.7266 12.4883ZM12.1152 11.8369C12.1102 11.8507 12.1063 11.8648 12.1025 11.8789C12.1063 11.8648 12.1103 11.8507 12.1152 11.8369ZM6.92676 0.500977H7.22656C7.5027 0.500983 7.72656 0.724838 7.72656 1.00098V2.5C7.72637 2.64137 7.57741 2.73268 7.45117 2.66895H7.44922C7.21476 2.55134 6.93785 2.54967 6.70215 2.66895C6.57592 2.73263 6.42695 2.64136 6.42676 2.5V1.00098C6.42676 0.724859 6.65065 0.501016 6.92676 0.500977ZM12.9121 12.3887L12.9102 12.3906C12.8985 12.4006 12.8857 12.4091 12.873 12.418C12.8865 12.4085 12.8999 12.3993 12.9121 12.3887Z" stroke="black"/>
</svg>
