<svg width="24" height="21" viewBox="0 0 24 21" fill="none" xmlns="http://www.w3.org/2000/svg">
<path fill-rule="evenodd" clip-rule="evenodd" d="M19.3064 11.0188C21.897 11.0188 24 13.255 24 16.0094C24 18.7638 21.8969 21 19.3064 21C16.7158 21 14.6138 18.7638 14.6138 16.0094C14.6138 13.255 16.7159 11.0188 19.3064 11.0188ZM7.01757 1.00086C7.01756 0.448581 6.56985 0.000874954 6.01757 0.000874954H1C0.447716 0.000874954 0 0.44859 0 1.00087V19.0662C0 19.6185 0.447715 20.0662 1 20.0662H13.0203C13.8816 20.0662 14.4079 18.98 14.1099 18.172C13.8625 17.5015 13.7266 16.7716 13.7266 16.0085C13.7266 13.2259 15.5319 10.8892 17.9641 10.2503C18.4676 10.118 18.8714 9.69442 18.8714 9.17379V1C18.8714 0.447716 18.4237 0 17.8714 0H12.8539C12.3016 0 11.8539 0.447715 11.8539 1V5.83136C11.8539 5.99426 11.7746 6.14576 11.6439 6.23234C11.5132 6.31778 11.3503 6.32575 11.2132 6.25285L9.9054 5.55716C9.61179 5.40098 9.25973 5.40098 8.96612 5.55717L7.65833 6.25285C7.5212 6.32576 7.35726 6.31892 7.22764 6.23234C7.09693 6.14576 7.01765 5.99426 7.01765 5.83136L7.01757 1.00086ZM16.7795 16.8125C16.7792 16.8125 16.7791 16.8128 16.7793 16.8129L18.5499 18.6956C18.6463 18.7981 18.7824 18.8482 18.9174 18.83C19.0524 18.8118 19.1724 18.7286 19.2431 18.6044L21.9001 13.8961C22.0255 13.6729 21.958 13.3835 21.748 13.2502C21.5391 13.1158 21.2659 13.1887 21.1416 13.412L19.4444 16.4188C19.1128 17.0062 18.3067 17.1036 17.8448 16.6121L17.4068 16.146C17.2332 15.9626 16.9536 15.9626 16.78 16.146C16.6065 16.3304 16.6064 16.6274 16.7796 16.812C16.7798 16.8122 16.7797 16.8124 16.7795 16.8125ZM9.96873 0.000874954C10.521 0.000874954 10.9687 0.44859 10.9687 1.00087V3.55888C10.9687 4.24419 10.2391 4.68295 9.63379 4.36165C9.50844 4.29558 9.36166 4.29558 9.23738 4.36165C8.63206 4.68294 7.90244 4.24419 7.90244 3.55888V1.00088C7.90244 0.448591 8.35016 0.000874954 8.90244 0.000874954H9.96873Z" fill="white"/>
</svg>
