<svg width="18" height="18" viewBox="0 0 18 18" fill="none" xmlns="http://www.w3.org/2000/svg">
<path d="M4.75 1.63965C7.37954 0.119793 10.6205 0.119793 13.25 1.63965C15.8796 3.15886 17.5 5.96834 17.5 9.00781C17.5 10.9063 16.8582 12.7493 15.6797 14.2363L15.6396 14.2871L15.6172 14.3379C14.0041 16.3361 11.5753 17.4999 9.00684 17.5C6.42313 17.5 3.97909 16.3236 2.36621 14.3037L2.34473 14.2705L2.33301 14.2529L2.32031 14.2363C1.14185 12.7494 0.500043 10.9064 0.5 9.00781C0.5 5.96834 2.12045 3.15876 4.75 1.63965ZM9 10.4199C6.4677 10.4199 4.11569 11.735 2.78809 13.8926L2.59277 14.21L2.8418 14.4883C4.40824 16.2408 6.64911 17.2374 8.99805 17.2275V17.2285L9 17.2275L9.00195 17.2285L9.00098 17.2275C11.3503 17.2378 13.5915 16.2411 15.1582 14.4883L15.4072 14.21L15.2119 13.8926C13.8842 11.735 11.5323 10.4199 9 10.4199ZM9 0.787109C6.82148 0.787109 4.73164 1.65208 3.19141 3.19434C1.65042 4.73604 0.785156 6.82774 0.785156 9.00781V9.00977C0.791996 10.5232 1.22232 12.0053 2.02539 13.2881L2.4209 13.9189L2.85547 13.3145C3.79109 12.0122 5.11469 11.0406 6.63672 10.5381L7.5332 10.2422L6.78418 9.66602C6.01767 9.07646 5.51592 8.21081 5.38281 7.25781L5.36133 7.06641L5.34961 6.87305C5.31622 5.91127 5.66127 4.97159 6.31445 4.25879V4.25781C7.01138 3.49684 7.99439 3.06354 9.02539 3.06348C10.0566 3.06348 11.0404 3.49663 11.7373 4.25781V4.25879C12.3903 4.9715 12.7355 5.91133 12.7021 6.87305L12.6904 7.06641C12.6013 8.09452 12.0843 9.03726 11.2666 9.66602L10.5225 10.2383L11.4121 10.5371C12.925 11.0441 14.2403 12.0156 15.1699 13.3135L15.6074 13.9238L16.002 13.2852C16.7956 11.9998 17.2146 10.5183 17.2139 9.00781C17.2139 6.82762 16.3497 4.7359 14.8086 3.19434H14.8076C13.2673 1.65245 11.1782 0.787109 9 0.787109ZM11.3994 4.35449C10.4289 3.38395 8.96966 3.09376 7.70117 3.61914C6.43349 4.14475 5.60742 5.38304 5.60742 6.75586V6.75684C5.6112 8.62884 7.12754 10.1475 8.99902 10.1514H9C10.3724 10.1514 11.6099 9.32327 12.1348 8.05469C12.6267 6.86474 12.4024 5.50737 11.5732 4.54199L11.3994 4.35449Z" stroke="#1B2F62"/>
</svg>
