<svg width="7" height="8" viewBox="0 0 7 8" fill="none" xmlns="http://www.w3.org/2000/svg">
<path fill-rule="evenodd" clip-rule="evenodd" d="M5.08255 2.8285C5.09957 2.8459 5.11306 2.86657 5.12227 2.88933C5.13148 2.91208 5.13622 2.93648 5.13622 2.96111C5.13622 2.98575 5.13148 3.01014 5.12227 3.0329C5.11306 3.05566 5.09957 3.07633 5.08255 3.09373L3.33608 4.8837C3.30174 4.91883 3.2552 4.93855 3.20668 4.93855C3.15816 4.93855 3.11162 4.91883 3.07728 4.8837L1.91745 3.69495C1.88415 3.65957 1.86573 3.61222 1.86616 3.56307C1.86658 3.51392 1.88582 3.4669 1.91973 3.43214C1.95363 3.39738 1.9995 3.37765 2.04746 3.3772C2.09542 3.37674 2.14163 3.3956 2.17616 3.42972L3.20668 4.48594L4.82384 2.8285C4.85817 2.79337 4.90469 2.77365 4.9532 2.77365C5.0017 2.77365 5.04823 2.79337 5.08255 2.8285ZM3.5 7.59967C5.74543 6.36648 6.6344 4.67082 6.63414 1.61255C6.30403 1.55763 5.99396 1.41423 5.73537 1.1969C5.47677 0.979561 5.27884 0.696015 5.16165 0.375006H1.83835C1.72114 0.696005 1.52321 0.979542 1.26461 1.19688C1.00602 1.41421 0.695958 1.55761 0.365855 1.61255C0.365595 4.67082 1.25457 6.36648 3.5 7.59967ZM6.82859 1.25826C6.51726 1.2358 6.2201 1.11615 5.97712 0.915391C5.73415 0.714636 5.557 0.442418 5.46954 0.135372C5.45852 0.0963391 5.43543 0.0620315 5.40374 0.037616C5.37205 0.0132005 5.33347 -9.08122e-07 5.29383 0H1.70617C1.66653 -9.08122e-07 1.62795 0.0132005 1.59626 0.037616C1.56457 0.0620315 1.54147 0.0963391 1.53046 0.135372C1.44299 0.442418 1.26585 0.714636 1.02287 0.915391C0.779896 1.11615 0.482743 1.2358 0.171407 1.25826C0.125471 1.26147 0.0824062 1.28232 0.0508026 1.31664C0.0191989 1.35095 0.00137896 1.39622 0.000896952 1.4434C-0.0168826 3.16911 0.229256 4.45492 0.775391 5.48989C1.31407 6.51082 2.15292 7.30155 3.41518 7.97867C3.44136 7.99268 3.47046 8 3.5 8C3.52954 8 3.55864 7.99268 3.58482 7.97867C4.84708 7.3019 5.68593 6.51118 6.22469 5.48989C6.77109 4.45492 7.01688 3.16911 6.9991 1.4434C6.9986 1.39622 6.98077 1.35097 6.94917 1.31666C6.91757 1.28235 6.87452 1.26149 6.82859 1.25826Z" fill="#1B2F62"/>
</svg>
