<svg width="26" height="26" viewBox="0 0 26 26" fill="none" xmlns="http://www.w3.org/2000/svg">
<path d="M6.50033 6.49984H6.51116M6.50033 19.4998H6.51116M4.33366 2.1665H21.667C22.8636 2.1665 23.8337 3.13655 23.8337 4.33317V8.6665C23.8337 9.86312 22.8636 10.8332 21.667 10.8332H4.33366C3.13704 10.8332 2.16699 9.86312 2.16699 8.6665V4.33317C2.16699 3.13655 3.13704 2.1665 4.33366 2.1665ZM4.33366 15.1665H21.667C22.8636 15.1665 23.8337 16.1366 23.8337 17.3332V21.6665C23.8337 22.8631 22.8636 23.8332 21.667 23.8332H4.33366C3.13704 23.8332 2.16699 22.8631 2.16699 21.6665V17.3332C2.16699 16.1366 3.13704 15.1665 4.33366 15.1665Z" stroke="#1E1E1E" stroke-width="2" stroke-linecap="round" stroke-linejoin="round"/>
</svg>
