<svg width="18" height="17" viewBox="0 0 18 17" fill="none" xmlns="http://www.w3.org/2000/svg">
<path d="M17.4434 16.2178C17.4867 16.2626 17.4965 16.2939 17.499 16.3076C17.5019 16.3233 17.4999 16.3427 17.4902 16.3662C17.4777 16.3964 17.4577 16.4272 17.4316 16.4521C17.4055 16.4771 17.3799 16.4905 17.3623 16.4961C17.3467 16.5011 17.3378 16.5005 17.332 16.499C17.3265 16.4976 17.3012 16.49 17.2617 16.4492L15.877 15.0195L16.0791 14.8105L17.4434 16.2178ZM0.5 8.52246C0.590083 8.53072 0.680602 8.53612 0.771484 8.53613H7.74316C7.18245 9.7633 7.16793 11.1748 7.68555 12.4082H0.873047C0.684202 12.4081 0.5 12.2404 0.5 12.0068V8.52246ZM13.8252 9.90527C14.1085 10.8335 13.7391 11.8691 12.9014 12.3682C11.9449 12.9378 10.7157 12.6139 10.1406 11.5986C10.1284 11.5767 10.1188 11.5534 10.1074 11.5312L11.0479 12.2783C11.3974 12.5558 11.8994 12.485 12.1631 12.1328V12.1318L13.8213 9.90918L13.8223 9.91016C13.8234 9.90864 13.8241 9.90679 13.8252 9.90527ZM10.8867 8.70898C11.5204 8.33222 12.2746 8.35293 12.876 8.69824C12.7567 8.75124 12.6492 8.83537 12.5654 8.94727V8.94824L11.3887 10.5225L11.0801 10.2773H11.0811C10.7532 10.0161 10.2905 10.0627 10.0166 10.3604L9.96484 10.4229C9.92302 10.4787 9.89151 10.5394 9.86621 10.6016C9.84573 9.8514 10.2146 9.11514 10.8877 8.70996L10.8867 8.70898ZM0.873047 4.02832H13.1006C13.2893 4.02856 13.4736 4.19535 13.4736 4.42871V6.11328C12.1945 5.63023 10.7717 5.75728 9.59375 6.45898C9.35937 6.5986 9.13792 6.76035 8.93066 6.94043H0.771484C0.677267 6.9404 0.587504 6.93003 0.5 6.91406V4.42871C0.500047 4.19523 0.684226 4.02838 0.873047 4.02832ZM5.25684 4.19043C4.97184 4.19043 4.71609 4.31049 4.53516 4.49707L4.19824 4.84473L4.2832 4.93262C4.25707 5.02353 4.2432 5.11969 4.24316 5.21875V5.74902C4.24318 5.84743 4.25742 5.94282 4.2832 6.0332L4.19727 6.12305L4.53516 6.4707C4.71609 6.65734 4.97179 6.77832 5.25684 6.77832H8.7168C9.00189 6.77832 9.25753 6.65739 9.43848 6.4707L9.77637 6.12207L9.68848 6.03223C9.71418 5.94198 9.72947 5.84726 9.72949 5.74902V5.21875C9.72946 5.1202 9.71436 5.02508 9.68848 4.93457L9.77539 4.8457L9.43848 4.49707C9.25753 4.3104 9.00187 4.19043 8.7168 4.19043H5.25684ZM8.65039 1.95703V2.43164H5.32324V1.95703H8.65039Z" stroke="black"/>
</svg>
