<svg width="21" height="21" viewBox="0 0 21 21" fill="none" xmlns="http://www.w3.org/2000/svg">
<path d="M20.934 9.34088C20.9004 9.04465 20.5558 8.82404 20.2575 8.82404C19.7848 8.83445 19.3204 8.69965 18.9267 8.43783C18.5331 8.17602 18.2292 7.79978 18.0561 7.35986C17.883 6.91994 17.8489 6.43751 17.9585 5.97764C18.0682 5.51777 18.3162 5.10257 18.6692 4.78806C18.7791 4.68844 18.8471 4.5507 18.8592 4.40281C18.8713 4.25491 18.8266 4.10796 18.7343 3.99179C18.2435 3.37104 17.6846 2.80726 17.0682 2.31101C16.9516 2.21793 16.8038 2.17285 16.6551 2.18495C16.5063 2.19705 16.3678 2.26543 16.2677 2.37614C15.9388 2.72252 15.5144 2.96351 15.0484 3.0686C14.5824 3.1737 14.0957 3.13817 13.6499 2.96652C13.2082 2.77751 12.8354 2.45716 12.5821 2.04897C12.3288 1.64078 12.2072 1.16452 12.2339 0.684853C12.2419 0.535825 12.1929 0.389324 12.097 0.275025C12.001 0.160726 11.8652 0.0871738 11.717 0.0692664C10.9325 -0.020931 10.1404 -0.0230451 9.35551 0.0629635C9.2094 0.0792428 9.07473 0.149835 8.97822 0.260744C8.88171 0.371653 8.8304 0.514778 8.83447 0.661742C8.85144 1.13724 8.72269 1.60657 8.46548 2.00685C8.20826 2.40713 7.83486 2.71925 7.3953 2.90139C6.95128 3.06639 6.4688 3.09843 6.00687 2.99358C5.54493 2.88873 5.12356 2.65154 4.79429 2.31101C4.69484 2.20221 4.55794 2.13504 4.41104 2.12296C4.26414 2.11088 4.1181 2.15479 4.00222 2.24588C3.37385 2.73927 2.80425 3.30323 2.30463 3.92666C2.21199 4.04319 2.1668 4.19042 2.1781 4.33885C2.1894 4.48728 2.25635 4.62597 2.36556 4.72714C2.72481 5.04915 2.97502 5.47491 3.08155 5.94545C3.18808 6.41599 3.14565 6.90801 2.96013 7.35336C2.76029 7.78749 2.43682 8.15301 2.03021 8.40415C1.6236 8.65529 1.15193 8.78089 0.674268 8.76522C0.526018 8.75583 0.379937 8.80453 0.266985 8.90101C0.154034 8.99749 0.0830889 9.13416 0.0691866 9.28206C-0.0230622 10.075 -0.0230622 10.8759 0.0691866 11.6688C0.0964993 11.9755 0.453666 12.1856 0.754106 12.1856C1.21706 12.1819 1.67046 12.3173 2.05555 12.5743C2.44065 12.8312 2.73968 13.198 2.91391 13.6269C3.09191 14.068 3.13116 14.5529 3.02643 15.0168C2.9217 15.4808 2.67796 15.9018 2.32774 16.2237C2.21835 16.3232 2.1508 16.4605 2.13871 16.6079C2.12663 16.7553 2.1709 16.9018 2.26261 17.0179C2.75084 17.6395 3.3084 18.2034 3.92448 18.6986C4.04062 18.7922 4.18806 18.838 4.33679 18.8267C4.48551 18.8154 4.62432 18.7478 4.72496 18.6377C5.05443 18.2907 5.47927 18.0491 5.94591 17.9433C6.41254 17.8375 6.90006 17.8722 7.34698 18.0431C7.78998 18.2299 8.16421 18.5494 8.41817 18.9576C8.67214 19.3659 8.79335 19.8428 8.76514 20.3227C8.75713 20.4717 8.80606 20.6182 8.90203 20.7325C8.99799 20.8468 9.13381 20.9204 9.28198 20.9383C9.68375 20.984 10.0878 21.0071 10.4921 21.0076C10.8776 21.0084 11.2627 20.9867 11.6456 20.9425C11.7924 20.9262 11.9277 20.855 12.0243 20.7432C12.1209 20.6314 12.1718 20.4872 12.1666 20.3395C12.1487 19.8644 12.2766 19.3951 12.5331 18.9948C12.7896 18.5945 13.1625 18.2822 13.6016 18.0999C14.0453 17.9356 14.5274 17.9047 14.9885 18.0111C15.4496 18.1175 15.8694 18.3565 16.1963 18.6986C16.2957 18.8074 16.4326 18.8746 16.5795 18.8867C16.7264 18.8988 16.8725 18.8549 16.9884 18.7638C17.6158 18.2693 18.1853 17.7055 18.686 17.083C18.7796 16.9669 18.8253 16.8194 18.814 16.6707C18.8027 16.522 18.7351 16.3832 18.625 16.2825C18.2707 15.9701 18.0205 15.5566 17.9084 15.0977C17.7962 14.6387 17.8274 14.1565 17.9977 13.7158C18.168 13.2751 18.4693 12.8973 18.8609 12.633C19.2526 12.3688 19.7158 12.231 20.1882 12.2381H20.3184C20.4674 12.2461 20.6139 12.1972 20.7282 12.1012C20.8425 12.0053 20.9161 11.8695 20.934 11.7213C21.022 10.9303 21.022 10.1319 20.934 9.34088ZM10.5153 14.0282C9.82256 14.0282 9.14542 13.8228 8.56946 13.4379C7.99351 13.0531 7.5446 12.5061 7.27952 11.8661C7.01444 11.2262 6.94508 10.522 7.08022 9.84257C7.21536 9.16318 7.54892 8.53912 8.03873 8.04931C8.52854 7.5595 9.1526 7.22594 9.83198 7.0908C10.5114 6.95566 11.2156 7.02502 11.8555 7.2901C12.4955 7.55519 13.0425 8.00409 13.4273 8.58005C13.8122 9.156 14.0176 9.83314 14.0176 10.5258C14.0165 11.4544 13.6471 12.3446 12.9905 13.0011C12.334 13.6577 11.4438 14.0271 10.5153 14.0282Z" fill="white"/>
</svg>
