<svg width="18" height="17" viewBox="0 0 18 17" fill="none" xmlns="http://www.w3.org/2000/svg">
<path d="M8.99963 6.69531C10.0613 6.6955 10.8764 7.505 10.8766 8.43945C10.8766 9.37345 10.0614 10.1834 8.99963 10.1836C7.93867 10.1836 7.12366 9.37379 7.12366 8.43945C7.1238 7.50451 7.93877 6.69531 8.99963 6.69531Z" stroke="black"/>
<mask id="path-2-inside-1_226_6440" fill="white">
<path d="M1.49254 10.168C1.61716 10.17 2.08956 10.2034 2.24608 10.6039C2.24627 10.6048 2.24665 10.6051 2.24684 10.606C2.34879 10.8992 2.4719 11.1831 2.61464 11.4582L2.61351 11.4586C2.61351 11.4586 2.61577 11.4621 2.61917 11.4664C2.63125 11.4901 2.64334 11.5135 2.65599 11.5367C2.71811 11.6809 2.78702 12.0087 2.38618 12.3875C2.38599 12.3878 2.38599 12.388 2.38524 12.3885L1.72044 13.0164C1.60262 13.1491 1.45893 13.3987 1.72874 13.6534C1.72874 13.6534 1.72874 13.6534 1.72874 13.6537L3.54717 15.3712H3.54755C3.54755 15.3712 3.91101 15.6649 4.36283 15.2394L4.99629 14.6413C5.17396 14.5052 5.5123 14.343 5.96469 14.5766C6.00755 14.5989 6.04135 14.6117 6.06665 14.6167C6.25168 14.6955 6.43993 14.7679 6.63195 14.8316L6.62949 14.8341C6.62949 14.8341 6.6395 14.8359 6.64913 14.8378C6.69879 14.854 6.74788 14.8708 6.79791 14.8861C6.97652 14.9623 7.23387 15.1451 7.23387 15.5786V16.4684C7.23633 16.5717 7.27938 16.9242 7.68815 17H10.0543C10.7691 17 10.7667 16.3864 10.7667 16.3864V15.5354C10.7784 15.3701 10.8615 15.0301 11.3284 14.8482C11.3344 14.8458 11.3371 14.8433 11.3426 14.8407C11.5671 14.7672 11.7865 14.682 12.0021 14.5875C12.0145 14.583 12.0249 14.5807 12.0387 14.5751C12.6174 14.3469 13.0553 14.69 13.0553 14.69L13.5743 15.18H13.5747C13.5747 15.18 14.0992 15.7055 14.6035 15.2285C14.6046 15.2278 14.6056 15.2273 14.6061 15.2267L16.1 13.8155C16.1004 13.8151 16.1004 13.8151 16.1004 13.8151C16.4863 13.4508 16.3866 13.1625 16.2599 12.9979L15.5672 12.3441C15.2419 12.0369 15.2647 11.7423 15.3297 11.5622C15.3593 11.5073 15.3871 11.452 15.415 11.3971C15.4209 11.3881 15.4258 11.3826 15.4258 11.3826L15.4222 11.3814C15.53 11.167 15.6259 10.9479 15.7086 10.7237C15.712 10.7171 15.715 10.7135 15.7179 10.7064C15.9488 10.1557 16.6007 10.1686 16.6007 10.1686H17.2482C17.419 10.1634 18 10.0889 18 9.30941V7.65118C18 6.97105 17.592 6.84979 17.3828 6.83267H16.6285C16.0298 6.83267 15.8208 6.54325 15.7513 6.39007C15.7426 6.36457 15.732 6.3396 15.723 6.31375C15.7205 6.3059 15.7188 6.29698 15.7188 6.29698L15.7163 6.29734C15.6312 6.06391 15.5315 5.83673 15.4195 5.61418C15.4176 5.60883 15.4186 5.60544 15.4161 5.59956C15.1875 5.08295 15.492 4.73058 15.5949 4.63072L15.6244 4.60273C15.6255 4.60219 15.6287 4.5988 15.6287 4.5988L16.0877 4.16565C16.5405 3.7375 16.279 3.36819 16.1482 3.23123L14.6075 1.77611C14.1704 1.36329 13.7848 1.63095 13.6623 1.73759L13.6234 1.77486L13.6219 1.77593L12.9369 2.42253C12.9369 2.42289 12.9369 2.42289 12.9369 2.42289C12.6319 2.71106 12.2158 2.50759 12.2158 2.50759V2.50849C11.9756 2.39382 11.7279 2.29521 11.4755 2.20694C11.4626 2.19802 11.4372 2.18786 11.3973 2.17591C10.7573 1.98386 10.7665 1.51397 10.7665 1.51397V0.848645C10.7665 0.185992 10.2001 0.0308501 9.82283 0H8.17962C7.80238 0.0308501 7.23614 0.185992 7.23614 0.848645C7.23614 0.879495 7.23463 0.901072 7.2335 0.927642V1.63969C7.21329 1.77557 7.11606 1.99206 6.72276 2.13579C6.71918 2.13704 6.71767 2.13829 6.71389 2.14007C6.44767 2.22459 6.18862 2.32606 5.93562 2.44001C5.92712 2.44322 5.92108 2.44375 5.9122 2.44732C5.38542 2.65774 5.0197 2.37867 4.91604 2.28433L4.44761 1.84191C4.44704 1.8412 4.44685 1.84102 4.44609 1.84048C3.99087 1.41054 3.61609 1.59261 3.43691 1.73331L1.86544 3.21768C1.73686 3.34928 1.44194 3.72145 1.80899 4.06793C1.80918 4.06829 1.80955 4.06864 1.80993 4.06936L2.47794 4.70027C2.47832 4.70027 2.47832 4.70045 2.47832 4.70045C2.86387 5.06494 2.58443 5.59742 2.58443 5.59742L2.58745 5.59795C2.4685 5.83227 2.36333 6.07301 2.27421 6.31999C2.2727 6.32409 2.27025 6.32659 2.26874 6.33087C2.08106 6.78791 1.6417 6.83017 1.505 6.83249H0.527724C0.323054 6.84515 0 6.91969 0 7.27384V9.66303C0.0156712 9.83815 0.120461 10.1688 0.693121 10.1688H1.49254V10.168ZM8.99943 5.24327C10.8666 5.24327 12.3859 6.67771 12.3859 8.44098C12.3859 10.2035 10.8666 11.6381 8.99943 11.6381C7.13286 11.6381 5.61464 10.2035 5.61464 8.44098C5.61464 6.67771 7.13286 5.24327 8.99943 5.24327Z"/>
</mask>
<path d="M1.49254 10.168C1.61716 10.17 2.08956 10.2034 2.24608 10.6039C2.24627 10.6048 2.24665 10.6051 2.24684 10.606C2.34879 10.8992 2.4719 11.1831 2.61464 11.4582L2.61351 11.4586C2.61351 11.4586 2.61577 11.4621 2.61917 11.4664C2.63125 11.4901 2.64334 11.5135 2.65599 11.5367C2.71811 11.6809 2.78702 12.0087 2.38618 12.3875C2.38599 12.3878 2.38599 12.388 2.38524 12.3885L1.72044 13.0164C1.60262 13.1491 1.45893 13.3987 1.72874 13.6534C1.72874 13.6534 1.72874 13.6534 1.72874 13.6537L3.54717 15.3712H3.54755C3.54755 15.3712 3.91101 15.6649 4.36283 15.2394L4.99629 14.6413C5.17396 14.5052 5.5123 14.343 5.96469 14.5766C6.00755 14.5989 6.04135 14.6117 6.06665 14.6167C6.25168 14.6955 6.43993 14.7679 6.63195 14.8316L6.62949 14.8341C6.62949 14.8341 6.6395 14.8359 6.64913 14.8378C6.69879 14.854 6.74788 14.8708 6.79791 14.8861C6.97652 14.9623 7.23387 15.1451 7.23387 15.5786V16.4684C7.23633 16.5717 7.27938 16.9242 7.68815 17H10.0543C10.7691 17 10.7667 16.3864 10.7667 16.3864V15.5354C10.7784 15.3701 10.8615 15.0301 11.3284 14.8482C11.3344 14.8458 11.3371 14.8433 11.3426 14.8407C11.5671 14.7672 11.7865 14.682 12.0021 14.5875C12.0145 14.583 12.0249 14.5807 12.0387 14.5751C12.6174 14.3469 13.0553 14.69 13.0553 14.69L13.5743 15.18H13.5747C13.5747 15.18 14.0992 15.7055 14.6035 15.2285C14.6046 15.2278 14.6056 15.2273 14.6061 15.2267L16.1 13.8155C16.1004 13.8151 16.1004 13.8151 16.1004 13.8151C16.4863 13.4508 16.3866 13.1625 16.2599 12.9979L15.5672 12.3441C15.2419 12.0369 15.2647 11.7423 15.3297 11.5622C15.3593 11.5073 15.3871 11.452 15.415 11.3971C15.4209 11.3881 15.4258 11.3826 15.4258 11.3826L15.4222 11.3814C15.53 11.167 15.6259 10.9479 15.7086 10.7237C15.712 10.7171 15.715 10.7135 15.7179 10.7064C15.9488 10.1557 16.6007 10.1686 16.6007 10.1686H17.2482C17.419 10.1634 18 10.0889 18 9.30941V7.65118C18 6.97105 17.592 6.84979 17.3828 6.83267H16.6285C16.0298 6.83267 15.8208 6.54325 15.7513 6.39007C15.7426 6.36457 15.732 6.3396 15.723 6.31375C15.7205 6.3059 15.7188 6.29698 15.7188 6.29698L15.7163 6.29734C15.6312 6.06391 15.5315 5.83673 15.4195 5.61418C15.4176 5.60883 15.4186 5.60544 15.4161 5.59956C15.1875 5.08295 15.492 4.73058 15.5949 4.63072L15.6244 4.60273C15.6255 4.60219 15.6287 4.5988 15.6287 4.5988L16.0877 4.16565C16.5405 3.7375 16.279 3.36819 16.1482 3.23123L14.6075 1.77611C14.1704 1.36329 13.7848 1.63095 13.6623 1.73759L13.6234 1.77486L13.6219 1.77593L12.9369 2.42253C12.9369 2.42289 12.9369 2.42289 12.9369 2.42289C12.6319 2.71106 12.2158 2.50759 12.2158 2.50759V2.50849C11.9756 2.39382 11.7279 2.29521 11.4755 2.20694C11.4626 2.19802 11.4372 2.18786 11.3973 2.17591C10.7573 1.98386 10.7665 1.51397 10.7665 1.51397V0.848645C10.7665 0.185992 10.2001 0.0308501 9.82283 0H8.17962C7.80238 0.0308501 7.23614 0.185992 7.23614 0.848645C7.23614 0.879495 7.23463 0.901072 7.2335 0.927642V1.63969C7.21329 1.77557 7.11606 1.99206 6.72276 2.13579C6.71918 2.13704 6.71767 2.13829 6.71389 2.14007C6.44767 2.22459 6.18862 2.32606 5.93562 2.44001C5.92712 2.44322 5.92108 2.44375 5.9122 2.44732C5.38542 2.65774 5.0197 2.37867 4.91604 2.28433L4.44761 1.84191C4.44704 1.8412 4.44685 1.84102 4.44609 1.84048C3.99087 1.41054 3.61609 1.59261 3.43691 1.73331L1.86544 3.21768C1.73686 3.34928 1.44194 3.72145 1.80899 4.06793C1.80918 4.06829 1.80955 4.06864 1.80993 4.06936L2.47794 4.70027C2.47832 4.70027 2.47832 4.70045 2.47832 4.70045C2.86387 5.06494 2.58443 5.59742 2.58443 5.59742L2.58745 5.59795C2.4685 5.83227 2.36333 6.07301 2.27421 6.31999C2.2727 6.32409 2.27025 6.32659 2.26874 6.33087C2.08106 6.78791 1.6417 6.83017 1.505 6.83249H0.527724C0.323054 6.84515 0 6.91969 0 7.27384V9.66303C0.0156712 9.83815 0.120461 10.1688 0.693121 10.1688H1.49254V10.168ZM8.99943 5.24327C10.8666 5.24327 12.3859 6.67771 12.3859 8.44098C12.3859 10.2035 10.8666 11.6381 8.99943 11.6381C7.13286 11.6381 5.61464 10.2035 5.61464 8.44098C5.61464 6.67771 7.13286 5.24327 8.99943 5.24327Z" stroke="black" stroke-width="2" mask="url(#path-2-inside-1_226_6440)"/>
</svg>
