<svg width="21" height="22" viewBox="0 0 21 22" fill="none" xmlns="http://www.w3.org/2000/svg">
<path d="M10.4991 3.47748C12.4189 3.47748 14.1572 4.24062 15.4159 5.47394C16.6737 6.70726 17.452 8.41162 17.452 10.295C17.452 12.0871 16.7471 13.7168 15.5939 14.9344V18.0993C16.8034 17.3379 17.8251 16.3142 18.5739 15.11C19.4452 13.7091 19.9462 12.0609 19.9462 10.2959C19.9462 7.73794 18.8888 5.42139 17.1783 3.74596C15.4687 2.06968 13.1071 1.03284 10.4983 1.03284C7.88958 1.03284 5.52704 2.06968 3.81834 3.74596C2.10877 5.42225 1.05043 7.73794 1.05043 10.2959C1.05043 12.0608 1.5523 13.709 2.42275 15.11C3.17152 16.3144 4.19317 17.3389 5.40273 18.0993V14.9344C4.24958 13.7177 3.54464 12.087 3.54464 10.295C3.54464 8.41256 4.32293 6.70812 5.58074 5.47394C6.83855 4.24062 8.57675 3.47748 10.4975 3.47748H10.4991ZM15.5939 19.2965V21.4842C15.5939 21.7684 15.3586 22 15.0678 22C14.9596 22 14.8594 21.9675 14.7753 21.9123L10.4991 19.5798L6.1853 21.9332C5.93212 22.0709 5.61276 21.9814 5.47319 21.734C5.42846 21.6542 5.40699 21.5691 5.40699 21.4849H5.40521V19.2972C3.81372 18.4288 2.47538 17.1674 1.52977 15.6455C0.560017 14.0849 0 12.2535 0 10.2956C0 7.45265 1.1755 4.87899 3.07571 3.01582C4.97584 1.15268 7.60064 0 10.5 0C13.3994 0 16.0241 1.15261 17.9243 3.01582C19.8244 4.87896 21 7.45265 21 10.2956C21 12.2534 20.4418 14.085 19.4702 15.6455C18.5246 17.1674 17.1863 18.4295 15.5948 19.2972L15.5939 19.2965ZM10.4991 12.6247H12.6721L13.4272 10.1195L12.3232 10.9133C12.0897 11.0818 11.7614 11.0318 11.5897 10.8028C11.5762 10.7861 11.5655 10.7677 11.5557 10.7502L10.4991 8.90723L9.4435 10.7502C9.30216 10.9984 8.9819 11.087 8.72872 10.9475C8.70277 10.9335 8.67862 10.9168 8.65625 10.8993L7.5711 10.1195L8.32615 12.6247H10.4991ZM13.0639 13.6562H7.93344V13.6545C7.70711 13.6545 7.49689 13.5089 7.43068 13.2852L6.12635 8.95794C6.07715 8.80707 6.1013 8.63602 6.20329 8.49917C6.37416 8.27023 6.70248 8.22022 6.93596 8.38777L8.8164 9.7395L10.0384 7.60707C10.084 7.52549 10.1529 7.45532 10.2415 7.40619C10.4947 7.2676 10.8149 7.35532 10.9563 7.60356L12.1801 9.7395L14.0605 8.38776C14.1876 8.29654 14.3558 8.26233 14.5186 8.30882C14.7959 8.38864 14.9551 8.6746 14.8737 8.94742L13.5775 13.2491C13.5265 13.4806 13.3153 13.6552 13.064 13.6552L13.0639 13.6562ZM14.5418 15.8413C13.4029 16.6413 12.0065 17.1114 10.4982 17.1114C8.98994 17.1114 7.59429 16.6404 6.4547 15.8413V20.6096L10.2372 18.5464C10.391 18.4605 10.586 18.4517 10.7524 18.5429L14.5411 20.6087V15.8404L14.5418 15.8413ZM6.29255 14.3527C6.29971 14.3597 6.30865 14.3676 6.31492 14.3755L6.32565 14.3861C7.39292 15.4325 8.86821 16.0808 10.4981 16.0808C12.1281 16.0808 13.6034 15.4334 14.6706 14.3861C15.7379 13.3396 16.399 11.8923 16.399 10.2939C16.399 8.69569 15.7388 7.24913 14.6706 6.20269C13.6033 5.1562 12.128 4.50797 10.4981 4.50797C8.86816 4.50797 7.39287 5.15532 6.32565 6.20269C5.25838 7.24918 4.59728 8.69641 4.59728 10.2939C4.59728 11.8755 5.24407 13.3079 6.29164 14.3517L6.29255 14.3527Z" fill="#1B2F62"/>
</svg>
