<svg width="200" height="241" viewBox="0 0 200 241" fill="none" xmlns="http://www.w3.org/2000/svg">
<g clip-path="url(#clip0_5_3452)">
<path d="M177.032 240.611H89.9565C77.291 240.611 66.9883 231.541 66.9883 220.392V20.2193C66.9883 9.0697 77.291 0 89.9565 0H177.032C189.697 0 200 9.0697 200 20.2193V220.392C200 231.541 189.697 240.611 177.032 240.611Z" fill="#DADBDC"/>
<path d="M177.095 235.137H89.8936C80.5196 235.137 72.8906 228.421 72.8906 220.169V20.0485C72.8906 11.7965 80.5196 5.08057 89.8936 5.08057H177.095C186.469 5.08057 194.098 11.7965 194.098 20.0485V220.169C194.098 228.421 186.469 235.137 177.095 235.137Z" fill="white"/>
<path d="M145.826 18.4013H121.167C117.911 18.4013 115.265 16.0714 115.265 13.2056C115.265 10.3398 117.911 8.00989 121.167 8.00989H145.826C149.081 8.00989 151.728 10.3398 151.728 13.2056C151.728 16.0714 149.081 18.4013 145.826 18.4013Z" fill="#DADBDC"/>
<path d="M170.99 79.5118H98.8348C97.4055 79.5118 96.2422 78.2098 96.2422 76.6142C96.2422 75.0186 97.4055 73.7167 98.8348 73.7167H170.99C172.42 73.7167 173.583 75.0186 173.583 76.6142C173.583 78.2098 172.42 79.5118 170.99 79.5118Z" fill="#FFED29"/>
<path d="M170.99 92.3522H98.8348C97.4055 92.3522 96.2422 91.0503 96.2422 89.4547C96.2422 87.859 97.4055 86.5571 98.8348 86.5571H170.99C172.42 86.5571 173.583 87.859 173.583 89.4547C173.583 91.0503 172.42 92.3522 170.99 92.3522Z" fill="#FFED29"/>
<path d="M150.299 105.193H98.8348C97.4055 105.193 96.2422 103.891 96.2422 102.295C96.2422 100.699 97.4055 99.3976 98.8348 99.3976H150.299C151.728 99.3976 152.892 100.699 152.892 102.295C152.892 103.891 151.728 105.193 150.299 105.193Z" fill="#FFED29"/>
<path d="M133.494 180.688C150.505 180.688 164.295 168.548 164.295 153.574C164.295 138.599 150.505 126.46 133.494 126.46C116.484 126.46 102.694 138.599 102.694 153.574C102.694 168.548 116.484 180.688 133.494 180.688Z" fill="#1B2F62"/>
<path d="M125.302 154.137C126.893 156.88 128.485 159.627 130.076 162.369C130.532 163.159 131.871 162.909 132.137 162.131C134.225 156.003 138.102 150.418 143.328 145.977C144.374 145.087 142.778 143.686 141.732 144.571C136.231 149.247 132.16 155.157 129.959 161.603L132.02 161.365C130.428 158.623 128.836 155.876 127.245 153.133C126.587 151.994 124.639 152.998 125.297 154.133H125.302V154.137Z" fill="white"/>
<path d="M50.4628 120.776L42.9961 123.018L42.8789 113.528L49.6738 113.461L50.4628 120.776Z" fill="#EB842A"/>
<path d="M43.7538 116.148C47.8775 116.148 51.2205 113.205 51.2205 109.575C51.2205 105.944 47.8775 103.002 43.7538 103.002C39.6301 103.002 36.2871 105.944 36.2871 109.575C36.2871 113.205 39.6301 116.148 43.7538 116.148Z" fill="#EB842A"/>
<path d="M45.7971 108.904C44.5481 108.884 43.714 107.781 43.2135 106.768C42.713 105.76 42.199 104.597 41.0402 104.188C40.0888 103.855 38.4476 106.185 37.6901 105.578C36.901 104.943 37.6225 101.632 38.4431 101.033C39.2637 100.434 40.3954 100.307 41.4595 100.251C44.0611 100.12 46.6763 100.279 49.2328 100.723C50.8109 100.997 52.4431 101.418 53.5929 102.41C55.0493 103.669 55.4415 105.586 55.5678 107.38C55.6985 109.214 55.5993 111.139 54.6074 112.758C53.6109 114.374 51.5053 115.58 49.4628 115.191C49.2463 114.219 49.4402 113.218 49.5079 112.226C49.5755 111.238 49.4763 110.17 48.7819 109.388C48.0876 108.606 46.6177 108.309 45.8286 109.015" fill="#2F2E43"/>
<path d="M55.0084 111.091C55.7479 110.603 56.6361 110.19 57.556 110.281C58.5524 110.376 59.4001 111.091 59.6661 111.94C59.9321 112.79 59.6571 113.73 59.0529 114.433C58.4487 115.136 57.5424 115.604 56.5775 115.842C56.0184 115.981 55.4097 116.041 54.8732 115.842C54.0841 115.552 53.6513 114.675 53.9489 113.969" fill="#2F2E43"/>
<path d="M27.2247 173.19C26.7557 175.353 27.6891 177.318 29.3168 177.576C30.94 177.834 32.6398 176.286 33.1087 174.122C33.3116 173.261 33.2665 172.368 32.978 171.522L38.7223 137.621L30.9851 136.419L28.4375 170.804C27.8153 171.507 27.396 172.324 27.2247 173.194V173.19Z" fill="#EB842A"/>
<path d="M42.861 118.664L37.5901 118.716C33.8703 119.248 32.8784 121.01 32.0758 124.249C30.8449 129.191 29.2758 135.776 29.6049 135.867C30.1325 136.018 39.1502 139.646 43.7132 138.749L42.861 118.664Z" fill="#1B2F62"/>
<path d="M49.3337 226.409L42.3184 226.478L42.4295 235.238L49.4449 235.169L49.3337 226.409Z" fill="#EB842A"/>
<path d="M35.6473 240.611C34.9078 240.619 34.254 240.611 33.758 240.575C31.8914 240.444 30.1013 239.25 29.1951 238.551C28.7893 238.237 28.654 237.729 28.8569 237.293C29.0012 236.979 29.2988 236.741 29.6685 236.642L34.5786 235.356L42.4917 230.541L42.5819 230.68C42.618 230.732 43.416 231.966 43.6866 232.803C43.7903 233.121 43.7677 233.387 43.6189 233.593C43.5152 233.736 43.3709 233.82 43.2537 233.871C43.398 234.002 43.8534 234.268 45.2512 234.451C47.2847 234.717 47.695 232.855 47.7085 232.776L47.722 232.712L47.7806 232.676C48.741 232.117 49.3317 231.863 49.5391 231.914C49.6698 231.946 49.8818 232.002 50.522 237.051C50.5806 237.209 51 238.368 50.7384 239.484C50.4544 240.698 44.4441 240.337 43.2447 240.254C43.2086 240.258 38.7178 240.583 35.6382 240.611H35.6473Z" fill="#2F2E43"/>
<path d="M69.2227 219.317L63.3115 222.643L68.6714 230.024L74.5826 226.698L69.2227 219.317Z" fill="#EB842A"/>
<path d="M61.5507 239.154C60.7256 239.162 59.9681 239.083 59.4271 239.004C58.895 238.924 58.4757 238.559 58.3855 238.091C58.3179 237.753 58.4306 237.416 58.6831 237.162L62.0738 233.784L65.8928 226.012L66.0551 226.088C66.1137 226.115 67.534 226.79 68.269 227.374C68.5485 227.596 68.6883 227.83 68.6883 228.076C68.6883 228.247 68.6161 228.386 68.544 228.481C68.7469 228.525 69.2925 228.537 70.5865 228.041C72.4712 227.318 71.7002 225.548 71.6641 225.476L71.6371 225.417L71.6686 225.361C72.1466 224.44 72.4983 223.948 72.7012 223.893C72.8319 223.861 73.0438 223.805 76.6239 227.79C76.7682 227.898 77.8232 228.684 78.2696 229.751C78.7566 230.914 73.4451 233.407 72.372 233.895C72.3405 233.919 66.79 237.551 64.5086 238.591C63.6023 239.004 62.5247 239.139 61.5417 239.146L61.5507 239.154Z" fill="#2F2E43"/>
<path d="M53.5605 153.085L33.9199 153.276L32.3418 169.375L40.8906 228.731L50.9183 228.632L46.4771 194.346L63.1329 225.179L71.9748 219.598L58.9081 190.789C58.9081 190.789 63.1284 165.541 59.4852 159.297C55.842 153.054 53.5651 153.078 53.5651 153.078V153.085H53.5605Z" fill="#2F2E43"/>
<path d="M63.3408 153.971L32.1484 154.276L41.058 118.684L54.6522 118.549L63.3408 153.971Z" fill="#1B2F62"/>
<path d="M66.389 172.809C66.9121 174.964 66.0283 176.944 64.4096 177.234C62.791 177.524 61.055 176.012 60.532 173.856C60.3066 172.999 60.3291 172.106 60.5951 171.253L53.9941 137.47L61.6998 136.117L65.113 170.447C65.7533 171.138 66.1906 171.947 66.389 172.813V172.809Z" fill="#EB842A"/>
<path d="M49.3808 118.601L54.6516 118.549C58.385 119.01 59.4175 120.752 60.3058 123.975C61.6584 128.893 63.3943 135.442 63.0697 135.541C62.5422 135.7 53.6236 139.503 49.0381 138.697L49.3853 118.601H49.3808Z" fill="#1B2F62"/>
<path d="M96.9768 240.611C96.9768 240.825 96.7784 241 96.5349 241H0.441869C0.19839 241 0 240.825 0 240.611C0 240.397 0.19839 240.222 0.441869 240.222H96.5349C96.7784 240.222 96.9768 240.397 96.9768 240.611Z" fill="#3F3D58"/>
</g>
<defs>
<clipPath id="clip0_5_3452">
<rect width="200" height="241" fill="white"/>
</clipPath>
</defs>
</svg>
