<svg width="18" height="18" viewBox="0 0 18 18" fill="none" xmlns="http://www.w3.org/2000/svg">
<path d="M1.79366 14.3325H3.81852C4.64068 14.3325 5.31154 13.6607 5.31154 12.8394V8.44936C5.31154 7.62716 4.63972 6.95626 3.81852 6.95626L3.1561 6.95532V6.84538C3.1561 3.628 5.7823 1.00166 8.99951 1.00166C12.2167 1.00166 14.8429 3.628 14.8429 6.84538V6.95532H14.1814C13.3593 6.95532 12.6884 7.62718 12.6884 8.44842V12.8385C12.6884 13.6607 13.3602 14.3316 14.1814 14.3316H14.8429V14.8324C14.8429 15.384 14.3919 15.8444 13.831 15.8444H11.4359C11.2255 15.1726 10.6044 14.6821 9.86209 14.6821H8.1379C7.22554 14.6821 6.4842 15.4338 6.4842 16.3462C6.4842 17.2586 7.22554 18 8.1379 18H9.86209C10.6034 18 11.2255 17.5189 11.4359 16.847H13.831C14.9435 16.847 15.8455 15.9346 15.8455 14.8324V14.3316H16.2063C17.1985 14.3316 18 13.5301 18 12.5378V8.74911C18 7.8367 17.2887 7.05491 16.4468 6.97504C16.3463 6.95531 16.2664 6.95531 16.2063 6.95531H15.8455L15.8446 6.84537C15.8446 3.06703 12.7777 2.1594e-07 8.99953 2.1594e-07C5.22139 -0.000939619 2.15452 3.06607 2.15452 6.84537V6.95531H1.79371C1.73357 6.95531 1.65371 6.95531 1.62364 6.96565C0.711275 7.05586 8.24662e-07 7.83765 8.24662e-07 8.75006V12.5387C-0.000938961 13.5301 0.801437 14.3325 1.79366 14.3325Z" fill="black"/>
</svg>
