<svg width="23" height="22" viewBox="0 0 23 22" fill="none" xmlns="http://www.w3.org/2000/svg">
<path d="M2.2919 17.5175H4.87922C5.92976 17.5175 6.78697 16.6964 6.78697 15.6926V10.327C6.78697 9.32208 5.92853 8.5021 4.87922 8.5021L4.03279 8.50095V8.36658C4.03279 4.43423 7.3885 1.22426 11.4994 1.22426C15.6103 1.22426 18.966 4.43423 18.966 8.36658V8.50095H18.1207C17.0702 8.50095 16.213 9.32211 16.213 10.3258V15.6915C16.213 16.6964 17.0714 17.5164 18.1207 17.5164H18.966V18.1285C18.966 18.8027 18.3897 19.3654 17.6729 19.3654H14.6126C14.3436 18.5442 13.5501 17.9448 12.6016 17.9448H10.3984C9.23263 17.9448 8.28536 18.8635 8.28536 19.9787C8.28536 21.0939 9.23263 22 10.3984 22H12.6016C13.5488 22 14.3436 21.412 14.6126 20.5908H17.6729C19.0944 20.5908 20.247 19.4757 20.247 18.1285V17.5164H20.7081C21.9759 17.5164 23 16.5368 23 15.324V10.6934C23 9.57819 22.0912 8.62266 21.0154 8.52505C20.8869 8.50094 20.7849 8.50094 20.7081 8.50094H20.247L20.2458 8.36657C20.2458 3.74859 16.327 2.63927e-07 11.4994 2.63927e-07C6.67177 -0.00114842 2.75299 3.74742 2.75299 8.36657V8.50094H2.29196C2.21512 8.50094 2.11307 8.50094 2.07465 8.51357C0.908851 8.62382 1.05373e-06 9.57935 1.05373e-06 10.6945V15.3251C-0.00119978 16.5368 1.02406 17.5175 2.2919 17.5175Z" fill="#F4F0E4"/>
</svg>
