<svg width="19" height="23" viewBox="0 0 19 23" fill="none" xmlns="http://www.w3.org/2000/svg">
<path d="M14.9092 0.900391C15.6038 0.900451 16.168 1.46456 16.168 2.15918V2.83203H16.8408C17.5354 2.83203 18.0995 3.39622 18.0996 4.09082V21.4775C18.0995 22.1721 17.5354 22.7363 16.8408 22.7363H4.09082C3.3963 22.7363 2.83216 22.172 2.83203 21.4775V20.8047H2.15918C1.46467 20.8047 0.900625 20.2404 0.900391 19.5459V2.15918C0.900391 1.46452 1.46452 0.900391 2.15918 0.900391H14.9092ZM2.15918 1.87305C2.00096 1.87305 1.87307 2.00096 1.87305 2.15918V19.5459C1.87321 19.704 2.00104 19.832 2.15918 19.832H3.31836C3.58698 19.8321 3.80469 20.0497 3.80469 20.3184V21.4775C3.80475 21.6357 3.93267 21.7636 4.09082 21.7637H16.8408C16.999 21.7637 17.1269 21.6357 17.127 21.4775V4.09082C17.1268 3.93276 16.9989 3.80471 16.8408 3.80469H8.72754C7.93093 3.80469 7.28238 4.45342 7.28223 5.25V6.02344C7.282 6.7179 6.71697 7.28223 6.02246 7.28223H5.25C4.45331 7.28223 3.80471 7.93085 3.80469 8.72754V18.3887C3.80173 18.5431 3.74101 18.6662 3.64648 18.749C3.55378 18.8301 3.43391 18.8678 3.31738 18.8672C3.20063 18.8665 3.08053 18.8275 2.98828 18.7461C2.89445 18.6633 2.83475 18.5413 2.83203 18.3887V7.95508C2.83203 5.13078 5.12976 2.83217 7.9541 2.83203H15.1953V2.15918C15.1953 2.001 15.0674 1.87311 14.9092 1.87305H2.15918ZM6.63672 4.02344C5.40393 4.43785 4.42867 5.41573 4.01855 6.65039C4.37924 6.43501 4.79955 6.30859 5.25 6.30859H6.02246C6.17947 6.30859 6.30761 6.18291 6.30957 6.02637L6.30176 5.74121C6.29789 5.45153 6.30692 5.14928 6.35352 4.85742C6.40023 4.56486 6.48511 4.27856 6.63672 4.02344Z" fill="#1B2F62" stroke="#1B2F62" stroke-width="0.2"/>
<path d="M13.7246 15.1963C13.8784 15.1987 14.0011 15.2582 14.084 15.3525C14.1653 15.4452 14.2032 15.5657 14.2031 15.6826C14.2031 15.7995 14.1644 15.9192 14.083 16.0117C14.0001 16.106 13.8782 16.1668 13.7246 16.1689H11.1455V19.832H14.8086V19.5771C14.8086 19.3086 15.0264 19.0911 15.2949 19.0908C15.5637 19.0908 15.7812 19.3085 15.7812 19.5771V20.3184C15.7812 20.5871 15.5636 20.8047 15.2949 20.8047H10.6592C10.3905 20.8047 10.1729 20.5871 10.1729 20.3184V15.6826C10.1729 15.4139 10.3905 15.1963 10.6592 15.1963H13.7246Z" fill="#1B2F62" stroke="#1B2F62" stroke-width="0.2"/>
<path d="M15.7031 15.9668C15.8259 15.9754 15.9379 16.0334 16.0205 16.1162C16.1032 16.1993 16.1616 16.3126 16.1699 16.4355C16.1762 16.5296 16.1533 16.6258 16.0957 16.7139L16.0264 16.7988L13.708 19.1172C13.5175 19.3065 13.2094 19.307 13.0195 19.1172L11.8604 17.958C11.7519 17.8487 11.7082 17.7193 11.7168 17.5938C11.7253 17.4708 11.7833 17.3582 11.8662 17.2754C11.9491 17.1927 12.0617 17.1345 12.1846 17.126C12.3102 17.1174 12.4398 17.1611 12.5488 17.2695L13.3633 18.084L15.3379 16.1104H15.3389C15.4485 16.0021 15.5775 15.9581 15.7031 15.9668Z" fill="#1B2F62" stroke="#1B2F62" stroke-width="0.2"/>
<path d="M15.6836 8.24121C15.8377 8.24393 15.9601 8.30399 16.043 8.39844C16.1242 8.4911 16.1624 8.61087 16.1621 8.72754C16.1617 8.84437 16.1224 8.96423 16.041 9.05664C15.9581 9.15074 15.8359 9.21152 15.6826 9.21387H7.17969C7.02569 9.21122 6.9032 9.15093 6.82031 9.05664C6.73895 8.96389 6.70082 8.84339 6.70117 8.72656C6.70154 8.60978 6.73998 8.48985 6.82129 8.39746C6.90416 8.30337 7.0265 8.24362 7.17969 8.24121H15.6836Z" fill="#1B2F62" stroke="#1B2F62" stroke-width="0.2"/>
<path d="M15.6836 10.5596C15.8376 10.5623 15.9601 10.6224 16.043 10.7168C16.1241 10.8094 16.1623 10.9292 16.1621 11.0459C16.1619 11.1627 16.1233 11.2826 16.042 11.375C15.9591 11.4691 15.8369 11.5298 15.6836 11.5322H9.49805C9.34415 11.5296 9.22155 11.4693 9.13867 11.375C9.05731 11.2823 9.01931 11.1618 9.01953 11.0449C9.01977 10.9281 9.05827 10.8083 9.13965 10.7158C9.22253 10.6217 9.34469 10.562 9.49805 10.5596H15.6836Z" fill="#1B2F62" stroke="#1B2F62" stroke-width="0.2"/>
<path d="M7.56934 10.5596C7.7232 10.5622 7.84583 10.6224 7.92871 10.7168C8.01 10.8094 8.04888 10.9291 8.04883 11.0459C8.04875 11.1626 8.00998 11.2825 7.92871 11.375C7.84577 11.4693 7.72302 11.5299 7.56934 11.5322H5.24805C5.09425 11.5296 4.97154 11.4693 4.88867 11.375C4.80731 11.2823 4.76946 11.1618 4.76953 11.0449C4.76965 10.9281 4.80829 10.8083 4.88965 10.7158C4.97254 10.6217 5.09458 10.562 5.24805 10.5596H7.56934Z" fill="#1B2F62" stroke="#1B2F62" stroke-width="0.2"/>
<path d="M15.6836 12.8779C15.8375 12.8806 15.9601 12.9408 16.043 13.0352C16.1243 13.1278 16.1631 13.2475 16.1631 13.3643C16.163 13.481 16.1242 13.6009 16.043 13.6934C15.96 13.7876 15.8373 13.8482 15.6836 13.8506H13.3623C13.2085 13.8479 13.0858 13.7877 13.0029 13.6934C12.9216 13.6007 12.8837 13.4801 12.8838 13.3633C12.8839 13.2465 12.9225 13.1266 13.0039 13.0342C13.0868 12.9401 13.2088 12.8803 13.3623 12.8779H15.6836Z" fill="#1B2F62" stroke="#1B2F62" stroke-width="0.2"/>
<path d="M11.4316 12.8779C11.7003 12.878 11.918 13.0956 11.918 13.3643C11.9178 13.6327 11.7002 13.8505 11.4316 13.8506H5.25C4.98142 13.8506 4.76386 13.6328 4.76367 13.3643C4.76367 13.0956 4.9813 12.8779 5.25 12.8779H11.4316Z" fill="#1B2F62" stroke="#1B2F62" stroke-width="0.2"/>
</svg>
