<svg width="23" height="24" viewBox="0 0 23 24" fill="none" xmlns="http://www.w3.org/2000/svg">
<path d="M9.45514 2.3506C9.34359 5.57629 8.96292 7.48776 7.13878 10.368C6.91085 9.96972 6.51179 9.69989 6.05677 9.69989H1.44012C0.738541 9.69989 0.157715 10.3369 0.157715 11.1064V21.2337C0.157715 22.0032 0.738541 22.6403 1.44012 22.6403H6.05677C6.49912 22.6403 6.89174 22.3874 7.12275 22.0073C7.38952 22.2431 7.63635 22.4548 7.89219 22.6227C8.31513 22.9002 8.79313 23.0671 9.44711 23.1414C10.755 23.2899 12.9012 23.1801 17.8549 23.2029C17.9712 23.2001 18.0864 23.1532 18.1755 23.071C19.1724 22.1791 19.6053 21.3248 19.8025 20.3634C19.8995 20.3306 19.9873 20.2655 20.051 20.1788C20.7965 19.1568 21.0662 17.9778 20.8926 16.9613C20.964 16.925 21.0276 16.8703 21.0769 16.803C21.9477 15.6826 22.1236 14.2478 21.8143 13.1635C22.3463 12.4735 22.5661 11.6639 22.4876 10.913C22.3622 9.96263 21.7329 9.00749 20.9326 8.85595H14.3283C14.7231 6.0067 14.4614 3.38811 13.5829 1.69129C13.1085 0.775248 12.4169 0.262638 11.7314 0.152841C10.5286 -0.0215724 9.55811 0.806133 9.45514 2.3506ZM11.3707 1.26051C11.8673 1.20366 12.421 1.62695 12.6931 2.2451C13.4433 3.69406 13.7546 6.40408 13.2462 9.31308C13.1897 9.63757 13.4499 9.9819 13.7511 9.9812H20.7883C21.1734 10.1979 21.4209 10.5709 21.4696 11.0361C21.5167 11.4867 21.3496 12.0166 20.9326 12.513H17.3338C17.0628 12.513 16.8128 12.7784 16.8128 13.0756C16.8128 13.3729 17.0628 13.6425 17.3338 13.6383H20.8684C21.0225 14.2597 20.9041 15.0867 20.3956 15.8888H17.3338C17.0628 15.8888 16.8128 16.1541 16.8128 16.4514C16.8128 16.7487 17.0628 17.0183 17.3338 17.014H19.8425C19.9965 17.6354 19.8781 18.4625 19.3696 19.2645H17.3338C17.0628 19.2645 16.8128 19.5299 16.8128 19.8272C16.8128 20.1244 17.0628 20.394 17.3338 20.3898H18.7525C18.5944 20.9917 18.305 21.4533 17.6384 22.0777C12.871 22.0596 10.6604 22.1421 9.55124 22.0161C8.9857 21.9519 8.72014 21.8607 8.42113 21.6645C8.15165 21.4876 7.82174 21.1758 7.33909 20.7502V11.9768C9.72254 8.65189 10.3631 5.85643 10.481 2.39457C10.6312 1.6404 10.9844 1.30476 11.3707 1.26051ZM1.44004 10.8251H6.05669C6.20766 10.8251 6.31317 10.9409 6.31317 11.1064V21.2337C6.31317 21.3993 6.20766 21.515 6.05669 21.515H1.44004C1.28908 21.515 1.18356 21.3993 1.18356 21.2337V11.1064C1.18356 10.9409 1.28908 10.8251 1.44004 10.8251ZM3.74837 17.8492C3.3234 17.8492 2.97892 18.227 2.97892 18.6931C2.97892 19.1592 3.3234 19.5371 3.74837 19.5371C4.1733 19.5371 4.51781 19.1592 4.51781 18.6931C4.51781 18.227 4.1733 17.8492 3.74837 17.8492Z" fill="#EB842A"/>
</svg>
