<svg width="16" height="17" viewBox="0 0 16 17" fill="none" xmlns="http://www.w3.org/2000/svg">
<path fill-rule="evenodd" clip-rule="evenodd" d="M4.81254 6.6387L12.6149 2.46729L10.8637 1.53084L3.06134 5.70226L4.81254 6.6387ZM13.0074 2.67665L15.8032 4.17122L8.00086 8.34263L5.205 6.84806L13.0074 2.67665ZM8.19423 15.2403V17L16 12.8272V11.0675L8.19423 15.2403ZM8.19423 8.65733L16 4.48453V10.6482L8.19423 14.821V8.65733ZM7.80581 17V15.2403L4.45903e-05 11.0675V12.8272L2.72736 14.2853C2.73645 14.2892 2.74554 14.2938 2.7538 14.2993L4.88936 15.4411C4.89845 15.445 4.90754 15.4496 4.91581 15.4551L7.80581 17ZM2.83885 8.58986V6.00227L4.61155 6.95033V9.53791L2.83885 8.58986ZM4.69751 10.0023C4.72892 10.0224 4.76611 10.0333 4.8066 10.0333C4.91404 10.0333 5.00081 9.95188 5.00081 9.8511V7.15814L7.80492 8.65737V14.821L0 10.649V4.48536L2.44952 5.79467V8.69541C2.44952 8.76828 2.49498 8.83107 2.56109 8.86053L4.69751 10.0023ZM7.99986 0L10.4718 1.32171L2.66943 5.49313L0.197479 4.17141L7.99986 0Z" fill="#EB842A"/>
</svg>
