<svg width="22" height="20" viewBox="0 0 22 20" fill="none" xmlns="http://www.w3.org/2000/svg">
<path d="M8.83255 1.92345C8.72658 4.71736 8.36495 6.37296 6.63201 8.86766C6.41548 8.52269 6.03637 8.28898 5.6041 8.28898H1.21828C0.551784 8.28898 0 8.84076 0 9.50726V18.2789C0 18.9454 0.551784 19.4972 1.21828 19.4972H5.6041C6.02433 19.4972 6.39732 19.2781 6.61679 18.949C6.87021 19.1532 7.10471 19.3365 7.34775 19.482C7.74954 19.7223 8.20365 19.8669 8.82492 19.9312C10.0674 20.0599 12.1063 19.9648 16.8123 19.9845C16.9228 19.9821 17.0322 19.9414 17.1169 19.8703C18.0639 19.0978 18.4752 18.3578 18.6626 17.5251C18.7547 17.4967 18.8381 17.4403 18.8986 17.3652C19.6068 16.48 19.8631 15.4588 19.6981 14.5784C19.766 14.547 19.8264 14.4996 19.8732 14.4413C20.7005 13.4708 20.8675 12.2281 20.5737 11.289C21.0791 10.6913 21.288 9.99009 21.2133 9.33975C21.0943 8.51655 20.4964 7.68927 19.7362 7.55801H13.462C13.8371 5.09016 13.5885 2.82208 12.7539 1.3524C12.3033 0.558978 11.6463 0.114984 10.995 0.0198853C9.85235 -0.131182 8.93038 0.585729 8.83255 1.92345ZM10.6523 0.979283C11.1241 0.93004 11.6501 1.29667 11.9086 1.83208C12.6213 3.08708 12.9171 5.43435 12.434 7.95395C12.3804 8.23501 12.6276 8.53324 12.9137 8.53263H19.599C19.9649 8.72032 20.2 9.04341 20.2463 9.44635C20.2911 9.83664 20.1323 10.2955 19.7361 10.7255H16.3173C16.0598 10.7255 15.8224 10.9554 15.8224 11.2129C15.8224 11.4704 16.0599 11.7038 16.3173 11.7002H19.6752C19.8215 12.2384 19.709 12.9548 19.226 13.6494H16.3173C16.0598 13.6494 15.8224 13.8793 15.8224 14.1367C15.8224 14.3942 16.0599 14.6277 16.3173 14.624H18.7006C18.8469 15.1623 18.7344 15.8786 18.2513 16.5733H16.3173C16.0598 16.5733 15.8224 16.8032 15.8224 17.0606C15.8224 17.3181 16.0599 17.5516 16.3173 17.5479H17.665C17.5148 18.0693 17.24 18.4691 16.6067 19.0099C12.0776 18.9943 9.97756 19.0657 8.92385 18.9566C8.38658 18.9009 8.1343 18.822 7.85025 18.652C7.59424 18.4988 7.28082 18.2287 6.82231 17.8601V10.2611C9.08659 7.38127 9.69507 4.96 9.8071 1.96154C9.94976 1.30832 10.2853 1.01761 10.6523 0.979283ZM1.21821 9.2636H5.60403C5.74744 9.2636 5.84768 9.36385 5.84768 9.50726V18.2789C5.84768 18.4223 5.74744 18.5226 5.60403 18.5226H1.21821C1.07479 18.5226 0.974553 18.4223 0.974553 18.2789V9.50726C0.974553 9.36385 1.07479 9.2636 1.21821 9.2636ZM3.41112 15.3474C3.0074 15.3474 2.68015 15.6747 2.68015 16.0784C2.68015 16.4821 3.0074 16.8094 3.41112 16.8094C3.81481 16.8094 4.14209 16.4821 4.14209 16.0784C4.14209 15.6747 3.81481 15.3474 3.41112 15.3474Z" fill="#EB842A"/>
</svg>
