<svg width="22" height="18" viewBox="0 0 22 18" fill="none" xmlns="http://www.w3.org/2000/svg">
<path d="M10.9993 16.9839H20.968V13.4687H1.03172V16.9839H11.0004H10.9993ZM20.968 12.4523V6.67783H13.9386V9.4942C13.9386 9.7753 13.7079 10.0028 13.4228 10.0028H8.5767C8.29252 10.0028 8.06094 9.77533 8.06094 9.4942V6.67783H1.03154V12.4523H20.968ZM13.9386 5.66058H20.525L17.4049 1.01829H13.9393V5.66058H13.9386ZM12.9071 1.01829H9.09161V8.98535H12.9071V1.01829ZM8.06094 1.01829H4.59531L1.47524 5.66058H8.06162V1.01829H8.06094ZM21.4836 18H0.515759C0.230698 18 0 17.7725 0 17.4914V6.16812H0.00175437C0.00175437 6.07211 0.0289446 5.97437 0.0877127 5.88787L3.87243 0.256903C3.96102 0.103804 4.12855 0 4.32065 0H17.6802V0.00173014C17.8469 0.00173014 18.01 0.0813077 18.1091 0.229205L21.8939 5.86018C21.9597 5.94581 22 6.05306 22 6.1681V17.4914C22 17.7725 21.7693 18 21.4842 18L21.4836 18Z" fill="#3DA741"/>
</svg>
