<svg width="23" height="23" viewBox="0 0 23 23" fill="none" xmlns="http://www.w3.org/2000/svg">
<g clip-path="url(#clip0_37_1804)">
<path d="M11.4997 4.3125C6.70801 4.3125 2.61592 7.29292 0.958008 11.5C2.61592 15.7071 6.70801 18.6875 11.4997 18.6875C16.2913 18.6875 20.3834 15.7071 22.0413 11.5C20.3834 7.29292 16.2913 4.3125 11.4997 4.3125ZM11.4997 16.2917C8.85467 16.2917 6.70801 14.145 6.70801 11.5C6.70801 8.855 8.85467 6.70833 11.4997 6.70833C14.1447 6.70833 16.2913 8.855 16.2913 11.5C16.2913 14.145 14.1447 16.2917 11.4997 16.2917ZM11.4997 8.625C9.90884 8.625 8.62467 9.90917 8.62467 11.5C8.62467 13.0908 9.90884 14.375 11.4997 14.375C13.0905 14.375 14.3747 13.0908 14.3747 11.5C14.3747 9.90917 13.0905 8.625 11.4997 8.625Z" fill="#1B2F62"/>
</g>
<defs>
<clipPath id="clip0_37_1804">
<rect width="23" height="23" fill="white"/>
</clipPath>
</defs>
</svg>
