<svg width="16" height="16" viewBox="0 0 16 16" fill="none" xmlns="http://www.w3.org/2000/svg">
<path d="M8.00148 0C7.23595 0 6.47042 0.410752 6.04331 1.23002L0.295621 12.2481C-0.559895 13.8891 0.546937 16 2.26263 16H13.7374C15.4531 16 16.5599 13.8891 15.7044 12.2481L9.95965 1.23002C9.53254 0.410752 8.767 0 8.00148 0ZM8.00148 1.28208C8.35555 1.28208 8.70749 1.48557 8.91863 1.89058L14.6634 12.9087C15.0879 13.723 14.5888 14.6789 13.7374 14.6789H2.26263C1.41124 14.6789 0.912092 13.723 1.33663 12.9087L7.08138 1.89058C7.29252 1.48557 7.64742 1.28208 8.00148 1.28208Z" fill="black"/>
<path d="M8.90424 6.04866C8.90424 6.18637 8.87961 6.32274 8.83176 6.44997C8.78391 6.5772 8.71379 6.69279 8.62537 6.79017C8.53696 6.88754 8.432 6.96479 8.31648 7.01749C8.20097 7.07019 8.07716 7.09732 7.95213 7.09732C7.82709 7.09732 7.70328 7.07019 7.58776 7.01749C7.47224 6.96479 7.36728 6.88754 7.27887 6.79017C7.19046 6.69279 7.12033 6.5772 7.07248 6.44997C7.02463 6.32274 7 6.18637 7 6.04866C7 5.91094 7.02463 5.77458 7.07248 5.64735C7.12033 5.52012 7.19046 5.40453 7.27887 5.30715C7.36728 5.20977 7.47224 5.13253 7.58776 5.07983C7.70328 5.02712 7.82709 5 7.95213 5C8.07716 5 8.20097 5.02712 8.31648 5.07983C8.432 5.13253 8.53696 5.20977 8.62537 5.30715C8.71379 5.40453 8.78391 5.52012 8.83176 5.64735C8.87961 5.77458 8.90424 5.91094 8.90424 6.04866Z" fill="black"/>
<path d="M7 6L7.46038 13H8.5396L9 6H7Z" fill="black"/>
<circle cx="12.0968" cy="3.09677" r="3.09677" fill="#D83F3F"/>
</svg>
