<svg width="23" height="23" viewBox="0 0 23 23" fill="none" xmlns="http://www.w3.org/2000/svg">
<path d="M11.0362 0C9.98031 0 8.92443 0.57056 8.33534 1.70857L0.40774 17.0134C-0.772244 19.2929 0.754372 22.225 3.12078 22.225H18.9475C21.3139 22.225 22.8405 19.2929 21.6605 17.0134L13.737 1.70857C13.1479 0.57056 12.092 0 11.0362 0ZM11.0362 1.78089C11.5245 1.78089 12.0099 2.06354 12.3012 2.62614L20.2247 17.931C20.8103 19.0621 20.1218 20.3899 18.9475 20.3899H3.12078C1.94648 20.3899 1.25802 19.0621 1.84357 17.931L9.76711 2.62614C10.0583 2.06354 10.5478 1.78089 11.0362 1.78089Z" fill="#B62A2A"/>
<path d="M12.3472 8.48595C12.3472 8.67724 12.3132 8.86666 12.2472 9.0434C12.1812 9.22013 12.0845 9.38069 11.9625 9.51595C11.8406 9.65121 11.6958 9.75851 11.5365 9.83172C11.3772 9.90492 11.2064 9.9426 11.0339 9.9426C10.8615 9.9426 10.6907 9.90492 10.5314 9.83172C10.3721 9.75851 10.2273 9.65121 10.1053 9.51595C9.98339 9.38069 9.88667 9.22013 9.82068 9.0434C9.75468 8.86666 9.7207 8.67724 9.7207 8.48595C9.7207 8.29466 9.75468 8.10523 9.82068 7.9285C9.88667 7.75177 9.98339 7.59121 10.1053 7.45595C10.2273 7.32068 10.3721 7.21338 10.5314 7.14018C10.6907 7.06698 10.8615 7.0293 11.0339 7.0293C11.2064 7.0293 11.3772 7.06698 11.5365 7.14018C11.6958 7.21338 11.8406 7.32068 11.9625 7.45595C12.0845 7.59121 12.1812 7.75177 12.2472 7.9285C12.3132 8.10523 12.3472 8.29466 12.3472 8.48595Z" fill="#B62A2A"/>
<path d="M11.7424 14.496C11.7424 14.7045 11.6678 14.9044 11.5349 15.0518C11.402 15.1992 11.2218 15.282 11.0338 15.282C10.8459 15.282 10.6656 15.1992 10.5328 15.0518C10.3999 14.9044 10.3252 14.7045 10.3252 14.496C10.3252 14.2875 10.3999 14.0876 10.5328 13.9402C10.6656 13.7928 10.8459 13.71 11.0338 13.71C11.2218 13.71 11.402 13.7928 11.5349 13.9402C11.6678 14.0876 11.7424 14.2875 11.7424 14.496Z" fill="#B62A2A"/>
<path d="M9.7207 8.48584L10.3253 14.4958H11.7425L12.3472 8.48584H9.7207Z" fill="#B62A2A"/>
<path d="M11.9615 17.0693C11.9615 17.2044 11.9375 17.3382 11.8908 17.463C11.8442 17.5879 11.7759 17.7013 11.6898 17.7968C11.6037 17.8923 11.5014 17.9681 11.3889 18.0198C11.2764 18.0715 11.1558 18.0981 11.034 18.0981C10.788 18.0981 10.552 17.9897 10.3781 17.7968C10.2042 17.6039 10.1064 17.3422 10.1064 17.0693C10.1064 16.7965 10.2042 16.5348 10.3781 16.3419C10.552 16.1489 10.788 16.0405 11.034 16.0405C11.1558 16.0405 11.2764 16.0671 11.3889 16.1189C11.5014 16.1706 11.6037 16.2463 11.6898 16.3419C11.7759 16.4374 11.8442 16.5508 11.8908 16.6756C11.9375 16.8004 11.9615 16.9342 11.9615 17.0693Z" fill="#B62A2A"/>
</svg>
