<svg width="17" height="21" viewBox="0 0 17 21" fill="none" xmlns="http://www.w3.org/2000/svg">
<path d="M15.4062 0H1.59382C0.715228 0 0 0.706793 0 1.57502V20.4753C0 20.6593 0.0976209 20.8306 0.257994 20.9251C0.418373 21.0196 0.615595 21.0246 0.780969 20.9379L2.52621 20.0195L4.27145 20.9379C4.42784 21.0196 4.61513 21.0206 4.7715 20.9379L6.51274 20.0195L8.25397 20.9379C8.33167 20.9793 8.41834 20.9999 8.504 20.9999C8.58967 20.9999 8.67633 20.9793 8.75403 20.9379L10.4953 20.0195L12.2365 20.9379C12.3929 21.0206 12.5802 21.0206 12.7366 20.9379L14.4778 20.0195L16.219 20.9379C16.3844 21.0255 16.5826 21.0196 16.742 20.9251C16.9024 20.8296 17 20.6593 17 20.4753V1.57502C17 0.706793 16.2848 0 15.4062 0ZM5.82444 3.75535C6.53668 2.97374 7.75693 2.95012 8.50001 3.68447C9.24313 2.95011 10.4634 2.97375 11.1756 3.75535C11.843 4.48873 11.7394 5.63552 11.0341 6.33334L9.25403 8.09245C8.83764 8.50392 8.16327 8.50392 7.74686 8.09245L5.96676 6.33334C5.26051 5.63542 5.1569 4.4886 5.82531 3.75535H5.82444ZM10.0938 17.3252H4.24949C3.95664 17.3252 3.71856 17.0899 3.71856 16.8005C3.71856 16.5111 3.95664 16.2759 4.24949 16.2759H10.0938C10.3867 16.2759 10.6248 16.5111 10.6248 16.8005C10.6248 17.0899 10.3867 17.3252 10.0938 17.3252ZM12.7505 14.7009H4.25051C3.95766 14.7009 3.71958 14.4656 3.71958 14.1762C3.71958 13.8868 3.95766 13.6515 4.25051 13.6515H12.7505C13.0434 13.6515 13.2815 13.8868 13.2815 14.1762C13.2815 14.4656 13.0434 14.7009 12.7505 14.7009ZM12.7505 12.0755H4.25051C3.95766 12.0755 3.71958 11.8402 3.71958 11.5508C3.71958 11.2614 3.95766 11.0261 4.25051 11.0261H12.7505C13.0434 11.0261 13.2815 11.2614 13.2815 11.5508C13.2815 11.8402 13.0434 12.0755 12.7505 12.0755Z" fill="white"/>
</svg>
