<svg width="21" height="15" viewBox="0 0 21 15" fill="none" xmlns="http://www.w3.org/2000/svg">
<path d="M3.87931 0C1.73914 0 0 1.73914 0 3.87931V11.1207C0 13.2609 1.73914 15 3.87931 15H16.8103C18.9505 15 20.6896 13.2609 20.6896 11.1207V3.87931C20.6896 1.73914 18.9505 0 16.8103 0H3.87931ZM3.87931 1.03448H16.8103C18.3953 1.03448 19.6552 2.29435 19.6552 3.87931V11.1207C19.6552 12.7057 18.3953 13.9655 16.8103 13.9655H3.87931C2.29435 13.9655 1.03448 12.7057 1.03448 11.1207V3.87931C1.03448 2.29435 2.29435 1.03448 3.87931 1.03448ZM8.27585 4.39655V10.6034L13.4483 7.49999L8.27585 4.39655Z" fill="#1B2F62"/>
</svg>
