<svg width="25" height="24" viewBox="0 0 25 24" fill="none" xmlns="http://www.w3.org/2000/svg">
<g clip-path="url(#clip0_1362_4520)">
<path d="M4.5 4H10.5V10H4.5V4Z" fill="url(#paint0_linear_1362_4520)" stroke="url(#paint1_linear_1362_4520)" stroke-width="2" stroke-linecap="round" stroke-linejoin="round"/>
<path d="M14.5 4H20.5V10H14.5V4Z" fill="url(#paint2_linear_1362_4520)" stroke="url(#paint3_linear_1362_4520)" stroke-width="2" stroke-linecap="round" stroke-linejoin="round"/>
<path d="M4.5 14H10.5V20H4.5V14Z" fill="url(#paint4_linear_1362_4520)" stroke="url(#paint5_linear_1362_4520)" stroke-width="2" stroke-linecap="round" stroke-linejoin="round"/>
<path d="M14.5 17C14.5 17.7956 14.8161 18.5587 15.3787 19.1213C15.9413 19.6839 16.7044 20 17.5 20C18.2956 20 19.0587 19.6839 19.6213 19.1213C20.1839 18.5587 20.5 17.7956 20.5 17C20.5 16.2044 20.1839 15.4413 19.6213 14.8787C19.0587 14.3161 18.2956 14 17.5 14C16.7044 14 15.9413 14.3161 15.3787 14.8787C14.8161 15.4413 14.5 16.2044 14.5 17Z" fill="url(#paint6_linear_1362_4520)" stroke="url(#paint7_linear_1362_4520)" stroke-width="2" stroke-linecap="round" stroke-linejoin="round"/>
</g>
<defs>
<linearGradient id="paint0_linear_1362_4520" x1="7.26364" y1="4" x2="10.691" y2="6.79081" gradientUnits="userSpaceOnUse">
<stop stop-color="#0F1A36"/>
<stop offset="1" stop-color="#1B2F62"/>
</linearGradient>
<linearGradient id="paint1_linear_1362_4520" x1="7.26364" y1="4" x2="10.691" y2="6.79081" gradientUnits="userSpaceOnUse">
<stop stop-color="#0F1A36"/>
<stop offset="1" stop-color="#1B2F62"/>
</linearGradient>
<linearGradient id="paint2_linear_1362_4520" x1="17.2636" y1="4" x2="20.691" y2="6.79081" gradientUnits="userSpaceOnUse">
<stop stop-color="#0F1A36"/>
<stop offset="1" stop-color="#1B2F62"/>
</linearGradient>
<linearGradient id="paint3_linear_1362_4520" x1="17.2636" y1="4" x2="20.691" y2="6.79081" gradientUnits="userSpaceOnUse">
<stop stop-color="#0F1A36"/>
<stop offset="1" stop-color="#1B2F62"/>
</linearGradient>
<linearGradient id="paint4_linear_1362_4520" x1="7.26364" y1="14" x2="10.691" y2="16.7908" gradientUnits="userSpaceOnUse">
<stop stop-color="#0F1A36"/>
<stop offset="1" stop-color="#1B2F62"/>
</linearGradient>
<linearGradient id="paint5_linear_1362_4520" x1="7.26364" y1="14" x2="10.691" y2="16.7908" gradientUnits="userSpaceOnUse">
<stop stop-color="#0F1A36"/>
<stop offset="1" stop-color="#1B2F62"/>
</linearGradient>
<linearGradient id="paint6_linear_1362_4520" x1="17.2636" y1="14" x2="20.691" y2="16.7908" gradientUnits="userSpaceOnUse">
<stop stop-color="#0F1A36"/>
<stop offset="1" stop-color="#1B2F62"/>
</linearGradient>
<linearGradient id="paint7_linear_1362_4520" x1="17.2636" y1="14" x2="20.691" y2="16.7908" gradientUnits="userSpaceOnUse">
<stop stop-color="#0F1A36"/>
<stop offset="1" stop-color="#1B2F62"/>
</linearGradient>
<clipPath id="clip0_1362_4520">
<rect width="24" height="24" fill="white" transform="translate(0.5)"/>
</clipPath>
</defs>
</svg>
