<svg width="40" height="40" viewBox="0 0 40 40" fill="none" xmlns="http://www.w3.org/2000/svg">
<rect width="40" height="40" rx="20" fill="url(#paint0_linear_1307_7748)"/>
<g clip-path="url(#clip0_1307_7748)">
<path d="M12.929 12.9293C13.8532 11.9814 14.9564 11.2264 16.1746 10.7082C17.3929 10.1899 18.7019 9.91875 20.0257 9.91036C21.3496 9.90197 22.6619 10.1565 23.8866 10.6593C25.1113 11.162 26.224 11.903 27.1602 12.8391C28.0963 13.7752 28.8372 14.8879 29.34 16.1126C29.8427 17.3373 30.0973 18.6497 30.0889 19.9735C30.0805 21.2974 29.8093 22.6064 29.2911 23.8246C28.7729 25.0429 28.0179 26.1461 27.07 27.0703C25.184 28.8918 22.6579 29.8998 20.036 29.877C17.414 29.8542 14.9059 28.8025 13.0518 26.9485C11.1977 25.0944 10.146 22.5862 10.1232 19.9643C10.1005 17.3423 11.1084 14.8163 12.93 12.9303L12.929 12.9293ZM21 17.0003C21 16.735 20.8946 16.4807 20.7071 16.2932C20.5196 16.1056 20.2652 16.0003 20 16.0003C19.7348 16.0003 19.4804 16.1056 19.2929 16.2932C19.1053 16.4807 19 16.735 19 17.0003V19.0003H17C16.7348 19.0003 16.4804 19.1056 16.2929 19.2932C16.1053 19.4807 16 19.735 16 20.0003C16 20.2655 16.1053 20.5198 16.2929 20.7074C16.4804 20.8949 16.7348 21.0003 17 21.0003H19V23.0003C19 23.2655 19.1053 23.5198 19.2929 23.7074C19.4804 23.8949 19.7348 24.0003 20 24.0003C20.2652 24.0003 20.5196 23.8949 20.7071 23.7074C20.8946 23.5198 21 23.2655 21 23.0003V21.0003H23C23.2652 21.0003 23.5196 20.8949 23.7071 20.7074C23.8946 20.5198 24 20.2655 24 20.0003C24 19.735 23.8946 19.4807 23.7071 19.2932C23.5196 19.1056 23.2652 19.0003 23 19.0003H21V17.0003Z" fill="white"/>
</g>
<defs>
<linearGradient id="paint0_linear_1307_7748" x1="18.4242" y1="1.397e-06" x2="41.2736" y2="18.6054" gradientUnits="userSpaceOnUse">
<stop stop-color="#0F1A36"/>
<stop offset="1" stop-color="#1B2F62"/>
</linearGradient>
<clipPath id="clip0_1307_7748">
<rect width="24" height="24" fill="white" transform="translate(8 8)"/>
</clipPath>
</defs>
</svg>
