<svg width="30" height="30" viewBox="0 0 30 30" fill="none" xmlns="http://www.w3.org/2000/svg">
<g clip-path="url(#clip0_205_2590)">
<path d="M3.75 7.75H2.75V9.75H3.75V8.75V7.75ZM12.5 3.75V2.75V3.75ZM15 6.25H14H15ZM21.25 9.75H22.25V7.75H21.25V8.75V9.75ZM22.25 10V9H20.25V10H21.25H22.25ZM20.25 25V26H22.25V25H21.25H20.25ZM21.25 27.25H22.25V25.25H21.25V26.25V27.25ZM10.7322 25.25C10.1799 25.25 9.73223 25.6977 9.73223 26.25C9.73223 26.8023 10.1799 27.25 10.7322 27.25V26.25V25.25ZM11.25 27.25C11.8023 27.25 12.25 26.8023 12.25 26.25C12.25 25.6977 11.8023 25.25 11.25 25.25V26.25V27.25ZM5 25.25H4V27.25H5V26.25V25.25ZM2.75 26.25V27.25H4.75V26.25H3.75H2.75ZM8.75 17.5H9.75H8.75ZM3.75 13.75H2.75H3.75ZM4.75 10V9H2.75V10H3.75H4.75ZM3.75 8.75V9.75H8.75V8.75V7.75H3.75V8.75ZM8.75 8.75V9.75C9.34674 9.75 9.91903 9.51295 10.341 9.09099L9.63388 8.38388L8.92678 7.67678C8.87989 7.72366 8.8163 7.75 8.75 7.75V8.75ZM9.63388 8.38388L10.341 9.09099C10.7629 8.66903 11 8.09674 11 7.5H10H9C9 7.5663 8.97366 7.62989 8.92678 7.67678L9.63388 8.38388ZM10 7.5H11V6.25H10H9V7.5H10ZM10 6.25H11C11 5.85218 11.158 5.47064 11.4393 5.18934L10.7322 4.48223L10.0251 3.77513C9.36875 4.4315 9 5.32174 9 6.25H10ZM10.7322 4.48223L11.4393 5.18934C11.7206 4.90804 12.1022 4.75 12.5 4.75V3.75V2.75C11.5717 2.75 10.6815 3.11875 10.0251 3.77513L10.7322 4.48223ZM12.5 3.75V4.75C12.8978 4.75 13.2794 4.90804 13.5607 5.18934L14.2678 4.48223L14.9749 3.77513C14.3185 3.11875 13.4283 2.75 12.5 2.75V3.75ZM14.2678 4.48223L13.5607 5.18934C13.842 5.47064 14 5.85218 14 6.25H15H16C16 5.32174 15.6313 4.4315 14.9749 3.77513L14.2678 4.48223ZM15 6.25H14V7.5H15H16V6.25H15ZM15 7.5H14C14 8.09674 14.2371 8.66903 14.659 9.09099L15.3661 8.38388L16.0732 7.67678C16.0263 7.62989 16 7.5663 16 7.5H15ZM15.3661 8.38388L14.659 9.09099C15.081 9.51295 15.6533 9.75 16.25 9.75V8.75V7.75C16.1837 7.75 16.1201 7.72366 16.0732 7.67678L15.3661 8.38388ZM16.25 8.75V9.75H21.25V8.75V7.75H16.25V8.75ZM21.25 10H20.25V13.75H21.25H22.25V10H21.25ZM21.25 13.75H20.25C20.25 14.3467 20.4871 14.919 20.909 15.341L21.6161 14.6339L22.3232 13.9268C22.2763 13.8799 22.25 13.8163 22.25 13.75H21.25ZM21.6161 14.6339L20.909 15.341C21.331 15.7629 21.9033 16 22.5 16V15V14C22.4337 14 22.3701 13.9737 22.3232 13.9268L21.6161 14.6339ZM22.5 15V16H23.75V15V14H22.5V15ZM23.75 15V16C24.1478 16 24.5294 16.158 24.8107 16.4393L25.5178 15.7322L26.2249 15.0251C25.5685 14.3687 24.6783 14 23.75 14V15ZM25.5178 15.7322L24.8107 16.4393C25.092 16.7206 25.25 17.1022 25.25 17.5H26.25H27.25C27.25 16.5717 26.8813 15.6815 26.2249 15.0251L25.5178 15.7322ZM26.25 17.5H25.25C25.25 17.8978 25.092 18.2794 24.8107 18.5607L25.5178 19.2678L26.2249 19.9749C26.8813 19.3185 27.25 18.4283 27.25 17.5H26.25ZM25.5178 19.2678L24.8107 18.5607C24.5294 18.842 24.1478 19 23.75 19V20V21C24.6783 21 25.5685 20.6313 26.2249 19.9749L25.5178 19.2678ZM23.75 20V19H22.5V20V21H23.75V20ZM22.5 20V19C21.9033 19 21.331 19.2371 20.909 19.659L21.6161 20.3661L22.3232 21.0732C22.3701 21.0263 22.4337 21 22.5 21V20ZM21.6161 20.3661L20.909 19.659C20.487 20.081 20.25 20.6533 20.25 21.25H21.25H22.25C22.25 21.1837 22.2763 21.1201 22.3232 21.0732L21.6161 20.3661ZM21.25 21.25H20.25V25H21.25H22.25V21.25H21.25ZM21.25 26.25V25.25H10.7322V26.25V27.25H21.25V26.25ZM11.25 26.25V25.25H5V26.25V27.25H11.25V26.25ZM3.75 26.25H4.75V21.25H3.75H2.75V26.25H3.75ZM3.75 21.25H4.75C4.75 21.1837 4.77634 21.1201 4.82322 21.0732L4.11612 20.3661L3.40901 19.659C2.98705 20.081 2.75 20.6533 2.75 21.25H3.75ZM4.11612 20.3661L4.82322 21.0732C4.87011 21.0263 4.93369 21 5 21V20V19C4.40326 19 3.83097 19.2371 3.40901 19.659L4.11612 20.3661ZM5 20V21H6.25V20V19H5V20ZM6.25 20V21C7.17826 21 8.0685 20.6313 8.72487 19.9749L8.01777 19.2678L7.31066 18.5607C7.02936 18.842 6.64782 19 6.25 19V20ZM8.01777 19.2678L8.72487 19.9749C9.38125 19.3185 9.75 18.4283 9.75 17.5H8.75H7.75C7.75 17.8978 7.59196 18.2794 7.31066 18.5607L8.01777 19.2678ZM8.75 17.5H9.75C9.75 16.5717 9.38125 15.6815 8.72487 15.0251L8.01777 15.7322L7.31066 16.4393C7.59196 16.7206 7.75 17.1022 7.75 17.5H8.75ZM8.01777 15.7322L8.72487 15.0251C8.0685 14.3687 7.17826 14 6.25 14V15V16C6.64782 16 7.02936 16.158 7.31066 16.4393L8.01777 15.7322ZM6.25 15V14H5V15V16H6.25V15ZM5 15V14C4.9337 14 4.87011 13.9737 4.82322 13.9268L4.11612 14.6339L3.40901 15.341C3.83097 15.7629 4.40326 16 5 16V15ZM4.11612 14.6339L4.82322 13.9268C4.77634 13.8799 4.75 13.8163 4.75 13.75H3.75H2.75C2.75 14.3467 2.98705 14.919 3.40901 15.341L4.11612 14.6339ZM3.75 13.75H4.75V10H3.75H2.75V13.75H3.75Z" fill="#1B2F62"/>
</g>
<defs>
<clipPath id="clip0_205_2590">
<rect width="30" height="30" fill="white"/>
</clipPath>
</defs>
</svg>
