<svg width="25" height="24" viewBox="0 0 25 24" fill="none" xmlns="http://www.w3.org/2000/svg">
<g clip-path="url(#clip0_1373_2624)">
<path d="M20 12.5717L12.5 19.9997L5 12.5717C4.5053 12.0903 4.11564 11.5117 3.85554 10.8723C3.59545 10.2329 3.47056 9.54664 3.48873 8.85662C3.50691 8.1666 3.66776 7.48782 3.96115 6.86303C4.25455 6.23823 4.67413 5.68094 5.19348 5.22627C5.71283 4.77159 6.3207 4.42938 6.97881 4.22117C7.63691 4.01296 8.331 3.94327 9.01736 4.01649C9.70373 4.08971 10.3675 4.30425 10.9669 4.64659C11.5662 4.98894 12.0882 5.45169 12.5 6.00569C12.9135 5.45571 13.4361 4.99701 14.0351 4.65829C14.6341 4.31958 15.2965 4.10814 15.9809 4.03721C16.6654 3.96628 17.3571 4.03739 18.0128 4.24608C18.6685 4.45477 19.274 4.79656 19.7915 5.25005C20.3091 5.70354 20.7274 6.25897 21.0204 6.88158C21.3134 7.50419 21.4747 8.18057 21.4943 8.8684C21.5139 9.55622 21.3913 10.2407 21.1341 10.8789C20.877 11.5172 20.4909 12.0955 20 12.5777" fill="#D9D9D9"/>
<path d="M20 12.5717L12.5 19.9997L5 12.5717C4.5053 12.0903 4.11564 11.5117 3.85554 10.8723C3.59545 10.2329 3.47056 9.54664 3.48873 8.85662C3.50691 8.1666 3.66776 7.48782 3.96115 6.86303C4.25455 6.23823 4.67413 5.68094 5.19348 5.22627C5.71283 4.77159 6.3207 4.42938 6.97881 4.22117C7.63691 4.01296 8.331 3.94327 9.01736 4.01649C9.70373 4.08971 10.3675 4.30425 10.9669 4.64659C11.5662 4.98894 12.0882 5.45169 12.5 6.00569C12.9135 5.45571 13.4361 4.99701 14.0351 4.65829C14.6341 4.31958 15.2965 4.10814 15.9809 4.03721C16.6654 3.96628 17.3571 4.03739 18.0128 4.24608C18.6685 4.45477 19.274 4.79656 19.7915 5.25005C20.3091 5.70354 20.7274 6.25897 21.0204 6.88158C21.3134 7.50419 21.4747 8.18057 21.4943 8.8684C21.5139 9.55622 21.3913 10.2407 21.1341 10.8789C20.877 11.5172 20.4909 12.0955 20 12.5777" fill="url(#paint0_linear_1373_2624)"/>
<path d="M20 12.5717L12.5 19.9997L5 12.5717C4.5053 12.0903 4.11564 11.5117 3.85554 10.8723C3.59545 10.2329 3.47056 9.54664 3.48873 8.85662C3.50691 8.1666 3.66776 7.48782 3.96115 6.86303C4.25455 6.23823 4.67413 5.68094 5.19348 5.22627C5.71283 4.77159 6.3207 4.42938 6.97881 4.22117C7.63691 4.01296 8.331 3.94327 9.01736 4.01649C9.70373 4.08971 10.3675 4.30425 10.9669 4.64659C11.5662 4.98894 12.0882 5.45169 12.5 6.00569C12.9135 5.45571 13.4361 4.99701 14.0351 4.65829C14.6341 4.31958 15.2965 4.10814 15.9809 4.03721C16.6654 3.96628 17.3571 4.03739 18.0128 4.24608C18.6685 4.45477 19.274 4.79656 19.7915 5.25005C20.3091 5.70354 20.7274 6.25897 21.0204 6.88158C21.3134 7.50419 21.4747 8.18057 21.4943 8.8684C21.5139 9.55622 21.3913 10.2407 21.1341 10.8789C20.877 11.5172 20.4909 12.0955 20 12.5777" stroke="#2E2E2E" stroke-width="2" stroke-linecap="round" stroke-linejoin="round"/>
<path d="M20 12.5717L12.5 19.9997L5 12.5717C4.5053 12.0903 4.11564 11.5117 3.85554 10.8723C3.59545 10.2329 3.47056 9.54664 3.48873 8.85662C3.50691 8.1666 3.66776 7.48782 3.96115 6.86303C4.25455 6.23823 4.67413 5.68094 5.19348 5.22627C5.71283 4.77159 6.3207 4.42938 6.97881 4.22117C7.63691 4.01296 8.331 3.94327 9.01736 4.01649C9.70373 4.08971 10.3675 4.30425 10.9669 4.64659C11.5662 4.98894 12.0882 5.45169 12.5 6.00569C12.9135 5.45571 13.4361 4.99701 14.0351 4.65829C14.6341 4.31958 15.2965 4.10814 15.9809 4.03721C16.6654 3.96628 17.3571 4.03739 18.0128 4.24608C18.6685 4.45477 19.274 4.79656 19.7915 5.25005C20.3091 5.70354 20.7274 6.25897 21.0204 6.88158C21.3134 7.50419 21.4747 8.18057 21.4943 8.8684C21.5139 9.55622 21.3913 10.2407 21.1341 10.8789C20.877 11.5172 20.4909 12.0955 20 12.5777" stroke="url(#paint1_linear_1373_2624)" stroke-width="2" stroke-linecap="round" stroke-linejoin="round"/>
<path d="M12.5 6L9.20697 9.293C9.0195 9.48053 8.91418 9.73484 8.91418 10C8.91418 10.2652 9.0195 10.5195 9.20697 10.707L9.74997 11.25C10.44 11.94 11.56 11.94 12.25 11.25L13.25 10.25C13.8467 9.65327 14.6561 9.31803 15.5 9.31803C16.3439 9.31803 17.1532 9.65327 17.75 10.25L20 12.5" stroke="#2E2E2E" stroke-width="2" stroke-linecap="round" stroke-linejoin="round"/>
<path d="M12.5 6L9.20697 9.293C9.0195 9.48053 8.91418 9.73484 8.91418 10C8.91418 10.2652 9.0195 10.5195 9.20697 10.707L9.74997 11.25C10.44 11.94 11.56 11.94 12.25 11.25L13.25 10.25C13.8467 9.65327 14.6561 9.31803 15.5 9.31803C16.3439 9.31803 17.1532 9.65327 17.75 10.25L20 12.5" stroke="url(#paint2_linear_1373_2624)" stroke-width="2" stroke-linecap="round" stroke-linejoin="round"/>
</g>
<defs>
<linearGradient id="paint0_linear_1373_2624" x1="11.7822" y1="3.98828" x2="21.0862" y2="12.5096" gradientUnits="userSpaceOnUse">
<stop stop-color="#0F1A36"/>
<stop offset="1" stop-color="#1B2F62"/>
</linearGradient>
<linearGradient id="paint1_linear_1373_2624" x1="11.7822" y1="3.98828" x2="21.0862" y2="12.5096" gradientUnits="userSpaceOnUse">
<stop stop-color="#0F1A36"/>
<stop offset="1" stop-color="#1B2F62"/>
</linearGradient>
<linearGradient id="paint2_linear_1373_2624" x1="14.0204" y1="6" x2="17.6164" y2="10.9939" gradientUnits="userSpaceOnUse">
<stop stop-color="#0F1A36"/>
<stop offset="1" stop-color="#1B2F62"/>
</linearGradient>
<clipPath id="clip0_1373_2624">
<rect width="24" height="24" fill="white" transform="translate(0.5)"/>
</clipPath>
</defs>
</svg>
