<svg width="24" height="24" viewBox="0 0 24 24" fill="none" xmlns="http://www.w3.org/2000/svg">
<path fill-rule="evenodd" clip-rule="evenodd" d="M4.6672 9.067V10.767H3.2002V11.767H20.8002V10.767H19.3332V9.067C19.334 7.83218 19.0227 6.61718 18.4283 5.53483C17.8339 4.45249 16.9756 3.5379 15.9332 2.876V9.066H14.9332V1.734C14.9333 1.63766 14.9145 1.54223 14.8777 1.45319C14.8409 1.36414 14.7869 1.28322 14.7189 1.21504C14.6508 1.14687 14.5699 1.09279 14.4809 1.05589C14.3919 1.01899 14.2965 1 14.2002 1H9.8002C9.60579 1 9.41935 1.07723 9.28189 1.21469C9.14442 1.35215 9.0672 1.5386 9.0672 1.733V9.067H8.0672V2.876C7.0249 3.53781 6.16671 4.45224 5.57231 5.53439C4.97791 6.61655 4.66657 7.83135 4.6672 9.066V9.067ZM4.6332 13.5H3.2002V16.5H5.2702C5.5002 17.018 5.7902 17.504 6.1292 17.95L4.7172 19.362L6.8382 21.484L8.3962 19.926C9.05277 20.2954 9.76247 20.5612 10.5002 20.714V23H13.5002V20.714C14.2379 20.5613 14.9476 20.2955 15.6042 19.926L17.1622 21.484L19.2832 19.362L17.8712 17.95C18.2102 17.504 18.4992 17.018 18.7312 16.5H20.8002V13.5H16.3672C16.3672 14.0735 16.2542 14.6413 16.0348 15.1712C15.8153 15.701 15.4936 16.1824 15.0881 16.5879C14.6826 16.9934 14.2012 17.3151 13.6714 17.5346C13.1415 17.754 12.5737 17.867 12.0002 17.867C11.4267 17.867 10.8588 17.754 10.329 17.5346C9.79919 17.3151 9.31777 16.9934 8.91226 16.5879C8.50675 16.1824 8.18508 15.701 7.96561 15.1712C7.74615 14.6413 7.63319 14.0735 7.63319 13.5H4.6332Z" fill="#1B2F62"/>
</svg>
