<svg width="24" height="24" viewBox="0 0 24 24" fill="none" xmlns="http://www.w3.org/2000/svg">
<g clip-path="url(#clip0_322_9798)">
<path d="M19.6002 2.60005V1.80005C19.6002 1.20005 20.0002 0.800049 20.6002 0.800049H21.4002C22.4002 0.800049 23.2002 1.60005 23.2002 2.60005V15.6001M19.6002 2.60005V12.8C19.6002 13.4 20.0002 13.8 20.6002 13.8H21.4002C22.4002 13.8 23.2002 14.6001 23.2002 15.6001M19.6002 2.60005H9.2002C8.6002 2.60005 8.2002 3.00005 8.2002 3.60005V7.68802M23.2002 15.6001C23.2002 16.6001 22.4002 17.4 21.4002 17.4H18.9807" stroke="#1B2F62" stroke-miterlimit="10" stroke-linecap="round" stroke-linejoin="round"/>
<path d="M10.7998 12.9C13.6998 13.6 15.7998 16.2 15.7998 19.2V20.2M7.79981 20.2V12.2C7.79981 11.6 8.19981 11.2 8.79981 11.2H9.79981C10.3998 11.2 10.7998 11.6 10.7998 12.2V20.2M7.79981 12.9C4.89981 13.6 2.79981 16.2 2.79981 19.2V20.2M17.7998 22.2C17.7998 22.8 17.3998 23.2 16.7998 23.2H1.79981C1.19981 23.2 0.799805 22.8 0.799805 22.2V21.2C0.799805 20.6 1.19981 20.2 1.79981 20.2H16.7998C17.3998 20.2 17.7998 20.6 17.7998 21.2V22.2Z" stroke="#1B2F62" stroke-miterlimit="10" stroke-linecap="round" stroke-linejoin="round"/>
</g>
<defs>
<clipPath id="clip0_322_9798">
<rect width="24" height="24" fill="white"/>
</clipPath>
</defs>
</svg>
