<svg width="13" height="14" viewBox="0 0 13 14" fill="none" xmlns="http://www.w3.org/2000/svg">
<g clip-path="url(#clip0_1362_2948)">
<path d="M6.5 3.74984C6.5 4.03716 6.61414 4.31271 6.8173 4.51587C7.02047 4.71903 7.29602 4.83317 7.58333 4.83317C7.87065 4.83317 8.1462 4.71903 8.34937 4.51587C8.55253 4.31271 8.66667 4.03716 8.66667 3.74984C8.66667 3.46252 8.55253 3.18697 8.34937 2.9838C8.1462 2.78064 7.87065 2.6665 7.58333 2.6665C7.29602 2.6665 7.02047 2.78064 6.8173 2.9838C6.61414 3.18697 6.5 3.46252 6.5 3.74984Z" stroke="#2E2E2E" stroke-linecap="round" stroke-linejoin="round"/>
<path d="M2.16663 3.75H6.49996" stroke="#2E2E2E" stroke-linecap="round" stroke-linejoin="round"/>
<path d="M8.66663 3.75H10.8333" stroke="#2E2E2E" stroke-linecap="round" stroke-linejoin="round"/>
<path d="M3.25 6.99984C3.25 7.28716 3.36414 7.56271 3.5673 7.76587C3.77047 7.96903 4.04602 8.08317 4.33333 8.08317C4.62065 8.08317 4.8962 7.96903 5.09937 7.76587C5.30253 7.56271 5.41667 7.28716 5.41667 6.99984C5.41667 6.71252 5.30253 6.43697 5.09937 6.23381C4.8962 6.03064 4.62065 5.9165 4.33333 5.9165C4.04602 5.9165 3.77047 6.03064 3.5673 6.23381C3.36414 6.43697 3.25 6.71252 3.25 6.99984Z" stroke="#2E2E2E" stroke-linecap="round" stroke-linejoin="round"/>
<path d="M2.16663 7H3.24996" stroke="#2E2E2E" stroke-linecap="round" stroke-linejoin="round"/>
<path d="M5.41663 7H10.8333" stroke="#2E2E2E" stroke-linecap="round" stroke-linejoin="round"/>
<path d="M8.125 10.2498C8.125 10.5372 8.23914 10.8127 8.4423 11.0159C8.64547 11.219 8.92102 11.3332 9.20833 11.3332C9.49565 11.3332 9.7712 11.219 9.97437 11.0159C10.1775 10.8127 10.2917 10.5372 10.2917 10.2498C10.2917 9.96252 10.1775 9.68697 9.97437 9.48381C9.7712 9.28064 9.49565 9.1665 9.20833 9.1665C8.92102 9.1665 8.64547 9.28064 8.4423 9.48381C8.23914 9.68697 8.125 9.96252 8.125 10.2498Z" stroke="#2E2E2E" stroke-linecap="round" stroke-linejoin="round"/>
<path d="M2.16663 10.25H8.12496" stroke="#2E2E2E" stroke-linecap="round" stroke-linejoin="round"/>
<path d="M10.2916 10.25H10.8333" stroke="#2E2E2E" stroke-linecap="round" stroke-linejoin="round"/>
</g>
<defs>
<clipPath id="clip0_1362_2948">
<rect width="13" height="13" fill="white" transform="translate(0 0.5)"/>
</clipPath>
</defs>
</svg>
