<svg width="24" height="24" viewBox="0 0 24 24" fill="none" xmlns="http://www.w3.org/2000/svg">
<path d="M3.94727 18.2625C3.94727 18.7375 4.13592 19.1929 4.47173 19.5287C4.80753 19.8645 5.26299 20.0532 5.73789 20.0532C6.21279 20.0532 6.66825 19.8645 7.00405 19.5287C7.33986 19.1929 7.52852 18.7375 7.52852 18.2625C7.52852 17.7876 7.33986 17.3322 7.00405 16.9964C6.66825 16.6606 6.21279 16.4719 5.73789 16.4719C5.26299 16.4719 4.80753 16.6606 4.47173 16.9964C4.13592 17.3322 3.94727 17.7876 3.94727 18.2625Z" stroke="black" stroke-miterlimit="10"/>
<path d="M16.4717 18.2625C16.4717 18.7375 16.6603 19.1929 16.9961 19.5287C17.3319 19.8645 17.7874 20.0532 18.2623 20.0532C18.7372 20.0532 19.1927 19.8645 19.5285 19.5287C19.8643 19.1929 20.0529 18.7375 20.0529 18.2625C20.0529 17.7876 19.8643 17.3322 19.5285 16.9964C19.1927 16.6606 18.7372 16.4719 18.2623 16.4719C17.7874 16.4719 17.3319 16.6606 16.9961 16.9964C16.6603 17.3322 16.4717 17.7876 16.4717 18.2625Z" stroke="black" stroke-miterlimit="10"/>
<path d="M20.0529 18.2625H21.8436V13.7906V12.9L20.0529 7.52808H16.4717V13.7906V18.2625" stroke="black" stroke-miterlimit="10"/>
<path d="M19.1621 13.7905H21.8434" stroke="black" stroke-miterlimit="10"/>
<path d="M19.1625 3.94678H16.4719M16.4719 3.94678V13.7905H4.8375L2.15625 11.0999V5.7374H12.9L14.6812 3.94678H16.4719Z" stroke="black" stroke-miterlimit="10"/>
<path d="M9.31836 9.31885V13.7907" stroke="black" stroke-miterlimit="10"/>
<path d="M5.7373 9.31885V13.7907" stroke="black" stroke-miterlimit="10"/>
<path d="M12.8906 9.31885V13.7907" stroke="black" stroke-miterlimit="10"/>
<path d="M7.52813 18.2624H16.4719V13.7905H12.9H9.31875H5.7375H4.8375H2.15625V18.2624H3.94687" stroke="black" stroke-miterlimit="10"/>
</svg>
