<svg width="25" height="24" viewBox="0 0 25 24" fill="none" xmlns="http://www.w3.org/2000/svg">
<g clip-path="url(#clip0_1362_4514)">
<path d="M19.5 8.70977L14.167 4.56177C13.699 4.19768 13.123 4 12.53 4C11.937 4 11.361 4.19768 10.893 4.56177L5.559 8.70977C5.23844 8.95905 4.97909 9.2783 4.80075 9.64312C4.62242 10.0079 4.52981 10.4087 4.53 10.8148V18.0148C4.53 18.5452 4.74071 19.0539 5.11579 19.429C5.49086 19.8041 5.99957 20.0148 6.53 20.0148H18.53C19.0604 20.0148 19.5691 19.8041 19.9442 19.429C20.3193 19.0539 20.53 18.5452 20.53 18.0148V10.8148C20.53 9.99177 20.15 9.21477 19.5 8.70977Z" stroke="#2E2E2E" stroke-width="2" stroke-linecap="round" stroke-linejoin="round"/>
<path d="M16.5 15C14.29 16.333 10.708 16.333 8.5 15" stroke="#2E2E2E" stroke-width="2" stroke-linecap="round" stroke-linejoin="round"/>
</g>
<defs>
<clipPath id="clip0_1362_4514">
<rect width="24" height="24" fill="white" transform="translate(0.5)"/>
</clipPath>
</defs>
</svg>
