<svg width="14" height="14" viewBox="0 0 14 14" fill="none" xmlns="http://www.w3.org/2000/svg">
<g clip-path="url(#clip0_1307_7588)">
<path d="M5.25 6.4165C5.25 6.88063 5.43437 7.32575 5.76256 7.65394C6.09075 7.98213 6.53587 8.1665 7 8.1665C7.46413 8.1665 7.90925 7.98213 8.23744 7.65394C8.56563 7.32575 8.75 6.88063 8.75 6.4165C8.75 5.95238 8.56563 5.50726 8.23744 5.17907C7.90925 4.85088 7.46413 4.6665 7 4.6665C6.53587 4.6665 6.09075 4.85088 5.76256 5.17907C5.43437 5.50726 5.25 5.95238 5.25 6.4165Z" stroke="#545454" stroke-width="1.5" stroke-linecap="round" stroke-linejoin="round"/>
<path d="M10.2999 9.71641L7.82481 12.1915C7.60606 12.41 7.30949 12.5328 7.00027 12.5328C6.69106 12.5328 6.39449 12.41 6.17573 12.1915L3.70007 9.71641C3.04744 9.06376 2.60301 8.23224 2.42297 7.327C2.24292 6.42176 2.33535 5.48346 2.68857 4.63076C3.04178 3.77805 3.63992 3.04923 4.40735 2.53646C5.17477 2.02369 6.07701 1.75 6.99998 1.75C7.92295 1.75 8.82519 2.02369 9.59262 2.53646C10.36 3.04923 10.9582 3.77805 11.3114 4.63076C11.6646 5.48346 11.757 6.42176 11.577 7.327C11.397 8.23224 10.9525 9.06376 10.2999 9.71641Z" stroke="#545454" stroke-width="1.5" stroke-linecap="round" stroke-linejoin="round"/>
</g>
<defs>
<clipPath id="clip0_1307_7588">
<rect width="14" height="14" fill="white"/>
</clipPath>
</defs>
</svg>
