<svg width="26" height="26" viewBox="0 0 26 26" fill="none" xmlns="http://www.w3.org/2000/svg">
<path d="M2.61816 19.2291C2.61816 19.5044 2.72754 19.7685 2.92224 19.9632C3.11694 20.1579 3.38101 20.2673 3.65636 20.2673H22.3439C22.6192 20.2673 22.8833 20.1579 23.078 19.9632C23.2727 19.7685 23.3821 19.5044 23.3821 19.2291V17.1527C23.3821 16.8773 23.2727 16.6133 23.078 16.4186C22.8833 16.2239 22.6192 16.1145 22.3439 16.1145H3.65636C3.38101 16.1145 3.11694 16.2239 2.92224 16.4186C2.72754 16.6133 2.61816 16.8773 2.61816 17.1527V19.2291Z" stroke="#1B2F62" stroke-linecap="round" stroke-linejoin="round"/>
<path d="M10.9238 10.9235V5.73253C10.9238 5.59619 10.9507 5.46119 11.0029 5.33523C11.055 5.20927 11.1315 5.09482 11.2279 4.99842C11.3243 4.90201 11.4388 4.82554 11.5647 4.77336C11.6907 4.72119 11.8257 4.69434 11.962 4.69434H14.0384C14.3138 4.69434 14.5778 4.80372 14.7725 4.99842C14.9672 5.19312 15.0766 5.45718 15.0766 5.73253V10.9235" stroke="#1B2F62" stroke-linecap="round" stroke-linejoin="round"/>
<path d="M4.69434 16.1145V12.9999C4.69434 11.3478 5.35062 9.76343 6.51882 8.59523C7.68701 7.42704 9.27142 6.77075 10.9235 6.77075" stroke="#1B2F62" stroke-linecap="round" stroke-linejoin="round"/>
<path d="M15.0762 6.77075C16.7282 6.77075 18.3127 7.42704 19.4809 8.59523C20.6491 9.76343 21.3053 11.3478 21.3053 12.9999V16.1145" stroke="#1B2F62" stroke-linecap="round" stroke-linejoin="round"/>
</svg>
