<svg width="24" height="24" viewBox="0 0 24 24" fill="none" xmlns="http://www.w3.org/2000/svg">
<path d="M6 19.5H12.5V17.75H6V19.5ZM6.5 9.75H11.5C11.6334 9.75 11.75 9.7 11.85 9.6C11.95 9.5 12 9.38335 12 9.25C12 9.11665 11.95 9 11.85 8.9C11.75 8.8 11.6334 8.75 11.5 8.75H6.5C6.36665 8.75 6.25 8.8 6.15 8.9C6.05 9 6 9.11665 6 9.25C6 9.38335 6.05 9.5 6.15 9.6C6.25 9.7 6.36665 9.75 6.5 9.75ZM6.5 7.25H11.5C11.6334 7.25 11.75 7.2 11.85 7.1C11.95 7 12 6.88335 12 6.75C12 6.61665 11.95 6.5 11.85 6.4C11.75 6.3 11.6334 6.25 11.5 6.25H6.5C6.36665 6.25 6.25 6.3 6.15 6.4C6.05 6.5 6 6.61665 6 6.75C6 6.88335 6.05 7 6.15 7.1C6.25 7.2 6.36665 7.25 6.5 7.25ZM16 11V9.5H18.5V6.5H16V5H18.5C18.9125 5 19.2656 5.14685 19.5595 5.4405C19.8531 5.73435 20 6.0875 20 6.5V7.25H22.25C22.4625 7.25 22.6406 7.32185 22.7845 7.4655C22.9282 7.60935 23 7.7875 23 8C23 8.2 22.9282 8.375 22.7845 8.525C22.6406 8.675 22.4625 8.75 22.25 8.75H20V9.5C20 9.9125 19.8531 10.2656 19.5595 10.5592C19.2656 10.8531 18.9125 11 18.5 11H16ZM12 16.25H10.5V11.5H14.5V4.5H6C5.3 4.5 4.70833 4.74166 4.225 5.225C3.74166 5.70835 3.5 6.3 3.5 7V9C3.5 9.7 3.74166 10.2916 4.225 10.775C4.70833 11.2583 5.3 11.5 6 11.5H8V16.25H6.5V13H6C4.9 13 3.95833 12.6083 3.175 11.825C2.39166 11.0416 2 10.1 2 9V7C2 5.9 2.39166 4.95834 3.175 4.175C3.95833 3.39167 4.9 3 6 3H14.5C14.9125 3 15.2656 3.14684 15.5595 3.4405C15.8531 3.73434 16 4.0875 16 4.5V11.5C16 11.9125 15.8531 12.2656 15.5595 12.5592C15.2656 12.8531 14.9125 13 14.5 13H12V16.25ZM5.625 21C5.3125 21 5.0469 20.8906 4.82825 20.6717C4.60942 20.4531 4.5 20.1875 4.5 19.875V17.375C4.5 17.0625 4.60942 16.7968 4.82825 16.578C5.0469 16.3593 5.3125 16.25 5.625 16.25H12.875C13.1875 16.25 13.4531 16.3593 13.672 16.578C13.8906 16.7968 14 17.0625 14 17.375V19.875C14 20.1875 13.8906 20.4531 13.672 20.6717C13.4531 20.8906 13.1875 21 12.875 21H5.625Z" fill="#1B2F62"/>
</svg>
